<svg width="24" height="24" viewBox="0 0 24 24" fill="none" xmlns="http://www.w3.org/2000/svg">
<path d="M22.4663 1.86616e-06H1.06898C0.883881 -0.000329392 0.702287 0.0504587 0.544218 0.146767C0.386148 0.243074 0.257743 0.381161 0.173159 0.545803C0.0873929 0.712773 0.0494019 0.900184 0.0633752 1.08737C0.0773485 1.27456 0.142743 1.45426 0.252349 1.60664L8.09141 12.6494C8.09403 12.6533 8.09689 12.6568 8.09951 12.6606C8.38431 13.0452 8.53842 13.511 8.53926 13.9896V22.9926C8.53841 23.1246 8.56367 23.2555 8.6136 23.3777C8.66353 23.4998 8.73713 23.6109 8.83017 23.7046C8.92322 23.7982 9.03386 23.8725 9.15573 23.9232C9.2776 23.9738 9.40829 23.9999 9.54028 23.9999C9.67594 23.9999 9.80989 23.9728 9.93501 23.9209L14.34 22.2412C14.7347 22.1208 14.9967 21.7484 14.9967 21.2999V13.9896C14.9975 13.511 15.1515 13.0453 15.4362 12.6606C15.4388 12.6568 15.4417 12.6533 15.4443 12.6494L23.2831 1.60615C23.3927 1.45387 23.4581 1.27427 23.4721 1.08716C23.4861 0.900064 23.4481 0.712739 23.3623 0.545863C23.2777 0.381183 23.1493 0.243067 22.9912 0.146747C22.833 0.0504269 22.6514 -0.000354823 22.4663 1.86616e-06ZM14.4539 11.9389C14.0161 12.5331 13.7793 13.2515 13.7779 13.9896V21.1518L9.7575 22.6847V13.9896C9.75614 13.2514 9.51921 12.533 9.08122 11.9389L1.4709 1.21831H22.0645L14.4539 11.9389Z" fill="currentColor" stroke="currentColor"/>
</svg>
