<svg width="47" height="48" viewBox="0 0 47 48" fill="none" xmlns="http://www.w3.org/2000/svg">
<path d="M31.3333 21C31.3332 21.3941 31.2571 21.7843 31.1093 22.1484C30.9615 22.5124 30.7449 22.8432 30.472 23.1217C30.199 23.4003 29.875 23.6213 29.5185 23.7719C29.1619 23.9226 28.7798 24.0001 28.3939 24C28.008 23.9999 27.6259 23.9221 27.2694 23.7712C26.913 23.6202 26.5891 23.3991 26.3163 23.1203C26.0436 22.8416 25.8272 22.5107 25.6797 22.1465C25.5321 21.7824 25.4562 21.3921 25.4564 20.998C25.4566 20.2021 25.7665 19.4389 26.3177 18.8763C26.869 18.3137 27.6165 17.9977 28.3958 17.998C29.1752 17.9983 29.9225 18.3147 30.4734 18.8777C31.0243 19.4407 31.3336 20.2041 31.3333 21ZM18.6042 18C18.2183 18.0001 17.8362 18.0779 17.4797 18.2288C17.1233 18.3798 16.7994 18.6009 16.5266 18.8797C15.9757 19.4427 15.6664 20.2061 15.6667 21.002C15.6668 21.3961 15.7429 21.7863 15.8907 22.1504C16.0385 22.5144 16.2551 22.8452 16.528 23.1237C17.0793 23.6863 17.8268 24.0023 18.6061 24.002C19.3855 24.0017 20.1328 23.6853 20.6837 23.1223C21.2345 22.5593 21.5439 21.7959 21.5436 21C21.5434 20.2041 21.2335 19.4409 20.6823 18.8783C20.131 18.3157 19.3835 17.9997 18.6042 18ZM47 18V22H43.0833V40H33.5815L26.0478 46.36C25.3493 46.9891 24.4489 47.3343 23.5176 47.33C22.5515 47.3306 21.6189 46.9682 20.8974 46.312L13.5575 40H3.91667V22H0V18H3.91667V6C3.91667 2.692 6.55258 0 9.79167 0H37.2083C40.4474 0 43.0833 2.692 43.0833 6V18H47ZM35.25 16C35.25 14.9391 34.8374 13.9217 34.1028 13.1716C33.3683 12.4214 32.3721 12 31.3333 12H15.6667C14.6279 12 13.6317 12.4214 12.8972 13.1716C12.1626 13.9217 11.75 14.9391 11.75 16V26C11.75 27.0609 12.1626 28.0783 12.8972 28.8284C13.6317 29.5786 14.6279 30 15.6667 30H31.3333C32.3721 30 33.3683 29.5786 34.1028 28.8284C34.8374 28.0783 35.25 27.0609 35.25 26V16Z" fill="currentColor"/>
</svg>
