<svg width="47" height="48" viewBox="0 0 47 48" fill="none" xmlns="http://www.w3.org/2000/svg">
<path d="M31.3333 21C31.3332 21.3941 31.2571 21.7843 31.1093 22.1484C30.9615 22.5124 30.7449 22.8432 30.472 23.1217C30.199 23.4003 29.875 23.6213 29.5185 23.7719C29.1619 23.9226 28.7798 24.0001 28.3939 24C28.008 23.9999 27.6259 23.9221 27.2694 23.7712C26.913 23.6202 26.5891 23.3991 26.3163 23.1203C26.0436 22.8416 25.8272 22.5107 25.6797 22.1465C25.5321 21.7824 25.4562 21.3921 25.4564 20.998C25.4566 20.2021 25.7665 19.4389 26.3177 18.8763C26.869 18.3137 27.6165 17.9977 28.3958 17.998C29.1752 17.9983 29.9225 18.3147 30.4734 18.8777C31.0243 19.4407 31.3336 20.2041 31.3333 21ZM47 18V22H43.0833V40H33.5815L26.0478 46.36C25.3493 46.9891 24.4489 47.3343 23.5176 47.33C22.5515 47.3306 21.6189 46.9682 20.8974 46.312L13.5575 40H3.91667V22H0V18H3.91667V6C3.91667 2.692 6.55258 0 9.79167 0H37.2083C40.4474 0 43.0833 2.692 43.0833 6V18H47Z" fill="var(--icon-navigation-gold)"/>
<path d="M24.704 25.624H22.256C22.192 24.92 22.232 24.296 22.376 23.752C22.536 23.208 22.832 22.696 23.264 22.216C23.712 21.72 24.32 21.208 25.088 20.68C25.6 20.328 25.968 19.976 26.192 19.624C26.432 19.272 26.552 18.88 26.552 18.448C26.552 17.776 26.304 17.224 25.808 16.792C25.312 16.36 24.664 16.144 23.864 16.144C23.144 16.144 22.432 16.352 21.728 16.768C21.024 17.168 20.376 17.808 19.784 18.688L17.696 16.624C18.512 15.6 19.456 14.816 20.528 14.272C21.616 13.728 22.76 13.456 23.96 13.456C25.064 13.456 26.048 13.68 26.912 14.128C27.776 14.56 28.456 15.152 28.952 15.904C29.464 16.64 29.72 17.48 29.72 18.424C29.72 19.32 29.464 20.12 28.952 20.824C28.456 21.528 27.704 22.184 26.696 22.792C25.912 23.24 25.384 23.672 25.112 24.088C24.84 24.504 24.704 25.016 24.704 25.624ZM25.496 29.32C25.496 29.848 25.304 30.304 24.92 30.688C24.536 31.056 24.064 31.24 23.504 31.24C22.944 31.24 22.472 31.056 22.088 30.688C21.704 30.304 21.512 29.848 21.512 29.32C21.512 28.776 21.704 28.32 22.088 27.952C22.472 27.568 22.944 27.376 23.504 27.376C24.064 27.376 24.536 27.568 24.92 27.952C25.304 28.32 25.496 28.776 25.496 29.32Z" fill="white"/>
</svg>
