<svg width="22" height="22" viewBox="0 0 22 22" fill="none" xmlns="http://www.w3.org/2000/svg">
<path d="M14.6667 9.625C14.6666 9.80563 14.631 9.98448 14.5618 10.1513C14.4926 10.3182 14.3912 10.4698 14.2635 10.5975C14.1357 10.7251 13.9841 10.8264 13.8172 10.8955C13.6502 10.9645 13.4714 11.0001 13.2907 11C13.1101 10.9999 12.9313 10.9643 12.7644 10.8951C12.5976 10.8259 12.446 10.7246 12.3183 10.5968C12.1906 10.469 12.0893 10.3174 12.0203 10.1505C11.9512 9.98358 11.9157 9.80471 11.9157 9.62408C11.9159 9.25929 12.0609 8.90948 12.3189 8.65162C12.577 8.39376 12.9269 8.24896 13.2917 8.24908C13.6565 8.2492 14.0063 8.39424 14.2641 8.65227C14.522 8.9103 14.6668 9.26021 14.6667 9.625ZM8.70833 8.25C8.52771 8.25006 8.34886 8.2857 8.182 8.35488C8.01515 8.42406 7.86355 8.52542 7.73587 8.65319C7.47801 8.91122 7.33321 9.26112 7.33333 9.62592C7.33339 9.80654 7.36903 9.98539 7.43821 10.1522C7.50739 10.3191 7.60875 10.4707 7.73652 10.5984C7.99455 10.8562 8.34446 11.001 8.70925 11.0009C9.07405 11.0008 9.42385 10.8558 9.68171 10.5977C9.93958 10.3397 10.0844 9.98979 10.0843 9.625C10.0841 9.26021 9.9391 8.9104 9.68106 8.65254C9.42303 8.39468 9.07313 8.24988 8.70833 8.25ZM22 8.25V10.0833H20.1667V18.3333H15.719L12.1926 21.2483C11.8656 21.5367 11.4442 21.6949 11.0083 21.6929C10.556 21.6932 10.1195 21.5271 9.78175 21.2263L6.34608 18.3333H1.83333V10.0833H0V8.25H1.83333V2.75C1.83333 1.23383 3.06717 0 4.58333 0H17.4167C18.9328 0 20.1667 1.23383 20.1667 2.75V8.25H22ZM16.5 7.33333C16.5 6.8471 16.3068 6.38079 15.963 6.03697C15.6192 5.69315 15.1529 5.5 14.6667 5.5H7.33333C6.8471 5.5 6.38079 5.69315 6.03697 6.03697C5.69315 6.38079 5.5 6.8471 5.5 7.33333V11.9167C5.5 12.4029 5.69315 12.8692 6.03697 13.213C6.38079 13.5568 6.8471 13.75 7.33333 13.75H14.6667C15.1529 13.75 15.6192 13.5568 15.963 13.213C16.3068 12.8692 16.5 12.4029 16.5 11.9167V7.33333Z" fill="var(--icon-navigation-gold)"/>
<path d="M14.6667 9.625C14.6666 9.80563 14.631 9.98448 14.5618 10.1513C14.4926 10.3182 14.3912 10.4698 14.2635 10.5975C14.1357 10.7251 13.9841 10.8264 13.8172 10.8955C13.6502 10.9645 13.4714 11.0001 13.2907 11C13.1101 10.9999 12.9313 10.9643 12.7644 10.8951C12.5976 10.8259 12.446 10.7246 12.3183 10.5968C12.1906 10.469 12.0893 10.3174 12.0203 10.1505C11.9512 9.98358 11.9157 9.80471 11.9157 9.62408C11.9159 9.25929 12.0609 8.90948 12.3189 8.65162C12.577 8.39376 12.9269 8.24896 13.2917 8.24908C13.6565 8.2492 14.0063 8.39424 14.2641 8.65227C14.522 8.9103 14.6668 9.26021 14.6667 9.625ZM8.70833 8.25C8.52771 8.25006 8.34886 8.2857 8.182 8.35488C8.01515 8.42406 7.86355 8.52542 7.73587 8.65319C7.47801 8.91122 7.33321 9.26112 7.33333 9.62592C7.33339 9.80654 7.36903 9.98539 7.43821 10.1522C7.50739 10.3191 7.60875 10.4707 7.73652 10.5984C7.99455 10.8562 8.34446 11.001 8.70925 11.0009C9.07405 11.0008 9.42385 10.8558 9.68171 10.5977C9.93958 10.3397 10.0844 9.98979 10.0843 9.625C10.0841 9.26021 9.9391 8.9104 9.68106 8.65254C9.42303 8.39468 9.07313 8.24988 8.70833 8.25ZM22 8.25V10.0833H20.1667V18.3333H15.719L12.1926 21.2483C11.8656 21.5367 11.4442 21.6949 11.0083 21.6929C10.556 21.6932 10.1195 21.5271 9.78175 21.2263L6.34608 18.3333H1.83333V10.0833H0V8.25H1.83333V2.75C1.83333 1.23383 3.06717 0 4.58333 0H17.4167C18.9328 0 20.1667 1.23383 20.1667 2.75V8.25H22ZM16.5 7.33333C16.5 6.8471 16.3068 6.38079 15.963 6.03697C15.6192 5.69315 15.1529 5.5 14.6667 5.5H7.33333C6.8471 5.5 6.38079 5.69315 6.03697 6.03697C5.69315 6.38079 5.5 6.8471 5.5 7.33333V11.9167C5.5 12.4029 5.69315 12.8692 6.03697 13.213C6.38079 13.5568 6.8471 13.75 7.33333 13.75H14.6667C15.1529 13.75 15.6192 13.5568 15.963 13.213C16.3068 12.8692 16.5 12.4029 16.5 11.9167V7.33333Z" fill="url(#paint0_linear_636_5313)" fill-opacity="0.2"/>
<path d="M14.6667 9.625C14.6666 9.80563 14.631 9.98448 14.5618 10.1513C14.4926 10.3182 14.3912 10.4698 14.2635 10.5975C14.1357 10.7251 13.9841 10.8264 13.8172 10.8955C13.6502 10.9645 13.4714 11.0001 13.2907 11C13.1101 10.9999 12.9313 10.9643 12.7644 10.8951C12.5976 10.8259 12.446 10.7246 12.3183 10.5968C12.1906 10.469 12.0893 10.3174 12.0203 10.1505C11.9512 9.98358 11.9157 9.80471 11.9157 9.62408C11.9159 9.25929 12.0609 8.90948 12.3189 8.65162C12.577 8.39376 12.9269 8.24896 13.2917 8.24908C13.6565 8.2492 14.0063 8.39424 14.2641 8.65227C14.522 8.9103 14.6668 9.26021 14.6667 9.625ZM8.70833 8.25C8.52771 8.25006 8.34886 8.2857 8.182 8.35488C8.01515 8.42406 7.86355 8.52542 7.73587 8.65319C7.47801 8.91122 7.33321 9.26112 7.33333 9.62592C7.33339 9.80654 7.36903 9.98539 7.43821 10.1522C7.50739 10.3191 7.60875 10.4707 7.73652 10.5984C7.99455 10.8562 8.34446 11.001 8.70925 11.0009C9.07405 11.0008 9.42385 10.8558 9.68171 10.5977C9.93958 10.3397 10.0844 9.98979 10.0843 9.625C10.0841 9.26021 9.9391 8.9104 9.68106 8.65254C9.42303 8.39468 9.07313 8.24988 8.70833 8.25ZM22 8.25V10.0833H20.1667V18.3333H15.719L12.1926 21.2483C11.8656 21.5367 11.4442 21.6949 11.0083 21.6929C10.556 21.6932 10.1195 21.5271 9.78175 21.2263L6.34608 18.3333H1.83333V10.0833H0V8.25H1.83333V2.75C1.83333 1.23383 3.06717 0 4.58333 0H17.4167C18.9328 0 20.1667 1.23383 20.1667 2.75V8.25H22ZM16.5 7.33333C16.5 6.8471 16.3068 6.38079 15.963 6.03697C15.6192 5.69315 15.1529 5.5 14.6667 5.5H7.33333C6.8471 5.5 6.38079 5.69315 6.03697 6.03697C5.69315 6.38079 5.5 6.8471 5.5 7.33333V11.9167C5.5 12.4029 5.69315 12.8692 6.03697 13.213C6.38079 13.5568 6.8471 13.75 7.33333 13.75H14.6667C15.1529 13.75 15.6192 13.5568 15.963 13.213C16.3068 12.8692 16.5 12.4029 16.5 11.9167V7.33333Z" fill="url(#paint1_linear_636_5313)" fill-opacity="0.15"/>
<defs>
<linearGradient id="paint0_linear_636_5313" x1="11" y1="0" x2="11" y2="21.6929" gradientUnits="userSpaceOnUse">
<stop stop-opacity="0"/>
<stop offset="1"/>
</linearGradient>
<linearGradient id="paint1_linear_636_5313" x1="-0.999999" y1="26.5415" x2="-4.5" y2="24.5415" gradientUnits="userSpaceOnUse">
<stop stop-color="white" stop-opacity="0"/>
<stop offset="1" stop-color="white"/>
</linearGradient>
</defs>
</svg>
