<svg width="22" height="22" viewBox="0 0 22 22" fill="none" xmlns="http://www.w3.org/2000/svg">
<mask id="mask0_497_16761" style="mask-type:alpha" maskUnits="userSpaceOnUse" x="0" y="0" width="22" height="22">
<path fill-rule="evenodd" clip-rule="evenodd" d="M21.0799 12.8458C21.5362 12.2639 22 11.6726 22 11C22 10.3273 21.5362 9.73596 21.0799 9.15412C20.743 8.72467 20.4103 8.3004 20.2711 7.85244C20.1241 7.3793 20.1534 6.81033 20.1827 6.24331C20.221 5.49997 20.2592 4.75999 19.8996 4.24372C19.5353 3.72067 18.8436 3.52945 18.1529 3.33853C17.6298 3.19393 17.1073 3.0495 16.7281 2.76119C16.3552 2.47766 16.0667 2.00811 15.7766 1.53592C15.389 0.905057 14.9984 0.26947 14.4 0.066427C13.8313 -0.126475 13.1798 0.136115 12.5191 0.402348C12.0067 0.608863 11.4888 0.817571 11 0.817571C10.5112 0.817571 9.99333 0.608863 9.48089 0.402347C8.82027 0.136115 8.16869 -0.126475 7.60008 0.066427C7.0016 0.269468 6.61108 0.905047 6.22347 1.5359C5.93333 2.0081 5.64482 2.47766 5.27195 2.76119C4.8928 3.04948 4.3703 3.19391 3.84719 3.33851C3.15651 3.52943 2.46475 3.72065 2.10043 4.24369C1.74083 4.75996 1.77901 5.49992 1.81736 6.24325C1.84662 6.81028 1.87598 7.37927 1.72895 7.85241C1.58973 8.30041 1.25695 8.7247 0.920124 9.15417C0.463785 9.73602 0 10.3274 0 11C0 11.6726 0.463785 12.264 0.920124 12.8458C1.25695 13.2753 1.58973 13.6996 1.72895 14.1476C1.87597 14.6207 1.8466 15.1897 1.81734 15.7567C1.77898 16.5001 1.7408 17.24 2.1004 17.7563C2.46472 18.2793 3.15646 18.4705 3.84714 18.6615C4.37026 18.8061 4.89277 18.9505 5.27192 19.2388C5.64479 19.5223 5.9333 19.9919 6.22343 20.4641C6.61105 21.0949 7.00158 21.7305 7.60008 21.9336C8.16869 22.1265 8.82027 21.8639 9.48089 21.5977C9.99333 21.3911 10.5112 21.1824 11 21.1824C11.4888 21.1824 12.0067 21.3911 12.5191 21.5977C13.1798 21.8639 13.8313 22.1265 14.4 21.9336C14.9984 21.7305 15.3889 21.095 15.7766 20.4641C16.0667 19.9919 16.3552 19.5223 16.7281 19.2388C17.1072 18.9505 17.6297 18.8061 18.1529 18.6615C18.8435 18.4705 19.5353 18.2793 19.8996 17.7563C20.2592 17.24 20.221 16.5 20.1827 15.7567C20.1534 15.1897 20.124 14.6207 20.2711 14.1476C20.4103 13.6996 20.7431 13.2753 21.0799 12.8458ZM11.013 5.55C10.4886 5.55 10.0535 5.97089 10.0535 6.50278C10.0535 6.8094 9.96174 7.1093 9.78864 7.36489L9.78833 7.36536L8.38788 9.43889H7.12588C6.70983 9.43889 6.30965 9.60194 6.01367 9.89404C5.71749 10.1863 5.55 10.584 5.55 11V14.3333C5.55 14.7493 5.71749 15.147 6.01367 15.4393C6.30965 15.7314 6.70983 15.8944 7.12588 15.8944H8.19707L10.2605 16.4034L10.2608 16.4035C10.386 16.4345 10.514 16.45 10.642 16.45H12.9031H12.9033C13.1949 16.4501 13.4811 16.3701 13.7299 16.2183C13.9788 16.0666 14.1808 15.8488 14.3124 15.5889L14.3124 15.5888L16.2827 11.7L16.2827 11.6999C16.4035 11.4615 16.4606 11.1962 16.4484 10.9293C16.4362 10.6624 16.355 10.4034 16.2132 10.1769C16.0713 9.95041 15.8736 9.76415 15.6393 9.63525C15.405 9.50636 15.1417 9.4389 14.8742 9.43889H14.8742H12.6423V7.11111C12.6423 6.69515 12.4748 6.29744 12.1787 6.00515C11.8827 5.71305 11.4825 5.55 11.0664 5.55H11.013ZM7.12588 10.3389H7.81431C7.80601 10.3733 7.80175 10.4087 7.80175 10.4444V14.9944H7.12588C6.94472 14.9944 6.77216 14.9234 6.64585 14.7987C6.51974 14.6743 6.45 14.5067 6.45 14.3333V11C6.45 10.8266 6.51974 10.6591 6.64585 10.5346C6.77216 10.41 6.94472 10.3389 7.12588 10.3389ZM10.4767 15.5298L8.70175 15.092V10.5822L10.5338 7.86956L10.5339 7.86941C10.8078 7.46503 10.9535 6.98943 10.9535 6.50278C10.9535 6.47911 10.9744 6.45 11.013 6.45H11.0664C11.2476 6.45 11.4202 6.52108 11.5465 6.64573C11.6726 6.77018 11.7423 6.93771 11.7423 7.11111V9.43889H11.0664C10.8179 9.43889 10.6164 9.64036 10.6164 9.88889C10.6164 10.1374 10.8179 10.3389 11.0664 10.3389H12.1923H14.8741H14.8742C14.9904 10.3389 15.1045 10.3682 15.2054 10.4238C15.3063 10.4793 15.3905 10.559 15.4504 10.6546C15.5103 10.7503 15.5442 10.859 15.5493 10.9704C15.5544 11.0819 15.5306 11.1929 15.4798 11.2933L15.4798 11.2934L13.5096 15.1822L13.5095 15.1823C13.4541 15.2917 13.3684 15.3846 13.2614 15.4499C13.1543 15.5152 13.0303 15.5501 12.9035 15.55H12.9033H10.642C10.5865 15.55 10.5312 15.5433 10.4774 15.5299L10.4767 15.5298Z" fill="black"/>
</mask>
<g mask="url(#mask0_497_16761)">
<rect width="453.213" height="223.351" rx="15" transform="matrix(0.891128 -0.453752 0.0440048 0.999031 -190 38.6465)" fill="url(#paint0_linear_497_16761)"/>
<rect width="453.213" height="223.351" rx="15" transform="matrix(0.891128 -0.453752 0.0440048 0.999031 -190 38.6465)" fill="url(#paint1_linear_497_16761)" style="mix-blend-mode:overlay"/>
<rect width="453.213" height="223.351" rx="15" transform="matrix(0.891128 -0.453752 0.0440048 0.999031 -190 38.6465)" fill="var(--icon-navigation-gold)" style="mix-blend-mode:color"/>
</g>
<defs>
<linearGradient id="paint0_linear_497_16761" x1="25.1277" y1="139.693" x2="388.825" y2="-33.1859" gradientUnits="userSpaceOnUse">
<stop stop-color="#576265"/>
<stop offset="0.172016" stop-color="#9EA1A1"/>
<stop offset="0.45741" stop-color="#848B8A"/>
<stop offset="0.553567" stop-color="#576265"/>
<stop offset="0.823421" stop-color="#576265"/>
<stop offset="0.925155" stop-color="#757A7B"/>
<stop offset="1" stop-color="#576265"/>
</linearGradient>
<linearGradient id="paint1_linear_497_16761" x1="180.92" y1="111.676" x2="156.609" y2="-17.064" gradientUnits="userSpaceOnUse">
<stop stop-color="white" stop-opacity="0"/>
<stop offset="1" stop-color="white"/>
</linearGradient>
</defs>
</svg>
