<svg width="18" height="19" viewBox="0 0 18 19" fill="none" xmlns="http://www.w3.org/2000/svg">
<path d="M14.25 3.4585H13.425C13.2521 2.61147 12.7919 1.8502 12.1222 1.30352C11.4525 0.756834 10.6145 0.45832 9.75 0.458496H8.25C6.4425 0.458496 4.9275 1.7485 4.575 3.4585H3.75C1.68 3.4585 0 5.1385 0 7.2085V14.7085C0 16.7785 1.68 18.4585 3.75 18.4585H14.25C16.32 18.4585 18 16.7785 18 14.7085V7.2085C18 5.1385 16.32 3.4585 14.25 3.4585ZM8.25 1.9585H9.75C10.725 1.9585 11.55 2.5885 11.865 3.4585H6.1425C6.45 2.5885 7.275 1.9585 8.2575 1.9585H8.25ZM12.84 12.5485L11.0475 14.4685C10.8975 14.626 10.7025 14.7085 10.5 14.7085C10.32 14.7085 10.1325 14.641 9.99 14.506C9.91804 14.4391 9.85999 14.3586 9.81916 14.2692C9.77833 14.1798 9.75552 14.0832 9.75203 13.985C9.74855 13.8868 9.76446 13.7889 9.79886 13.6968C9.83326 13.6047 9.88547 13.5204 9.9525 13.4485L11.5725 11.7085H5.25C4.8375 11.7085 4.5 11.371 4.5 10.9585C4.5 10.546 4.8375 10.2085 5.25 10.2085H11.5725L9.9525 8.4685C9.88553 8.3966 9.83337 8.31221 9.79901 8.22016C9.76465 8.1281 9.74875 8.03018 9.75223 7.93198C9.75572 7.83378 9.77851 7.73723 9.8193 7.64784C9.8601 7.55845 9.9181 7.47797 9.99 7.411C10.0619 7.34402 10.1463 7.29186 10.2383 7.2575C10.3304 7.22314 10.4283 7.20725 10.5265 7.21073C10.6247 7.21421 10.7213 7.237 10.8107 7.2778C10.9 7.31859 10.9805 7.3766 11.0475 7.4485L12.855 9.391C13.26 9.796 13.4925 10.366 13.4925 10.966C13.4925 11.566 13.26 12.1285 12.8325 12.556L12.84 12.5485Z" fill="currentColor"/>
</svg>
