<svg width="22" height="22" viewBox="0 0 22 22" fill="none" xmlns="http://www.w3.org/2000/svg">
<path d="M22 11C22 12.1691 20.5989 13.0926 20.2711 14.1476C19.9313 15.241 20.5335 16.8462 19.8996 17.7563C19.2593 18.6755 17.6078 18.5698 16.7281 19.2388C15.857 19.9011 15.4464 21.5786 14.4 21.9336C13.3903 22.2761 12.119 21.1824 11 21.1824C9.88106 21.1824 8.60976 22.2761 7.60008 21.9336C6.55361 21.5786 6.14295 19.9011 5.27192 19.2388C4.39219 18.5698 2.74065 18.6755 2.1004 17.7563C1.46649 16.8462 2.0687 15.241 1.72895 14.1476C1.40111 13.0926 0 12.1691 0 11C0 9.83086 1.40111 8.90736 1.72895 7.85241C2.06873 6.75901 1.46652 5.15378 2.10043 4.24369C2.74068 3.32451 4.39219 3.43012 5.27195 2.76119C6.14298 2.09885 6.55364 0.421446 7.60008 0.066427C8.60976 -0.276109 9.88106 0.817571 11 0.817571C12.119 0.817571 13.3903 -0.276109 14.4 0.066427C15.4464 0.421446 15.8571 2.09885 16.7281 2.76119C17.6078 3.43015 19.2594 3.32451 19.8996 4.24372C20.5335 5.15381 19.9313 6.75904 20.2711 7.85243C20.5989 8.90733 22 9.83084 22 11Z" fill="currentColor"/>
<path d="M12.1923 9.88889H14.8742C15.066 9.8889 15.2547 9.9373 15.4224 10.0295C15.59 10.1217 15.7309 10.2547 15.8318 10.4158C15.9327 10.5768 15.9902 10.7607 15.9989 10.9499C16.0075 11.139 15.967 11.3273 15.8813 11.4967L13.911 15.3856C13.8175 15.5703 13.6736 15.7256 13.4956 15.8341C13.3176 15.9427 13.1125 16.0001 12.9033 16H10.642C10.5502 16 10.4585 15.9889 10.369 15.9667L8.25175 15.4444M12.1923 9.88889V7.11111C12.1923 6.81643 12.0737 6.53381 11.8626 6.32544C11.6514 6.11706 11.365 6 11.0664 6H11.013C10.7315 6 10.5035 6.225 10.5035 6.50278C10.5035 6.89944 10.3847 7.28722 10.1612 7.61722L8.25175 10.4444V15.4444M12.1923 9.88889H11.0664M8.25175 15.4444H7.12588C6.82728 15.4444 6.5409 15.3274 6.32976 15.119C6.11862 14.9106 6 14.628 6 14.3333V11C6 10.7053 6.11862 10.4227 6.32976 10.2143C6.5409 10.006 6.82728 9.88889 7.12588 9.88889H8.53322" stroke="var(--additional-color)" stroke-width="0.9" stroke-linecap="round" stroke-linejoin="round"/>
</svg>
