<svg width="537" height="472" viewBox="0 0 537 472" fill="none" xmlns="http://www.w3.org/2000/svg">
<path d="M209.937 154.206L199.17 146.798C199.17 146.798 186.773 133.683 184.543 132.845C182.313 132.007 170.623 127.627 168.669 126.933C166.715 126.239 162.53 121.225 161.559 122.625C160.588 124.013 159.881 125.545 160.996 127.22C162.111 128.896 161.967 131.816 161.967 131.816L160.012 135.573C160.012 135.573 169.496 157.976 171.582 159.364C173.669 160.752 175.263 161.733 179.651 163.038C185.023 164.629 190.61 164.354 191.029 164.497C191.449 164.641 207.695 177.182 207.695 177.182L209.925 154.218L209.937 154.206Z" fill="white" stroke="#201337" stroke-miterlimit="10"/>
<path d="M161.008 127.208C161.008 127.208 162.542 130.272 165.887 131.935C169.232 133.611 171.606 134.724 171.606 134.724C171.606 134.724 177.181 151.836 181.09 153.787C184.999 155.738 190.574 151.836 190.574 151.836" stroke="#201337" stroke-miterlimit="10"/>
<path opacity="0.42" d="M152.147 120.531C144.402 124.42 133.408 118.245 127.605 106.721C121.802 95.2089 123.372 82.7154 131.118 78.8142C138.863 74.9249 149.857 81.0999 155.66 92.624C161.463 104.136 159.893 116.63 152.147 120.531Z" fill="white" stroke="#201337" stroke-linecap="round" stroke-linejoin="round"/>
<path d="M129.979 105.357C124.619 94.7422 125.555 83.3018 131.813 78.5389C131.585 78.6347 131.345 78.7185 131.118 78.8262C123.372 82.7154 121.79 95.2089 127.605 106.733C133.408 118.245 144.402 124.432 152.147 120.543C152.747 120.244 153.298 119.873 153.838 119.466C146.141 122.673 135.626 116.546 129.991 105.369L129.979 105.357Z" fill="#FF5000" stroke="#201337" stroke-linecap="round" stroke-linejoin="round"/>
<path d="M161.08 89.7879C154.294 76.3371 141.453 69.109 132.401 73.6565C126.921 76.4089 124.116 82.8351 124.224 90.458C124.763 85.1687 127.101 80.8366 131.106 78.8262C138.851 74.9369 149.845 81.1119 155.648 92.636C161.451 104.148 159.881 116.642 152.135 120.543C148.347 122.446 143.791 121.931 139.426 119.574C145.277 123.714 151.74 125.019 156.955 122.398C166.007 117.85 167.842 103.263 161.068 89.7999L161.08 89.7879Z" fill="#FF5000" stroke="#201337" stroke-linecap="round" stroke-linejoin="round"/>
<path d="M158.022 91.4513C151.236 78.0005 138.395 70.7725 129.343 75.3199C120.291 79.8674 118.457 94.4551 125.231 107.918C132.017 121.369 144.858 128.597 153.91 124.049C162.962 119.502 164.796 104.914 158.022 91.4513ZM152.147 120.543C144.402 124.432 133.408 118.257 127.605 106.733C121.802 95.2209 123.372 82.7275 131.118 78.8262C138.863 74.937 149.857 81.1119 155.66 92.6361C161.463 104.148 159.893 116.642 152.147 120.543Z" fill="#FF5000" stroke="#201337" stroke-linecap="round" stroke-linejoin="round"/>
<path d="M153.886 124.54L169.748 154.158C171.367 157.186 175.371 157.976 178.021 155.786C180.335 153.883 180.67 150.472 178.776 148.151L157.782 122.422L153.886 124.54Z" fill="#201337" stroke="#201337" stroke-linecap="round" stroke-linejoin="round"/>
<path d="M162.962 129.853C162.962 129.853 154.737 129.159 154.461 130.547C154.186 131.935 153.766 134.03 154.881 134.724C155.996 135.418 164.221 137.919 165.756 136.674C167.29 135.418 167.29 133.192 166.871 132.223C166.451 131.253 163.669 129.722 162.962 129.853Z" fill="white" stroke="#201337" stroke-miterlimit="10"/>
<path d="M157.519 135.562C157.519 135.562 153.478 135.418 154.45 138.9C155.421 142.383 153.754 143.208 159.749 144.19C165.744 145.159 171.595 143.496 171.882 142.239C172.158 140.983 172.302 138.481 170.623 137.931C168.945 137.38 165.468 137.093 163.657 136.674C161.847 136.256 157.519 135.562 157.519 135.562Z" fill="white" stroke="#201337" stroke-miterlimit="10"/>
<path d="M159.749 144.19C159.749 144.19 157.519 146.834 158.778 149.06C160.036 151.286 162.266 152.674 163.094 152.674C163.921 152.674 177.589 150.867 178.009 149.754C178.428 148.641 177.313 145.159 175.083 144.74C172.853 144.321 166.858 144.465 166.858 144.465C166.858 144.465 160.864 144.74 159.749 144.19Z" fill="white" stroke="#201337" stroke-miterlimit="10"/>
<path d="M165.324 152.542C165.744 152.686 164.353 157.413 167.554 158.67C170.755 159.926 178.848 154.912 179.124 153.799C179.4 152.686 177.17 150.735 177.17 150.735L165.324 152.542Z" fill="white" stroke="#201337" stroke-miterlimit="10"/>
<path d="M259.07 108.48L242.465 165.383L208.954 152.878L200.501 199.453C200.501 199.453 249.598 207.578 256.876 203.833C267.091 198.567 274.729 189.76 276.299 186.325C277.87 182.891 283.193 175.076 283.193 175.076L313.886 204.467C313.886 204.467 280.687 121.309 279.117 110.06C277.546 98.811 262.835 98.1767 259.07 108.492V108.48Z" fill="#FF5000" stroke="#201337" stroke-miterlimit="10"/>
<path d="M287.293 135.322L271.275 105.309L263.626 102.76C261.672 103.981 260.017 105.884 259.07 108.48L254.67 123.571L277.786 166.089L255.941 170.266L283.193 175.064L306.573 185.906C300.938 171.522 293.144 151.394 287.293 135.31V135.322Z" fill="#201337" stroke="#201337" stroke-miterlimit="10"/>
<path d="M247.488 85.9705C247.488 85.9705 230.883 106.913 233.077 107.547C235.271 108.169 253.435 103.167 253.435 103.167C253.435 103.167 247.8 116.295 251.241 118.485C254.682 120.675 264.082 125.366 269.094 129.734C274.105 134.114 284.44 151.31 284.44 151.31L268.782 88.7828C268.782 88.7828 254.37 80.3461 247.488 85.9705Z" fill="#FF5000" stroke="#201337" stroke-miterlimit="10"/>
<path d="M210.944 56.089C210.944 56.089 207.084 74.6139 210.225 77.7492C213.366 80.8845 219.625 77.5098 219.625 77.5098C219.625 77.5098 227.094 85.9346 227.826 89.2973C228.545 92.66 227.586 96.0347 229.276 97.4827C230.967 98.9307 234.336 98.44 239.407 96.0347C244.467 93.6293 252.188 89.5366 252.188 89.5366C252.188 89.5366 271.959 100.367 272.439 98.9187C272.918 97.4707 279.429 47.1856 279.429 47.1856L275.328 28.9001C275.328 28.9001 238.928 35.1589 210.956 56.089H210.944Z" fill="white" stroke="#201337" stroke-miterlimit="10"/>
<path d="M209.362 67.3858L243.951 47.6643L227.67 41.8604L210.944 56.089L209.362 67.3858Z" fill="#201337" stroke="#201337" stroke-miterlimit="10"/>
<path d="M224.205 58.0157C218.905 59.7031 218.414 62.8265 218.414 62.8265L225.164 61.6178" stroke="#201337" stroke-miterlimit="10"/>
<path d="M219.133 64.7532C219.133 64.7532 222.023 68.8459 227.334 67.8765" stroke="#201337" stroke-miterlimit="10"/>
<path d="M225.883 81.1119C225.883 81.1119 228.221 75.9422 232.729 76.2653" stroke="#201337" stroke-miterlimit="10"/>
<path d="M275.316 28.9001C275.316 28.9001 254.586 32.4663 232.406 43.2126L235.055 45.9889C235.055 45.9889 235.535 46.707 236.986 47.6763C238.436 48.6456 240.846 48.6336 240.846 48.6336C240.846 48.6336 244.707 68.1278 245.666 67.8884C246.625 67.6491 252.656 65.7224 252.416 63.3171C252.176 60.9117 248.076 47.9156 248.076 46.2283C248.076 44.5409 249.766 38.5335 256.037 40.4482C262.307 42.363 264.238 47.6643 263.746 52.7144C263.267 57.7644 261.576 59.2124 261.576 59.2124C261.576 59.2124 273.626 61.3784 277.246 60.4211C277.402 60.3852 277.558 60.3014 277.714 60.2176C278.697 52.7503 279.417 47.1856 279.417 47.1856L275.316 28.9001Z" fill="#201337" stroke="#201337" stroke-miterlimit="10"/>
<path d="M223.725 5.55268C223.725 5.55268 222.778 5.97152 221.279 6.68954C216.627 8.93932 206.64 14.1689 202.983 19.2668C198.163 26.0042 197.924 28.8882 199.362 32.0235C200.801 35.1589 205.393 50.309 205.393 50.309C205.393 50.309 191.173 70.0425 194.303 69.5638C197.432 69.0852 242.273 40.9269 259.394 37.0736C276.515 33.2202 285.435 32.2629 285.435 28.8882C285.435 25.5135 287.366 22.3902 283.505 21.4328C279.644 20.4755 270.724 22.8808 270.724 22.8808C270.724 22.8808 261.084 4.59532 255.054 2.18997C249.023 -0.215385 235.523 -0.454724 223.713 5.56465L223.725 5.55268Z" fill="#FF5000" stroke="#201337" stroke-miterlimit="10"/>
<path d="M285.435 28.9002C285.435 25.5255 287.366 22.4021 283.505 21.4448C279.644 20.4874 270.724 22.8928 270.724 22.8928C270.724 22.8928 270.388 22.2705 269.813 21.2294C252.991 23.3595 227.514 28.5771 202.599 41.3697C204.05 45.9172 205.381 50.321 205.381 50.321C205.381 50.321 253.567 34.2853 285.016 30.049C285.279 29.702 285.423 29.319 285.423 28.9002H285.435Z" fill="#201337" stroke="#201337" stroke-miterlimit="10"/>
<path d="M223.138 53.7435C236.482 46.4198 251.157 38.9285 259.394 37.0736C276.515 33.2202 285.435 32.2629 285.435 28.8882C285.435 25.5135 287.366 22.3902 283.505 21.4328C279.644 20.4754 270.724 22.8808 270.724 22.8808C270.724 22.8808 253.363 27.2128 240.594 36.1162C232.789 41.5492 226.711 48.861 223.138 53.7435Z" fill="#FF5000" stroke="#201337" stroke-miterlimit="10"/>
<path d="M252.164 89.5367C252.164 89.5367 259.394 84.726 259.634 83.7567C259.874 82.7993 261.564 76.3013 261.564 76.3013L267.835 97.4708L252.164 89.5247V89.5367Z" fill="#201337" stroke="#201337" stroke-miterlimit="10"/>
<path d="M289.572 428.524V439.354C289.572 439.354 272.762 448.557 267.331 450.723C261.912 452.889 245.042 457.711 243.424 458.25C241.793 458.788 243.963 463.659 245.054 465.287C246.133 466.914 258.075 468.53 266.743 468.53C275.412 468.53 302.041 463.707 302.041 463.707L303.12 468.039H330.24C330.24 468.039 335.659 451.8 332.95 445.302C330.24 438.804 326.979 436.638 326.979 436.638L322.099 421.488L289.56 428.524H289.572Z" fill="#201337" stroke="#201337" stroke-miterlimit="10"/>
<path d="M482.196 436.171L475.266 449.43C475.266 449.43 461.981 458.082 458.516 460.392C455.051 462.702 453.888 466.16 455.627 469.044C457.365 471.928 494.917 471.354 500.12 471.354C505.324 471.354 520.922 454.05 520.922 454.05L521.629 457.735C521.629 457.735 529.363 453.75 531.856 450.507C534.35 447.264 536.353 442.286 536.353 442.286L531.856 433.562C531.856 433.562 530.178 424.707 527.276 422.9C524.375 421.105 522.876 420.111 522.876 420.111L482.208 436.171H482.196Z" fill="#201337" stroke="#201337" stroke-miterlimit="10"/>
<path d="M516.858 401C515.707 398.116 505.3 387.741 505.3 387.741L443.482 289.708L436.192 223.267C436.396 221.939 436.576 220.658 436.767 219.45L328.969 230.471L300.974 261.43L265.533 283.066C265.533 283.066 259.97 298.348 261.013 302.512C262.056 306.677 276.036 389.177 276.036 389.177C276.036 389.177 279.992 425.987 279.992 428.692L274.213 434.46L277.678 444.261C277.678 444.261 285.184 444.261 296.166 445.996C307.148 447.731 332.974 445.326 332.974 445.326L326.464 425.293C326.464 425.293 316.704 352.366 316.704 349.123C316.704 345.88 313.994 308.532 313.994 308.532L373.103 269.555C373.103 269.555 396.698 316.825 401.326 320.283C405.954 323.742 480.481 413.123 480.481 413.123C480.481 413.123 477.592 420.614 477.592 422.924C477.592 425.233 482.22 436.183 482.22 436.183C482.22 436.183 494.929 439.067 501.859 437.332C508.789 435.597 527.277 422.912 527.277 422.912C527.277 422.912 518.033 403.884 516.882 401H516.858Z" fill="#201337" stroke="#201337" stroke-miterlimit="10"/>
<path d="M284.44 151.31C284.44 151.31 270.029 113.171 268.158 108.169C266.276 103.167 270.976 91.918 268.782 88.7827C266.588 85.6593 261.888 85.037 261.888 85.037C261.888 85.037 262.511 80.9682 264.082 72.2204C265.653 63.4726 277.546 34.0818 277.546 34.0818C280.052 35.0152 279.74 32.8372 281.934 35.6495C284.128 38.4617 286.011 48.7772 286.011 48.7772C286.011 48.7772 291.334 43.1527 294.775 44.3973C298.216 45.6418 300.41 47.2095 300.41 47.2095C300.41 47.2095 308.863 44.3973 319.198 46.5872C329.533 48.7772 351.773 57.8362 371.82 78.156C391.867 98.4759 439.477 163.193 453.565 189.76C467.664 216.338 478.623 282.3 478.623 282.3C478.623 282.3 453.253 300.119 444.165 306.377C435.077 312.624 401.878 332.011 401.878 332.011L348.32 246.974L258.111 287.613L321.38 214.148C321.38 214.148 290.687 179.133 284.416 151.31H284.44Z" fill="#FF5000" stroke="#201337" stroke-miterlimit="10"/>
<path d="M360.406 151.693L346.977 221.424L348.344 246.974L322.195 211.803L309.115 198.747L360.406 151.693Z" fill="#201337" stroke="#201337" stroke-miterlimit="10"/>
<path d="M339.964 239.65L326.116 219.282L297.928 258.079L321.056 245.25C321.056 245.25 316.284 252.215 315.913 253.675C315.541 255.135 339.964 239.65 339.964 239.65Z" fill="#201337" stroke="#201337" stroke-miterlimit="10"/>
<path d="M389.529 110.132L370.573 128.321" stroke="#201337" stroke-miterlimit="10"/>
<path d="M371.304 133.048L401.194 130.499" stroke="#201337" stroke-miterlimit="10"/>
<path d="M404.24 200.769C415.582 201.906 423.423 201.092 423.423 201.092L423.783 207.279C423.783 207.279 409.203 210.187 390.979 205.46C372.755 200.733 362.912 198.184 362.912 198.184" stroke="#201337" stroke-miterlimit="10"/>
<path d="M400.931 221.077C400.931 221.077 381.208 244.054 374.625 253.34" stroke="#201337" stroke-miterlimit="10"/>
<path d="M384.901 264.529C383.15 268.071 381.651 271.075 380.668 273.038" stroke="#201337" stroke-miterlimit="10"/>
<path d="M403.125 227.647C403.125 227.647 395.307 243.491 388.641 256.954" stroke="#201337" stroke-miterlimit="10"/>
<path d="M362.552 190.167C362.552 190.167 374.578 195.264 392.07 198.902" stroke="#201337" stroke-miterlimit="10"/>
<path d="M428.063 194.283C430.317 196.748 432.355 198.962 433.986 200.721" stroke="#201337" stroke-miterlimit="10"/>
<path d="M398.221 161.027C398.713 161.709 399.096 162.224 399.36 162.523C401.146 164.557 412.692 177.41 422.74 188.443" stroke="#201337" stroke-miterlimit="10"/>
<path d="M382.239 136.686C382.239 136.686 389.42 147.983 394.588 155.726" stroke="#201337" stroke-miterlimit="10"/>
<path d="M442.019 208.727C442.019 208.727 450.04 217.463 459.152 232.015C468.264 246.567 475.913 273.121 475.913 273.121" stroke="#201337" stroke-miterlimit="10"/>
<path d="M286.622 56.1249C286.622 56.1249 278.721 76.0738 277.786 82.5718C276.851 89.0699 272.415 98.9187 272.415 98.9187C272.415 98.9187 279.644 99.7444 280.112 103.921C280.579 108.097 283.361 141.509 283.361 141.509L283.829 95.1132L279.177 91.4034L286.61 56.1368L286.622 56.1249Z" fill="#201337" stroke="#201337" stroke-miterlimit="10"/>
<path d="M298.708 51.015C298.708 51.015 294.991 65.3993 295.458 90.9248" stroke="#201337" stroke-miterlimit="10"/>
<path d="M289.404 72.8307C289.404 72.8307 291.262 91.3914 294.056 103.454" stroke="#201337" stroke-miterlimit="10"/>
<path d="M198.619 263.189L232.705 242.414L241.314 256.045L210.201 277.836L198.619 263.189Z" fill="#201337" stroke="#201337" stroke-miterlimit="10"/>
<path d="M179.843 271.745C179.843 271.745 198.271 255.746 210.033 265.379C210.033 265.379 212.839 268.706 212.311 273.792C211.783 278.878 203.882 289.217 192.372 293.669L179.831 271.745H179.843Z" fill="#201337" stroke="#201337" stroke-miterlimit="10"/>
<path d="M189.135 280.996C192.6 287.051 194.051 292.735 192.384 293.681C190.718 294.626 186.557 290.497 183.092 284.442C179.627 278.387 178.177 272.703 179.843 271.757C181.51 270.812 185.67 274.94 189.135 280.996Z" fill="white" stroke="#201337" stroke-miterlimit="10"/>
<path d="M203.511 286.871C202.48 283.604 199.83 276.376 195.286 270.896C193.176 268.359 191.425 266.528 190.022 265.199C188.776 265.798 187.589 266.432 186.51 267.078L186.845 267.246C186.845 267.246 192.576 267.389 201.053 288.846C201.916 288.2 202.743 287.542 203.523 286.871H203.511Z" fill="#FF5000" stroke="#201337" stroke-miterlimit="10"/>
<path d="M246.757 221.735L234.815 230.507C234.815 230.507 217.251 237.52 215.488 241.026C213.726 244.532 209.338 252.945 208.283 254.357C207.227 255.757 203.367 258.39 206.52 259.264C209.685 260.137 211.088 258.031 212.491 256.463C213.894 254.884 219.337 250.504 219.337 250.504C219.337 250.504 215.117 274.522 215.476 275.228C215.824 275.934 215.824 276.281 217.934 276.46C220.044 276.64 222.154 271.374 222.154 271.374C222.154 271.374 222.334 274.701 224.792 274.354C227.25 274.007 230.068 272.08 230.763 271.027C231.458 269.974 234.456 265.594 234.456 265.594C234.456 265.594 236.218 269.448 239.899 267.353C243.58 265.259 245.342 262.614 245.342 262.614C245.342 262.614 250.965 259.982 252.188 254.896C253.411 249.81 254.646 242.091 254.646 242.091L262.379 235.258L246.745 221.759L246.757 221.735Z" fill="white" stroke="#201337" stroke-miterlimit="10"/>
<path d="M219.349 250.48C219.349 250.48 220.752 240.667 222.514 238.908" stroke="#201337" stroke-miterlimit="10"/>
<path d="M324.785 58.7936C324.785 58.7936 317.603 62.0246 312.927 78.8861C308.251 95.7475 315.445 123.008 315.445 123.008L295.315 163.899L245.366 222.37L268.722 244.245L353.896 168.554L380.488 97.1715" fill="#FF5000"/>
<path d="M324.785 58.7936C324.785 58.7936 317.603 62.0246 312.927 78.8861C308.251 95.7475 315.445 123.008 315.445 123.008L295.315 163.899L245.366 222.37L268.722 244.245L353.896 168.554L380.488 97.1715" stroke="#201337" stroke-miterlimit="10"/>
<path d="M346.45 110.838C352.157 107.32 357.433 103.131 360.37 98.4999" stroke="#201337" stroke-miterlimit="10"/>
<path d="M322.099 122.135C322.099 122.135 329.437 119.693 337.878 115.541" stroke="#201337" stroke-miterlimit="10"/>
<path d="M362.924 109.043C362.924 109.043 336.319 126.873 317.364 129.781" stroke="#201337" stroke-miterlimit="10"/>
<path d="M352.517 149.647C359.303 146.092 361.461 142.873 361.461 142.873" stroke="#201337" stroke-miterlimit="10"/>
<path d="M306.057 148.33C306.057 148.33 317.723 159.974 337.038 155.247C340.179 154.481 342.937 153.632 345.359 152.758" stroke="#201337" stroke-miterlimit="10"/>
<path d="M242.477 165.383L256.864 166.556" stroke="#201337" stroke-miterlimit="10"/>
<path d="M53.5215 294.183L9.28003 302.189" stroke="#201337" stroke-miterlimit="10"/>
<path d="M172.458 272.655L59.3484 293.13" stroke="#201337" stroke-miterlimit="10"/>
<path d="M115.543 422.014L110.987 429.458" stroke="#201337" stroke-miterlimit="10"/>
<path d="M189.915 300.681L119.128 416.162" stroke="#201337" stroke-miterlimit="10"/>
<path d="M183.632 299.066L171.379 318.141" stroke="#201337" stroke-miterlimit="10"/>
<path d="M118.013 290.785L166.691 280.361" stroke="#201337" stroke-miterlimit="10"/>
</svg>
