<svg width="418" height="332" viewBox="0 0 418 332" fill="none" xmlns="http://www.w3.org/2000/svg">
<g clip-path="url(#clip0_151_8160)">
<mask id="mask0_151_8160" style="mask-type:alpha" maskUnits="userSpaceOnUse" x="-6" y="0" width="424" height="332">
<rect x="-6" width="424" height="332" fill="#D9D9D9"/>
</mask>
<g mask="url(#mask0_151_8160)">
</g>
<mask id="mask1_151_8160" style="mask-type:alpha" maskUnits="userSpaceOnUse" x="0" y="-109" width="605" height="605">
<circle cx="302.5" cy="193.5" r="302.5" fill="#D9D9D9"/>
</mask>
<g mask="url(#mask1_151_8160)">
<path d="M116.551 227.343L146.742 244.027C146.742 244.027 148.618 249.193 155.076 252.479C161.533 255.765 164.767 257.701 164.767 257.701L193.092 220.619C193.092 220.619 161.589 209.619 157.313 207.508C153.028 205.413 146.566 200.376 146.566 200.376L116.56 227.327L116.551 227.343Z" fill="white" stroke="#201337" stroke-linecap="round" stroke-linejoin="round"/>
<path d="M160.069 225.909C160.069 225.909 158.971 236.453 168.865 237.873" stroke="#201337" stroke-linecap="round" stroke-linejoin="round"/>
<path d="M151.508 201.553L113.728 251.628L104.325 241.268L138.364 191.63L151.508 201.553Z" fill="white" stroke="#201337" stroke-linecap="round" stroke-linejoin="round"/>
<path d="M142.237 193.555L101.679 252.065L54.3083 211.788L15.3477 57.3047L36.7846 51.8983L56.0788 119.789L87.7092 155.343L142.237 193.555Z" fill="#FF5000" stroke="#201337" stroke-linecap="round" stroke-linejoin="round"/>
<path d="M272.818 181.991C247.045 164.193 249.316 116.106 277.871 74.5723C306.426 33.0387 350.468 13.8003 376.237 31.5856C377.891 32.7289 379.431 34.0108 380.861 35.4023C380.048 33.1568 379.121 30.9952 378.046 28.9529L381.272 24.2514L364.988 13.9575C364.096 13.3473 363.186 12.7694 362.259 12.2365L361.56 11.7966L361.519 11.8482C332.889 -3.84672 287.127 17.3451 257.023 61.1312C227.526 104.025 223.6 153.296 246.797 175.234L246.586 175.534L248.661 176.886C249.56 177.631 250.493 178.354 251.469 179.025C253.004 180.076 254.603 181 256.244 181.818L267.769 189.329L270.106 185.92C273.516 186.333 277.067 186.382 280.697 186.096C277.922 185.057 275.283 183.697 272.818 181.991Z" fill="#201337" stroke="#201337" stroke-linecap="round" stroke-linejoin="round"/>
<path d="M381.285 24.2485C353.011 4.71289 304.679 25.8412 273.333 71.4189C241.989 117.01 239.508 169.79 267.779 189.313C296.052 208.849 344.385 187.72 375.731 142.143C407.075 96.5521 409.556 43.7712 381.285 24.2485ZM371.183 139.005C342.628 180.539 298.587 199.777 272.818 181.992C247.045 164.194 249.316 116.106 277.871 74.5727C306.426 33.0391 350.467 13.8006 376.237 31.5859C402.009 49.3841 399.738 97.4714 371.183 139.005Z" fill="white" stroke="#201337" stroke-linecap="round" stroke-linejoin="round"/>
<path d="M236.313 157.824C236.313 157.824 233.788 165.47 230.522 172.672C227.244 179.878 223.365 183.403 223.365 183.403L236.102 192.305C236.102 192.305 247.219 179.618 247.638 167.411L236.316 157.837L236.313 157.824Z" fill="#969696" stroke="#201337" stroke-linecap="round" stroke-linejoin="round"/>
<path d="M236.102 192.306L246.456 205.628C246.456 205.628 253.321 200.078 258.927 197.062C264.536 194.06 270.06 192.023 270.06 192.023L247.635 167.399C247.635 167.399 247.891 178.491 236.099 192.293L236.102 192.306Z" fill="white" stroke="#201337" stroke-linecap="round" stroke-linejoin="round"/>
<path d="M223.364 183.402L233.177 197.341L246.456 205.628L236.101 192.305L223.364 183.402Z" fill="#969696" stroke="#201337" stroke-linecap="round" stroke-linejoin="round"/>
<path d="M213.703 197.092L233.187 215.956L241.163 202.624L227.008 189.179L213.703 197.092Z" fill="white" stroke="#201337" stroke-linecap="round" stroke-linejoin="round"/>
<path d="M213.703 197.092L104.17 304.947L118.989 321.675L233.187 215.956L213.703 197.092Z" fill="#201337" stroke="#201337" stroke-linecap="round" stroke-linejoin="round"/>
<path d="M104.17 304.947C104.17 304.947 101.552 301.72 100.764 303.739C99.9754 305.759 99.8167 315.367 104.697 321.392C109.577 327.416 120.751 324.598 120.748 323.559C120.746 322.519 118.977 321.678 118.977 321.678L104.157 304.951L104.17 304.947Z" fill="white" stroke="#201337" stroke-linecap="round" stroke-linejoin="round"/>
<path d="M270.293 180.055C270.448 180.18 270.602 180.306 270.754 180.418C271.424 180.961 272.116 181.484 272.827 181.976C273.554 182.477 274.285 182.936 275.038 183.376C275.295 183.53 275.566 183.681 275.833 183.819C276.325 184.092 276.814 184.351 277.313 184.595C277.641 184.759 277.953 184.913 278.291 185.061C278.783 185.279 279.275 185.497 279.777 185.699C280.082 185.827 280.388 185.955 280.706 186.08C306.892 195.876 345.365 176.549 371.18 138.992C397.897 100.14 401.594 55.5394 380.854 35.377C380.674 35.2035 380.484 35.0461 380.29 34.8758C394.632 57.1309 389.242 96.8058 365.163 131.817C336.608 173.351 292.566 192.589 266.797 174.804C265.339 173.789 263.986 172.652 262.701 171.456C262.792 171.598 262.895 171.736 262.985 171.878C263.366 172.466 263.769 173.035 264.182 173.588C264.327 173.784 264.475 173.993 264.633 174.186C265.12 174.816 265.632 175.44 266.154 176.048C266.29 176.205 266.435 176.346 266.57 176.504C267.047 177.041 267.546 177.558 268.055 178.06C268.165 178.169 268.278 178.291 268.403 178.41C268.999 178.985 269.63 179.538 270.268 180.061L270.293 180.055Z" fill="#201337" stroke="#201337" stroke-linecap="round" stroke-linejoin="round"/>
<path d="M278.53 110.121L267.735 115.527" stroke="#201337" stroke-linecap="round" stroke-linejoin="round"/>
<path d="M390.181 54.27L285.625 106.566" stroke="#201337" stroke-linecap="round" stroke-linejoin="round"/>
<path d="M316.899 115.844L330.206 108.697" stroke="#201337" stroke-linecap="round" stroke-linejoin="round"/>
<path d="M249.968 145.603L293.946 122" stroke="#201337" stroke-linecap="round" stroke-linejoin="round"/>
<path d="M219.318 229.052C219.318 229.052 199.234 222.112 196.854 222.424C194.474 222.737 193.538 224.712 194.868 227.114C196.201 229.53 210.996 238.954 212.994 240.051C215.001 241.133 219.172 241.094 220.941 239.498C222.695 237.892 222.39 234.355 221.54 232.119C220.686 229.871 219.321 229.065 219.321 229.065L219.318 229.052Z" fill="white" stroke="#201337" stroke-linecap="round" stroke-linejoin="round"/>
<path d="M194.868 227.114C194.868 227.114 187.821 222.087 184.916 224.271C181.998 226.458 182.255 230.295 183.95 232.468C185.659 234.638 203.387 252.877 206.375 252.699C209.362 252.52 213.362 248.336 213.764 245.921C214.166 243.506 215.826 242.074 213.003 240.035C210.18 237.995 209.131 237.247 209.131 237.247L194.877 227.098L194.868 227.114Z" fill="white" stroke="#201337" stroke-linecap="round" stroke-linejoin="round"/>
<path d="M183.95 232.469C183.95 232.469 179.53 229.244 176.919 230.916C174.308 232.587 174.079 237.423 176.302 239.901C178.513 242.382 188.315 252.052 191.378 255.044C194.442 258.036 196.623 261.538 200.718 258.329C204.816 255.132 203.727 251.355 203.727 251.355L183.953 232.482L183.95 232.469Z" fill="white" stroke="#201337" stroke-linecap="round" stroke-linejoin="round"/>
<path d="M178.067 242.343C178.067 242.343 173.721 240.551 172.13 243.991C170.538 247.431 175.409 253.581 177.259 255.716C179.096 257.853 181.763 264.422 184.343 265.496C186.926 266.583 192.115 266.575 193.922 264.531C195.729 262.488 194.659 258.842 194.659 258.842L178.079 242.34L178.067 242.343Z" fill="white" stroke="#201337" stroke-linecap="round" stroke-linejoin="round"/>
<path d="M163.983 214.506C163.983 214.506 190.975 201.334 192.465 200.958C193.955 200.582 197.6 202.414 198.311 202.96C199.023 203.506 207.766 210.117 210.521 211.886C213.276 213.655 213.22 216.845 213.731 219.468C214.242 222.091 217.825 228.278 216.51 230.485C215.195 232.692 211.153 232.698 208.401 230.942C205.646 229.173 200.899 218.365 200.899 218.365L191.697 217.359L183.595 224.18" fill="white"/>
<path d="M163.983 214.506C163.983 214.506 190.975 201.334 192.465 200.958C193.955 200.582 197.6 202.414 198.311 202.96C199.023 203.506 207.766 210.117 210.521 211.886C213.276 213.655 213.22 216.845 213.731 219.468C214.242 222.091 217.825 228.278 216.51 230.485C215.195 232.692 211.153 232.698 208.401 230.942C205.646 229.173 200.899 218.365 200.899 218.365L191.697 217.359L183.595 224.18" stroke="#201337" stroke-linecap="round" stroke-linejoin="round"/>
<path d="M70.0572 135.511L56.0787 119.79L36.7845 51.8989L-57.8159 97.6201L51.0753 198.97L70.0572 135.511Z" fill="#201337" stroke="#201337" stroke-linecap="round" stroke-linejoin="round"/>
</g>
</g>
<defs>
<clipPath id="clip0_151_8160">
<rect width="424" height="332" fill="white" transform="translate(-6)"/>
</clipPath>
</defs>
</svg>
