<svg width="22" height="22" viewBox="0 0 22 22" fill="none" xmlns="http://www.w3.org/2000/svg">
<path d="M14.3592 9.6237C14.3591 9.8043 14.3242 9.98312 14.2565 10.15C14.1888 10.3168 14.0895 10.4684 13.9644 10.596C13.8393 10.7237 13.6909 10.8249 13.5275 10.894C13.3641 10.9631 13.1889 10.9986 13.0121 10.9985C12.8353 10.9985 12.6602 10.9628 12.4968 10.8936C12.3334 10.8245 12.185 10.7231 12.06 10.5954C11.935 10.4676 11.8359 10.316 11.7683 10.1491C11.7006 9.98223 11.6659 9.80338 11.6659 9.62278C11.666 9.25804 11.808 8.90828 12.0607 8.65045C12.3133 8.39262 12.6559 8.24784 13.013 8.24797C13.3701 8.24809 13.7126 8.3931 13.9651 8.6511C14.2175 8.9091 14.3593 9.25895 14.3592 9.6237ZM21.5388 8.24888V10.082H19.7439V18.3309H15.3894L11.937 21.2455C11.6169 21.5338 11.2042 21.692 10.7775 21.69C10.3347 21.6902 9.90731 21.5242 9.57667 21.2235L6.21303 18.3309H1.7949V10.082H0V8.24888H1.7949V2.74963C1.7949 1.23367 3.00286 0 4.48724 0H17.0515C18.5359 0 19.7439 1.23367 19.7439 2.74963V8.24888H21.5388Z" fill="#524175"/>
<path d="M15.99 7.43057C15.9823 7.34155 15.7836 7.1706 15.6996 7.14011C15.6153 7.10943 15.5209 7.13031 15.4575 7.19338L14.1855 8.46538L12.5333 6.81319L13.8308 5.52062C13.8942 5.45743 13.915 5.36341 13.8844 5.27958C13.8535 5.19558 13.6498 5.01764 13.5602 5.00993C12.7723 4.94229 12.0002 5.22256 11.442 5.77874C10.6775 6.54043 10.475 7.65271 10.8336 8.60079C10.7944 8.63368 10.7557 8.66853 10.7176 8.70611L6.38668 12.7774C6.38515 12.7789 6.38365 12.7805 6.382 12.782C5.87267 13.2894 5.87267 14.115 6.382 14.6225C6.89141 15.1299 7.71409 15.1238 8.22334 14.6163C8.22553 14.6143 8.22754 14.6122 8.22955 14.61L12.2806 10.2618C12.3175 10.2248 12.3518 10.1862 12.3841 10.1465C13.336 10.5043 14.4532 10.3031 15.2184 9.54089C15.7765 8.98467 16.058 8.21546 15.99 7.43057Z" fill="white"/>
</svg>
