<svg width="22" height="22" viewBox="0 0 22 22" fill="none" xmlns="http://www.w3.org/2000/svg">
<path d="M17.0518 0C18.536 0.000142656 19.7441 1.23413 19.7441 2.75V8.24902H21.5391V10.082H19.7441V18.3311H15.3896L11.9365 21.2451C11.6164 21.5334 11.204 21.6924 10.7773 21.6904C10.3347 21.6906 9.9077 21.5241 9.57715 21.2236L6.21289 18.3311H1.79492V10.082H0V8.24902H1.79492V2.75C1.79492 1.23404 3.00292 0 4.4873 0H17.0518ZM13.5605 5.00977C12.7728 4.94214 12.0006 5.22241 11.4424 5.77832C10.6779 6.54 10.4754 7.65252 10.834 8.60059C10.7948 8.63344 10.7558 8.66852 10.7178 8.70605L6.38672 12.7773C6.38519 12.7788 6.38349 12.7807 6.38184 12.7822C5.8728 13.2895 5.87287 14.1146 6.38184 14.6221C6.89125 15.1295 7.71438 15.1237 8.22363 14.6162C8.22567 14.6143 8.22761 14.6124 8.22949 14.6104L12.2803 10.2617C12.3171 10.2248 12.3515 10.1861 12.3838 10.1465C13.3357 10.5043 14.4536 10.3032 15.2188 9.54102C15.7767 8.98483 16.0582 8.21546 15.9902 7.43066C15.9825 7.34164 15.7832 7.17014 15.6992 7.13965C15.615 7.10922 15.5203 7.13041 15.457 7.19336L14.1855 8.46582L12.5332 6.81348L13.8311 5.52051C13.8943 5.45732 13.9153 5.36305 13.8848 5.2793C13.8537 5.19535 13.6503 5.01788 13.5605 5.00977Z" fill="var(--icon-navigation-gold)"/>
<path d="M17.0518 0C18.536 0.000142656 19.7441 1.23413 19.7441 2.75V8.24902H21.5391V10.082H19.7441V18.3311H15.3896L11.9365 21.2451C11.6164 21.5334 11.204 21.6924 10.7773 21.6904C10.3347 21.6906 9.9077 21.5241 9.57715 21.2236L6.21289 18.3311H1.79492V10.082H0V8.24902H1.79492V2.75C1.79492 1.23404 3.00292 0 4.4873 0H17.0518ZM13.5605 5.00977C12.7728 4.94214 12.0006 5.22241 11.4424 5.77832C10.6779 6.54 10.4754 7.65252 10.834 8.60059C10.7948 8.63344 10.7558 8.66852 10.7178 8.70605L6.38672 12.7773C6.38519 12.7788 6.38349 12.7807 6.38184 12.7822C5.8728 13.2895 5.87287 14.1146 6.38184 14.6221C6.89125 15.1295 7.71438 15.1237 8.22363 14.6162C8.22567 14.6143 8.22761 14.6124 8.22949 14.6104L12.2803 10.2617C12.3171 10.2248 12.3515 10.1861 12.3838 10.1465C13.3357 10.5043 14.4536 10.3032 15.2188 9.54102C15.7767 8.98483 16.0582 8.21546 15.9902 7.43066C15.9825 7.34164 15.7832 7.17014 15.6992 7.13965C15.615 7.10922 15.5203 7.13041 15.457 7.19336L14.1855 8.46582L12.5332 6.81348L13.8311 5.52051C13.8943 5.45732 13.9153 5.36305 13.8848 5.2793C13.8537 5.19535 13.6503 5.01788 13.5605 5.00977Z" fill="url(#paint0_linear_668_8185)" fill-opacity="0.2"/>
<path d="M17.0518 0C18.536 0.000142656 19.7441 1.23413 19.7441 2.75V8.24902H21.5391V10.082H19.7441V18.3311H15.3896L11.9365 21.2451C11.6164 21.5334 11.204 21.6924 10.7773 21.6904C10.3347 21.6906 9.9077 21.5241 9.57715 21.2236L6.21289 18.3311H1.79492V10.082H0V8.24902H1.79492V2.75C1.79492 1.23404 3.00292 0 4.4873 0H17.0518ZM13.5605 5.00977C12.7728 4.94214 12.0006 5.22241 11.4424 5.77832C10.6779 6.54 10.4754 7.65252 10.834 8.60059C10.7948 8.63344 10.7558 8.66852 10.7178 8.70605L6.38672 12.7773C6.38519 12.7788 6.38349 12.7807 6.38184 12.7822C5.8728 13.2895 5.87287 14.1146 6.38184 14.6221C6.89125 15.1295 7.71438 15.1237 8.22363 14.6162C8.22567 14.6143 8.22761 14.6124 8.22949 14.6104L12.2803 10.2617C12.3171 10.2248 12.3515 10.1861 12.3838 10.1465C13.3357 10.5043 14.4536 10.3032 15.2188 9.54102C15.7767 8.98483 16.0582 8.21546 15.9902 7.43066C15.9825 7.34164 15.7832 7.17014 15.6992 7.13965C15.615 7.10922 15.5203 7.13041 15.457 7.19336L14.1855 8.46582L12.5332 6.81348L13.8311 5.52051C13.8943 5.45732 13.9153 5.36305 13.8848 5.2793C13.8537 5.19535 13.6503 5.01788 13.5605 5.00977Z" fill="url(#paint1_linear_668_8185)" fill-opacity="0.15"/>
<defs>
<linearGradient id="paint0_linear_668_8185" x1="10.7695" y1="0" x2="10.7695" y2="21.6904" gradientUnits="userSpaceOnUse">
<stop stop-opacity="0"/>
<stop offset="1"/>
</linearGradient>
<linearGradient id="paint1_linear_668_8185" x1="1" y1="25.5" x2="-3.5" y2="22.5" gradientUnits="userSpaceOnUse">
<stop stop-color="white" stop-opacity="0"/>
<stop offset="1" stop-color="white"/>
</linearGradient>
</defs>
</svg>
