<svg width="25" height="20" viewBox="0 0 25 20" fill="none" xmlns="http://www.w3.org/2000/svg">
<path fill-rule="evenodd" clip-rule="evenodd" d="M12.5 5.4541C12.2632 5.4541 12.0361 5.54987 11.8687 5.72035C11.7012 5.89082 11.6071 6.12203 11.6071 6.36312L11.6071 16.895L7.775 12.9917C7.69198 12.9072 7.59343 12.8401 7.48497 12.7944C7.37651 12.7486 7.26026 12.7251 7.14286 12.7251C7.02546 12.7251 6.90921 12.7486 6.80074 12.7944C6.69228 12.8401 6.59373 12.9072 6.51071 12.9917C6.4277 13.0762 6.36185 13.1765 6.31692 13.2869C6.27199 13.3974 6.24887 13.5157 6.24887 13.6353C6.24887 13.7548 6.27199 13.8731 6.31692 13.9836C6.36185 14.094 6.4277 14.1943 6.51071 14.2788L11.8679 19.7329C11.9508 19.8176 12.0493 19.8848 12.1578 19.9306C12.2663 19.9764 12.3826 20 12.5 20C12.6174 20 12.7337 19.9764 12.8422 19.9306C12.9507 19.8848 13.0492 19.8176 13.1321 19.7329L18.4893 14.2788C18.6569 14.1082 18.7511 13.8766 18.7511 13.6353C18.7511 13.3939 18.6569 13.1624 18.4893 12.9917C18.3216 12.821 18.0942 12.7251 17.8571 12.7251C17.62 12.7251 17.3927 12.821 17.225 12.9917L13.3929 16.895L13.3929 6.36312C13.3929 6.12203 13.2988 5.89082 13.1313 5.72035C12.9639 5.54987 12.7368 5.4541 12.5 5.4541ZM25 0.909019C25 1.1501 24.9059 1.38132 24.7385 1.55179C24.571 1.72227 24.3439 1.81804 24.1071 1.81804L0.892858 1.81803C0.656057 1.81803 0.428955 1.72226 0.261511 1.55179C0.0940682 1.38132 -2.59438e-07 1.1501 -2.38362e-07 0.909017C-2.17286e-07 0.66793 0.0940683 0.436718 0.261511 0.266245C0.428955 0.0957696 0.656057 -2.20867e-07 0.892858 -2.00165e-07L24.1071 1.82929e-06C24.3439 1.84999e-06 24.571 0.0957718 24.7385 0.266247C24.9059 0.43672 25 0.667933 25 0.909019Z" fill="currentColor"/>
</svg>
