<svg width="20" height="20" viewBox="0 0 20 20" fill="none" xmlns="http://www.w3.org/2000/svg">
<g style="mix-blend-mode:soft-light">
<path d="M4.62833 19.7811H1.85133L15.3717 0.218879H18.1487L4.62833 19.7811ZM15.5119 20C14.6704 20 13.913 19.8085 13.2398 19.4254C12.5666 19.0424 12.0337 18.5226 11.641 17.8659C11.2482 17.1911 11.0519 16.4432 11.0519 15.6224C11.0519 14.8016 11.2482 14.0629 11.641 13.4063C12.0337 12.7314 12.5666 12.2025 13.2398 11.8194C13.913 11.4364 14.6704 11.2449 15.5119 11.2449C16.3721 11.2449 17.1388 11.4364 17.8121 11.8194C18.4853 12.2025 19.0182 12.7314 19.4109 13.4063C19.8036 14.0629 20 14.8016 20 15.6224C20 16.4432 19.8036 17.1911 19.4109 17.8659C19.0182 18.5226 18.4853 19.0424 17.8121 19.4254C17.1388 19.8085 16.3721 20 15.5119 20ZM15.5119 18.0027C16.1851 18.0027 16.7368 17.7839 17.1669 17.3461C17.597 16.8901 17.8121 16.3155 17.8121 15.6224C17.8121 14.9293 17.597 14.3639 17.1669 13.9261C16.7368 13.4701 16.1851 13.2421 15.5119 13.2421C14.8574 13.2421 14.3151 13.4701 13.885 13.9261C13.4549 14.3639 13.2398 14.9293 13.2398 15.6224C13.2398 16.3155 13.4549 16.8901 13.885 17.3461C14.3151 17.7839 14.8574 18.0027 15.5119 18.0027ZM4.46003 8.75513C3.61851 8.75513 2.86115 8.56361 2.18794 8.18057C1.51473 7.79754 0.981767 7.2777 0.58906 6.62107C0.196353 5.94619 0 5.19836 0 4.37756C0 3.55677 0.196353 2.81806 0.58906 2.16142C0.981767 1.48655 1.51473 0.957592 2.18794 0.574556C2.86115 0.191519 3.61851 0 4.46003 0C5.32024 0 6.08696 0.191519 6.76017 0.574556C7.43338 0.957592 7.96634 1.48655 8.35905 2.16142C8.75175 2.81806 8.94811 3.55677 8.94811 4.37756C8.94811 5.19836 8.75175 5.94619 8.35905 6.62107C7.96634 7.2777 7.43338 7.79754 6.76017 8.18057C6.08696 8.56361 5.32024 8.75513 4.46003 8.75513ZM4.46003 6.75787C5.13324 6.75787 5.6849 6.53899 6.11501 6.10123C6.54511 5.64524 6.76017 5.07068 6.76017 4.37756C6.76017 3.68445 6.54511 3.11902 6.11501 2.68126C5.6849 2.22526 5.13324 1.99726 4.46003 1.99726C3.80552 1.99726 3.26321 2.22526 2.8331 2.68126C2.40299 3.11902 2.18794 3.68445 2.18794 4.37756C2.18794 5.07068 2.40299 5.64524 2.8331 6.10123C3.26321 6.53899 3.80552 6.75787 4.46003 6.75787Z" fill="#EEEEF7"/>
</g>
</svg>
