<svg width="22" height="20" viewBox="0 0 22 20" fill="none" xmlns="http://www.w3.org/2000/svg">
<rect width="12.0814" height="0.274733" transform="matrix(-0.568831 0.822454 0.900835 0.434162 20.8496 -0.00634766)" fill="currentColor"/>
<rect width="12.0814" height="0.274733" transform="matrix(0.568831 0.822454 -0.900835 0.434162 14.0957 9.93799)" fill="currentColor"/>
<rect width="12.0814" height="0.274733" transform="matrix(-0.568831 0.822454 0.900835 0.434162 20.2373 -0.00634766)" fill="currentColor"/>
<rect width="12.0814" height="0.274733" transform="matrix(0.568831 0.822454 -0.900835 0.434162 13.4834 9.93799)" fill="currentColor"/>
<rect width="12.0814" height="0.274733" transform="matrix(-0.568831 0.822454 0.900835 0.434162 19.626 -0.00634766)" fill="currentColor"/>
<rect width="12.0814" height="0.274733" transform="matrix(0.568831 0.822454 -0.900835 0.434162 12.8711 9.93799)" fill="currentColor"/>
<rect width="12.0814" height="0.274733" transform="matrix(-0.568831 0.822454 0.900835 0.434162 19.0137 -0.00634766)" fill="currentColor"/>
<rect width="12.0814" height="0.274733" transform="matrix(0.568831 0.822454 -0.900835 0.434162 12.2588 9.93799)" fill="currentColor"/>
<rect width="12.0814" height="0.274733" transform="matrix(-0.568831 0.822454 0.900835 0.434162 18.3027 -0.00634766)" fill="currentColor"/>
<rect width="12.0814" height="0.274733" transform="matrix(0.568831 0.822454 -0.900835 0.434162 11.5488 9.93799)" fill="currentColor"/>
<rect width="12.0814" height="0.274733" transform="matrix(-0.568831 0.822454 0.900835 0.434162 17.5928 -0.00634766)" fill="currentColor"/>
<rect width="12.0814" height="0.274733" transform="matrix(0.568831 0.822454 -0.900835 0.434162 10.8389 9.93799)" fill="currentColor"/>
<rect width="12.0814" height="0.274733" transform="matrix(-0.568831 0.822454 0.900835 0.434162 16.8818 -0.00634766)" fill="currentColor"/>
<rect width="12.0814" height="0.274733" transform="matrix(0.568831 0.822454 -0.900835 0.434162 10.1279 9.93799)" fill="currentColor"/>
<rect width="12.0814" height="0.274733" transform="matrix(-0.568831 0.822454 0.900835 0.434162 16.1719 -0.00634766)" fill="currentColor"/>
<rect width="12.0814" height="0.274733" transform="matrix(0.568831 0.822454 -0.900835 0.434162 9.41797 9.93799)" fill="currentColor"/>
<rect width="12.0814" height="0.274733" transform="matrix(-0.568831 0.822454 0.900835 0.434162 15.4609 -0.00634766)" fill="currentColor"/>
<rect width="12.0814" height="0.274733" transform="matrix(0.568831 0.822454 -0.900835 0.434162 8.70703 9.93799)" fill="currentColor"/>
<rect width="12.0814" height="0.274733" transform="matrix(-0.568831 0.822454 0.900835 0.434162 14.751 -0.00634766)" fill="currentColor"/>
<rect width="12.0814" height="0.274733" transform="matrix(0.568831 0.822454 -0.900835 0.434162 7.99609 9.93799)" fill="currentColor"/>
<rect width="12.0814" height="0.274733" transform="matrix(-0.568831 0.822454 0.900835 0.434162 14.04 -0.00634766)" fill="currentColor"/>
<rect width="12.0814" height="0.274733" transform="matrix(0.568831 0.822454 -0.900835 0.434162 7.28613 9.93799)" fill="currentColor"/>
<rect width="12.0814" height="0.274733" transform="matrix(0.568831 0.822454 -0.900835 0.434162 0.24707 -0.00634766)" fill="currentColor"/>
<rect width="12.0814" height="0.274733" transform="matrix(-0.568831 0.822454 0.900835 0.434162 7.00098 9.93799)" fill="currentColor"/>
<rect width="12.0814" height="0.274733" transform="matrix(0.568831 0.822454 -0.900835 0.434162 0.860352 -0.00634766)" fill="currentColor"/>
<rect width="12.0814" height="0.274733" transform="matrix(-0.568831 0.822454 0.900835 0.434162 7.61328 9.93799)" fill="currentColor"/>
<rect width="12.0814" height="0.274733" transform="matrix(0.568831 0.822454 -0.900835 0.434162 1.47168 -0.00634766)" fill="currentColor"/>
<rect width="12.0814" height="0.274733" transform="matrix(-0.568831 0.822454 0.900835 0.434162 8.22559 9.93799)" fill="currentColor"/>
<rect width="12.0814" height="0.274733" transform="matrix(0.568831 0.822454 -0.900835 0.434162 2.08398 -0.00634766)" fill="currentColor"/>
<rect width="12.0814" height="0.274733" transform="matrix(-0.568831 0.822454 0.900835 0.434162 8.83789 9.93799)" fill="currentColor"/>
<rect width="12.0814" height="0.274733" transform="matrix(0.568831 0.822454 -0.900835 0.434162 2.79395 -0.00634766)" fill="currentColor"/>
<rect width="12.0814" height="0.274733" transform="matrix(-0.568831 0.822454 0.900835 0.434162 9.54785 9.93799)" fill="currentColor"/>
<rect width="12.0814" height="0.274733" transform="matrix(0.568831 0.822454 -0.900835 0.434162 3.50488 -0.00634766)" fill="currentColor"/>
<rect width="12.0814" height="0.274733" transform="matrix(-0.568831 0.822454 0.900835 0.434162 10.2578 9.93799)" fill="currentColor"/>
<rect width="12.0814" height="0.274733" transform="matrix(0.568831 0.822454 -0.900835 0.434162 4.21484 -0.00634766)" fill="currentColor"/>
<rect width="12.0814" height="0.274733" transform="matrix(-0.568831 0.822454 0.900835 0.434162 10.9688 9.93799)" fill="currentColor"/>
<rect width="12.0814" height="0.274733" transform="matrix(0.568831 0.822454 -0.900835 0.434162 4.9248 -0.00634766)" fill="currentColor"/>
<rect width="12.0814" height="0.274733" transform="matrix(-0.568831 0.822454 0.900835 0.434162 11.6797 9.93799)" fill="currentColor"/>
<rect width="12.0814" height="0.274733" transform="matrix(0.568831 0.822454 -0.900835 0.434162 5.63574 -0.00634766)" fill="currentColor"/>
<rect width="12.0814" height="0.274733" transform="matrix(-0.568831 0.822454 0.900835 0.434162 12.3896 9.93799)" fill="currentColor"/>
<rect width="12.0814" height="0.274733" transform="matrix(0.568831 0.822454 -0.900835 0.434162 6.34668 -0.00634766)" fill="currentColor"/>
<rect width="12.0814" height="0.274733" transform="matrix(-0.568831 0.822454 0.900835 0.434162 13.1006 9.93799)" fill="currentColor"/>
<rect width="12.0814" height="0.274733" transform="matrix(0.568831 0.822454 -0.900835 0.434162 7.05664 -0.00634766)" fill="currentColor"/>
<rect width="12.0814" height="0.274733" transform="matrix(-0.568831 0.822454 0.900835 0.434162 13.8105 9.93799)" fill="currentColor"/>
</svg>
