<svg width="21" height="20" viewBox="0 0 21 20" fill="none" xmlns="http://www.w3.org/2000/svg">
<g style="mix-blend-mode:luminosity">
<mask id="mask0_252_1672" style="mask-type:alpha" maskUnits="userSpaceOnUse" x="-1" y="0" width="22" height="20">
<rect width="12.1258" height="0.10631" transform="matrix(-0.568831 0.822454 0.900835 0.434162 20.7964 0)" fill="#D9D9D9"/>
<rect width="12.1258" height="0.10631" transform="matrix(0.568831 0.822454 -0.900835 0.434162 14.0177 9.98096)" fill="#D9D9D9"/>
<rect width="12.1258" height="0.10631" transform="matrix(-0.568831 0.822454 0.900835 0.434162 20.1823 0)" fill="#D9D9D9"/>
<rect width="12.1258" height="0.10631" transform="matrix(0.568831 0.822454 -0.900835 0.434162 13.4033 9.98096)" fill="#D9D9D9"/>
<rect width="12.1258" height="0.10631" transform="matrix(-0.568831 0.822454 0.900835 0.434162 19.5679 0)" fill="#D9D9D9"/>
<rect width="12.1258" height="0.10631" transform="matrix(0.568831 0.822454 -0.900835 0.434162 12.7891 9.98096)" fill="#D9D9D9"/>
<rect width="12.1258" height="0.10631" transform="matrix(-0.568831 0.822454 0.900835 0.434162 18.9536 0)" fill="#D9D9D9"/>
<rect width="12.1258" height="0.10631" transform="matrix(0.568831 0.822454 -0.900835 0.434162 12.1747 9.98096)" fill="#D9D9D9"/>
<rect width="12.1258" height="0.10631" transform="matrix(-0.568831 0.822454 0.900835 0.434162 18.2405 0)" fill="#D9D9D9"/>
<rect width="12.1258" height="0.10631" transform="matrix(0.568831 0.822454 -0.900835 0.434162 11.4617 9.98096)" fill="#D9D9D9"/>
<rect width="12.1258" height="0.10631" transform="matrix(-0.568831 0.822454 0.900835 0.434162 17.5275 0)" fill="#D9D9D9"/>
<rect width="12.1258" height="0.10631" transform="matrix(0.568831 0.822454 -0.900835 0.434162 10.7487 9.98096)" fill="#D9D9D9"/>
<rect width="12.1258" height="0.10631" transform="matrix(-0.568831 0.822454 0.900835 0.434162 16.8145 0)" fill="#D9D9D9"/>
<rect width="12.1258" height="0.10631" transform="matrix(0.568831 0.822454 -0.900835 0.434162 10.0355 9.98096)" fill="#D9D9D9"/>
<rect width="12.1258" height="0.10631" transform="matrix(-0.568831 0.822454 0.900835 0.434162 16.1013 0)" fill="#D9D9D9"/>
<rect width="12.1258" height="0.10631" transform="matrix(0.568831 0.822454 -0.900835 0.434162 9.32251 9.98096)" fill="#D9D9D9"/>
<rect width="12.1258" height="0.10631" transform="matrix(-0.568831 0.822454 0.900835 0.434162 15.3883 0)" fill="#D9D9D9"/>
<rect width="12.1258" height="0.10631" transform="matrix(0.568831 0.822454 -0.900835 0.434162 8.6095 9.98096)" fill="#D9D9D9"/>
<rect width="12.1258" height="0.10631" transform="matrix(-0.568831 0.822454 0.900835 0.434162 14.6754 0)" fill="#D9D9D9"/>
<rect width="12.1258" height="0.10631" transform="matrix(0.568831 0.822454 -0.900835 0.434162 7.89636 9.98096)" fill="#D9D9D9"/>
<rect width="12.1258" height="0.10631" transform="matrix(-0.568831 0.822454 0.900835 0.434162 13.9623 0)" fill="#D9D9D9"/>
<rect width="12.1258" height="0.10631" transform="matrix(0.568831 0.822454 -0.900835 0.434162 7.18347 9.98096)" fill="#D9D9D9"/>
<rect width="12.1258" height="0.10631" transform="matrix(0.568831 0.822454 -0.900835 0.434162 0.118774 0)" fill="#D9D9D9"/>
<rect width="12.1258" height="0.10631" transform="matrix(-0.568831 0.822454 0.900835 0.434162 6.89746 9.98096)" fill="#D9D9D9"/>
<rect width="12.1258" height="0.10631" transform="matrix(0.568831 0.822454 -0.900835 0.434162 0.733032 0)" fill="#D9D9D9"/>
<rect width="12.1258" height="0.10631" transform="matrix(-0.568831 0.822454 0.900835 0.434162 7.51184 9.98096)" fill="#D9D9D9"/>
<rect width="12.1258" height="0.10631" transform="matrix(0.568831 0.822454 -0.900835 0.434162 1.34741 0)" fill="#D9D9D9"/>
<rect width="12.1258" height="0.10631" transform="matrix(-0.568831 0.822454 0.900835 0.434162 8.12622 9.98096)" fill="#D9D9D9"/>
<rect width="12.1258" height="0.10631" transform="matrix(0.568831 0.822454 -0.900835 0.434162 1.96155 0)" fill="#D9D9D9"/>
<rect width="12.1258" height="0.10631" transform="matrix(-0.568831 0.822454 0.900835 0.434162 8.7406 9.98096)" fill="#D9D9D9"/>
<rect width="12.1258" height="0.10631" transform="matrix(0.568831 0.822454 -0.900835 0.434162 2.67468 0)" fill="#D9D9D9"/>
<rect width="12.1258" height="0.10631" transform="matrix(-0.568831 0.822454 0.900835 0.434162 9.45361 9.98096)" fill="#D9D9D9"/>
<rect width="12.1258" height="0.10631" transform="matrix(0.568831 0.822454 -0.900835 0.434162 3.3877 0)" fill="#D9D9D9"/>
<rect width="12.1258" height="0.10631" transform="matrix(-0.568831 0.822454 0.900835 0.434162 10.1665 9.98096)" fill="#D9D9D9"/>
<rect width="12.1258" height="0.10631" transform="matrix(0.568831 0.822454 -0.900835 0.434162 4.10071 0)" fill="#D9D9D9"/>
<rect width="12.1258" height="0.10631" transform="matrix(-0.568831 0.822454 0.900835 0.434162 10.8796 9.98096)" fill="#D9D9D9"/>
<rect width="12.1258" height="0.10631" transform="matrix(0.568831 0.822454 -0.900835 0.434162 4.81384 0)" fill="#D9D9D9"/>
<rect width="12.1258" height="0.10631" transform="matrix(-0.568831 0.822454 0.900835 0.434162 11.5927 9.98096)" fill="#D9D9D9"/>
<rect width="12.1258" height="0.10631" transform="matrix(0.568831 0.822454 -0.900835 0.434162 5.52686 0)" fill="#D9D9D9"/>
<rect width="12.1258" height="0.10631" transform="matrix(-0.568831 0.822454 0.900835 0.434162 12.3057 9.98096)" fill="#D9D9D9"/>
<rect width="12.1258" height="0.10631" transform="matrix(0.568831 0.822454 -0.900835 0.434162 6.23987 0)" fill="#D9D9D9"/>
<rect width="12.1258" height="0.10631" transform="matrix(-0.568831 0.822454 0.900835 0.434162 13.0187 9.98096)" fill="#D9D9D9"/>
<rect width="12.1258" height="0.10631" transform="matrix(0.568831 0.822454 -0.900835 0.434162 6.953 0)" fill="#D9D9D9"/>
<rect width="12.1258" height="0.10631" transform="matrix(-0.568831 0.822454 0.900835 0.434162 13.7318 9.98096)" fill="#D9D9D9"/>
</mask>
<g mask="url(#mask0_252_1672)">
<rect x="-3.33728" y="-1.36987" width="28.7339" height="23.5617" fill="url(#paint0_linear_252_1672)"/>
</g>
</g>
<defs>
<linearGradient id="paint0_linear_252_1672" x1="1.83483" y1="-1.36987" x2="16.5535" y2="29.9138" gradientUnits="userSpaceOnUse">
<stop stop-color="#6FF0D6"/>
<stop offset="1" stop-color="#8751DE"/>
</linearGradient>
</defs>
</svg>
