<svg width="21" height="17" viewBox="0 0 21 17" fill="#EEEEF7" xmlns="http://www.w3.org/2000/svg">
<path fill-rule="evenodd" clip-rule="evenodd" d="M10.5 4.5C10.3011 4.5 10.1103 4.57902 9.96967 4.71967C9.82902 4.86032 9.75 5.05109 9.75 5.25L9.75 13.9395L6.531 10.719C6.46127 10.6493 6.37849 10.594 6.28738 10.5562C6.19627 10.5185 6.09862 10.4991 6 10.4991C5.90138 10.4991 5.80373 10.5185 5.71263 10.5562C5.62152 10.594 5.53873 10.6493 5.469 10.719C5.39927 10.7887 5.34395 10.8715 5.30622 10.9626C5.26848 11.0537 5.24905 11.1514 5.24905 11.25C5.24905 11.3486 5.26848 11.4463 5.30622 11.5374C5.34395 11.6285 5.39927 11.7113 5.469 11.781L9.969 16.281C10.0387 16.3508 10.1214 16.4063 10.2126 16.4441C10.3037 16.4819 10.4013 16.5013 10.5 16.5013C10.5987 16.5013 10.6963 16.4819 10.7875 16.4441C10.8786 16.4063 10.9613 16.3508 11.031 16.281L15.531 11.781C15.6718 11.6402 15.7509 11.4492 15.7509 11.25C15.7509 11.0508 15.6718 10.8598 15.531 10.719C15.3902 10.5782 15.1992 10.4991 15 10.4991C14.8008 10.4991 14.6098 10.5782 14.469 10.719L11.25 13.9395L11.25 5.25C11.25 5.05109 11.171 4.86032 11.0303 4.71967C10.8897 4.57902 10.6989 4.5 10.5 4.5ZM21 0.750002C21 0.948915 20.921 1.13968 20.7803 1.28033C20.6397 1.42099 20.4489 1.5 20.25 1.5L0.750001 1.5C0.55109 1.5 0.360322 1.42098 0.219671 1.28033C0.079019 1.13968 1.35964e-06 0.948913 1.37703e-06 0.75C1.39442e-06 0.551088 0.0790191 0.360323 0.219671 0.219669C0.360322 0.0790177 0.55109 1.19648e-07 0.750001 1.37037e-07L20.25 1.84178e-06C20.4489 1.85917e-06 20.6397 0.0790195 20.7803 0.219671C20.921 0.360325 21 0.55109 21 0.750002Z" fill="currentColor"/>
</svg>
