<svg width="21" height="17" viewBox="0 0 21 17" fill="none" xmlns="http://www.w3.org/2000/svg">
<path fill-rule="evenodd" clip-rule="evenodd" d="M10.5 12.0013C10.6989 12.0013 10.8897 11.9223 11.0303 11.7817C11.171 11.641 11.25 11.4503 11.25 11.2513V2.56184L14.469 5.78234C14.5387 5.85207 14.6215 5.90739 14.7126 5.94513C14.8037 5.98286 14.9014 6.00229 15 6.00229C15.0986 6.00229 15.1963 5.98286 15.2874 5.94513C15.3785 5.90739 15.4613 5.85207 15.531 5.78234C15.6007 5.71261 15.656 5.62983 15.6938 5.53872C15.7315 5.44761 15.7509 5.34996 15.7509 5.25134C15.7509 5.15273 15.7315 5.05507 15.6938 4.96397C15.656 4.87286 15.6007 4.79007 15.531 4.72034L11.031 0.220341C10.9613 0.150496 10.8786 0.0950816 10.7874 0.057272C10.6963 0.0194623 10.5987 0 10.5 0C10.4013 0 10.3037 0.0194623 10.2125 0.057272C10.1214 0.0950816 10.0387 0.150496 9.969 0.220341L5.469 4.72034C5.32817 4.86117 5.24905 5.05218 5.24905 5.25134C5.24905 5.4505 5.32817 5.64151 5.469 5.78234C5.60983 5.92317 5.80084 6.00229 6 6.00229C6.19916 6.00229 6.39017 5.92317 6.531 5.78234L9.75 2.56184V11.2513C9.75 11.4503 9.82902 11.641 9.96967 11.7817C10.1103 11.9223 10.3011 12.0013 10.5 12.0013ZM0 15.7513C0 15.5524 0.0790176 15.3617 0.21967 15.221C0.360322 15.0804 0.551088 15.0013 0.75 15.0013H20.25C20.4489 15.0013 20.6397 15.0804 20.7803 15.221C20.921 15.3617 21 15.5524 21 15.7513C21 15.9503 20.921 16.141 20.7803 16.2817C20.6397 16.4223 20.4489 16.5013 20.25 16.5013H0.75C0.551088 16.5013 0.360322 16.4223 0.21967 16.2817C0.0790176 16.141 0 15.9503 0 15.7513Z" fill="white"/>
</svg>
