<svg width="16" height="16" viewBox="0 0 16 16" fill="none" xmlns="http://www.w3.org/2000/svg">
<mask id="path-1-inside-1_3_771" fill="white">
<path d="M8 0C3.58867 0 0 3.58867 0 8C0 12.4113 3.58867 16 8 16C12.4113 16 16 12.4113 16 8C16 3.58867 12.4113 0 8 0ZM10.4713 9.52867C10.5963 9.65367 10.6666 9.82322 10.6666 10C10.6666 10.1768 10.5963 10.3463 10.4713 10.4713C10.3463 10.5963 10.1768 10.6666 10 10.6666C9.82322 10.6666 9.65367 10.5963 9.52867 10.4713L8 8.94267L6.47133 10.4713C6.40956 10.5335 6.33612 10.5828 6.25524 10.6164C6.17435 10.65 6.08761 10.6674 6 10.6674C5.9124 10.6674 5.82565 10.65 5.74477 10.6164C5.66388 10.5828 5.59044 10.5335 5.52867 10.4713C5.4667 10.4095 5.41754 10.336 5.384 10.2551C5.35046 10.1743 5.3332 10.0876 5.3332 10C5.3332 9.91245 5.35046 9.82575 5.384 9.74487C5.41754 9.66399 5.4667 9.59053 5.52867 9.52867L7.05733 8L5.52867 6.47133C5.40366 6.34633 5.33343 6.17678 5.33343 6C5.33343 5.82322 5.40366 5.65367 5.52867 5.52867C5.65367 5.40366 5.82322 5.33343 6 5.33343C6.17678 5.33343 6.34633 5.40366 6.47133 5.52867L8 7.05733L9.52867 5.52867C9.65367 5.40366 9.82322 5.33343 10 5.33343C10.1768 5.33343 10.3463 5.40366 10.4713 5.52867C10.5963 5.65367 10.6666 5.82322 10.6666 6C10.6666 6.17678 10.5963 6.34633 10.4713 6.47133L8.94267 8L10.4713 9.52867Z"/>
</mask>
<path d="M8 8.94267L23.0849 -6.14228L8 -21.2272L-7.08494 -6.14228L8 8.94267ZM6.47133 10.4713L-8.61361 -4.61361L-8.6352 -4.59203L-8.65672 -4.57038L6.47133 10.4713ZM5.52867 10.4713L20.6567 -4.57038L20.6288 -4.59846L20.6008 -4.62643L5.52867 10.4713ZM5.3332 10H26.6665H5.3332ZM5.52867 9.52867L20.6008 24.6264L20.6072 24.62L20.6136 24.6136L5.52867 9.52867ZM7.05733 8L22.1423 23.0849L37.2272 8L22.1423 -7.08494L7.05733 8ZM6 5.33343V-15.9999V5.33343ZM8 7.05733L-7.08494 22.1423L8 37.2272L23.0849 22.1423L8 7.05733ZM9.52867 5.52867L-5.55628 -9.55628L9.52867 5.52867ZM10.4713 6.47133L-4.61361 -8.61361L10.4713 6.47133ZM8.94267 8L-6.14228 -7.08494L-21.2272 8L-6.14228 23.0849L8.94267 8ZM8 -21.3333C-8.19341 -21.3333 -21.3333 -8.19341 -21.3333 8H21.3333C21.3333 15.3707 15.3707 21.3333 8 21.3333V-21.3333ZM-21.3333 8C-21.3333 24.1934 -8.19341 37.3333 8 37.3333V-5.33333C15.3707 -5.33333 21.3333 0.629259 21.3333 8H-21.3333ZM8 37.3333C24.1934 37.3333 37.3333 24.1934 37.3333 8H-5.33333C-5.33333 0.629259 0.629259 -5.33333 8 -5.33333V37.3333ZM37.3333 8C37.3333 -8.19341 24.1934 -21.3333 8 -21.3333V21.3333C0.629259 21.3333 -5.33333 15.3707 -5.33333 8H37.3333ZM-4.61361 24.6136C-8.48936 20.7379 -10.6668 15.4812 -10.6668 10H31.9999C31.9999 4.16523 29.682 -1.43052 25.5563 -5.55628L-4.61361 24.6136ZM-10.6668 10C-10.6668 4.5188 -8.48936 -0.737866 -4.61361 -4.61361L25.5563 25.5563C29.682 21.4305 31.9999 15.8348 31.9999 10H-10.6668ZM-4.61361 -4.61361C-0.737866 -8.48936 4.5188 -10.6668 10 -10.6668V31.9999C15.8348 31.9999 21.4305 29.682 25.5563 25.5563L-4.61361 -4.61361ZM10 -10.6668C15.4812 -10.6668 20.7379 -8.48936 24.6136 -4.61361L-5.55628 25.5563C-1.43052 29.682 4.16523 31.9999 10 31.9999V-10.6668ZM24.6136 -4.61361L23.0849 -6.14228L-7.08494 24.0276L-5.55628 25.5563L24.6136 -4.61361ZM-7.08494 -6.14228L-8.61361 -4.61361L21.5563 25.5563L23.0849 24.0276L-7.08494 -6.14228ZM-8.65672 -4.57038C-6.73594 -6.50218 -4.45222 -8.03522 -1.93687 -9.08133L14.4473 30.3141C17.1245 29.2007 19.5551 27.5691 21.5994 25.513L-8.65672 -4.57038ZM-1.93687 -9.08133C0.578372 -10.1274 3.27569 -10.666 6 -10.666V32.0007C8.89952 32.0007 11.7703 31.4275 14.4473 30.3141L-1.93687 -9.08133ZM6 -10.666C8.72431 -10.666 11.4216 -10.1274 13.9369 -9.08133L-2.44734 30.3141C0.229679 31.4275 3.10048 32.0007 6 32.0007V-10.666ZM13.9369 -9.08133C16.4522 -8.03522 18.7359 -6.50218 20.6567 -4.57038L-9.59938 25.513C-7.55507 27.5691 -5.12446 29.2007 -2.44734 30.3141L13.9369 -9.08133ZM20.6008 -4.62643C22.5236 -2.70686 24.0491 -0.42696 25.09 2.08284L-14.322 18.4274C-13.214 21.099 -11.5902 23.5258 -9.54345 25.5691L20.6008 -4.62643ZM25.09 2.08284C26.1308 4.59259 26.6665 7.28295 26.6665 10H-16.0001C-16.0001 12.8922 -15.4299 15.7559 -14.322 18.4274L25.09 2.08284ZM26.6665 10C26.6665 12.717 26.1308 15.4074 25.09 17.9172L-14.322 1.57258C-15.4299 4.24408 -16.0001 7.10784 -16.0001 10H26.6665ZM25.09 17.9172C24.0491 20.427 22.5236 22.7069 20.6008 24.6264L-9.54345 -5.5691C-11.5902 -3.52581 -13.214 -1.09897 -14.322 1.57258L25.09 17.9172ZM20.6136 24.6136L22.1423 23.0849L-8.02761 -7.08494L-9.55628 -5.55628L20.6136 24.6136ZM22.1423 -7.08494L20.6136 -8.61361L-9.55628 21.5563L-8.02761 23.0849L22.1423 -7.08494ZM20.6136 -8.61361C24.4894 -4.73787 26.6668 0.518797 26.6668 6H-15.9999C-15.9999 11.8348 -13.682 17.4305 -9.55628 21.5563L20.6136 -8.61361ZM26.6668 6C26.6668 11.4812 24.4894 16.7379 20.6136 20.6136L-9.55628 -9.55628C-13.682 -5.43052 -15.9999 0.165229 -15.9999 6H26.6668ZM20.6136 20.6136C16.7379 24.4894 11.4812 26.6668 6 26.6668V-15.9999C0.165229 -15.9999 -5.43052 -13.682 -9.55628 -9.55628L20.6136 20.6136ZM6 26.6668C0.518797 26.6668 -4.73787 24.4894 -8.61361 20.6136L21.5563 -9.55628C17.4305 -13.682 11.8348 -15.9999 6 -15.9999V26.6668ZM-8.61361 20.6136L-7.08494 22.1423L23.0849 -8.02761L21.5563 -9.55628L-8.61361 20.6136ZM23.0849 22.1423L24.6136 20.6136L-5.55628 -9.55628L-7.08494 -8.02761L23.0849 22.1423ZM24.6136 20.6136C20.7379 24.4894 15.4812 26.6668 10 26.6668V-15.9999C4.16523 -15.9999 -1.43052 -13.682 -5.55628 -9.55628L24.6136 20.6136ZM10 26.6668C4.5188 26.6668 -0.737866 24.4894 -4.61361 20.6136L25.5563 -9.55628C21.4305 -13.682 15.8348 -15.9999 10 -15.9999V26.6668ZM-4.61361 20.6136C-8.48936 16.7379 -10.6668 11.4812 -10.6668 6H31.9999C31.9999 0.165229 29.682 -5.43052 25.5563 -9.55628L-4.61361 20.6136ZM-10.6668 6C-10.6668 0.518797 -8.48936 -4.73787 -4.61361 -8.61361L25.5563 21.5563C29.682 17.4305 31.9999 11.8348 31.9999 6H-10.6668ZM-4.61361 -8.61361L-6.14228 -7.08494L24.0276 23.0849L25.5563 21.5563L-4.61361 -8.61361ZM-6.14228 23.0849L-4.61361 24.6136L25.5563 -5.55628L24.0276 -7.08494L-6.14228 23.0849Z" fill="currentColor" mask="url(#path-1-inside-1_3_771)"/>
</svg>
