<svg width="78" height="106" viewBox="0 0 78 106" fill="none" xmlns="http://www.w3.org/2000/svg">
<path d="M70.0953 97.0469L76.9996 105.3H72.7687L67.9798 99.5809L63.1909 105.3H58.96L65.8643 97.0469L59.1459 89.0267H63.3769L67.9798 94.513L72.5827 89.0267H76.8137L70.0953 97.0469Z" fill="var(--additional-color)"/>
<path d="M27.3923 99.8827V105.299H24.1377V93.6757H27.0436L27.369 95.582C28.3919 94.1872 32.5723 93.327 34.3856 93.327C37.8726 93.327 40.3136 96.0004 40.3136 99.8827V105.299H37.059V99.8827C37.059 97.7904 35.5712 96.3259 33.5022 96.3259C31.4332 96.3259 27.3923 97.7904 27.3923 99.8827Z" fill="var(--additional-color)"/>
<path d="M45.0334 99.8827V105.299H41.7788V93.6757H44.6847L45.0101 95.582C46.033 94.1872 50.2134 93.327 52.0267 93.327C55.5138 93.327 57.9547 96.0004 57.9547 99.8827V105.299H54.7001V99.8827C54.7001 97.7904 53.2123 96.3259 51.1433 96.3259C49.0743 96.3259 45.0334 97.7904 45.0334 99.8827Z" fill="var(--additional-color)"/>
<path d="M17.9455 90.1657C17.9455 89.3055 18.5499 88.6779 19.4798 88.6779C20.3632 88.6779 20.9676 89.3055 20.9676 90.1657C20.9676 91.0955 20.3632 91.6767 19.4798 91.6767C18.5499 91.6767 17.9455 91.0955 17.9455 90.1657ZM21.1071 105.299H17.8525V93.676H21.1071V105.299Z" fill="var(--additional-color)"/>
<path d="M0.686523 105.3V89.0267H9.00895C12.496 89.0267 15.4251 91.3282 15.4251 94.792C15.4251 98.0698 12.3333 100.557 9.00895 100.557H3.9411V105.3H0.686523ZM12.1705 94.792C12.1705 93.1879 10.8222 92.0256 9.00895 92.0256H3.9411V97.5119H9.00895C10.799 97.5119 12.1705 96.3263 12.1705 94.792Z" fill="var(--additional-color)"/>
<mask id="mask0_12_87" style="mask-type:alpha" maskUnits="userSpaceOnUse" x="1" y="0" width="77" height="73">
<rect width="44.2589" height="0.388028" transform="matrix(-0.568831 0.822454 0.900835 0.434162 77.5669 0)" fill="#D9D9D9"/>
<rect width="44.2589" height="0.388028" transform="matrix(0.568831 0.822454 -0.900835 0.434162 52.8242 36.4302)" fill="#D9D9D9"/>
<rect width="44.2589" height="0.388028" transform="matrix(-0.568831 0.822454 0.900835 0.434162 75.3247 0)" fill="#D9D9D9"/>
<rect width="44.2589" height="0.388028" transform="matrix(0.568831 0.822454 -0.900835 0.434162 50.582 36.4302)" fill="#D9D9D9"/>
<rect width="44.2589" height="0.388028" transform="matrix(-0.568831 0.822454 0.900835 0.434162 73.0825 0)" fill="#D9D9D9"/>
<rect width="44.2589" height="0.388028" transform="matrix(0.568831 0.822454 -0.900835 0.434162 48.3398 36.4302)" fill="#D9D9D9"/>
<rect width="44.2589" height="0.388028" transform="matrix(-0.568831 0.822454 0.900835 0.434162 70.8398 0)" fill="#D9D9D9"/>
<rect width="44.2589" height="0.388028" transform="matrix(0.568831 0.822454 -0.900835 0.434162 46.0972 36.4302)" fill="#D9D9D9"/>
<rect width="44.2589" height="0.388028" transform="matrix(-0.568831 0.822454 0.900835 0.434162 68.2373 0)" fill="#D9D9D9"/>
<rect width="44.2589" height="0.388028" transform="matrix(0.568831 0.822454 -0.900835 0.434162 43.4946 36.4302)" fill="#D9D9D9"/>
<rect width="44.2589" height="0.388028" transform="matrix(-0.568831 0.822454 0.900835 0.434162 65.6348 0)" fill="#D9D9D9"/>
<rect width="44.2589" height="0.388028" transform="matrix(0.568831 0.822454 -0.900835 0.434162 40.8921 36.4302)" fill="#D9D9D9"/>
<rect width="44.2589" height="0.388028" transform="matrix(-0.568831 0.822454 0.900835 0.434162 63.0322 0)" fill="#D9D9D9"/>
<rect width="44.2589" height="0.388028" transform="matrix(0.568831 0.822454 -0.900835 0.434162 38.2896 36.4302)" fill="#D9D9D9"/>
<rect width="44.2589" height="0.388028" transform="matrix(-0.568831 0.822454 0.900835 0.434162 60.4297 0)" fill="#D9D9D9"/>
<rect width="44.2589" height="0.388028" transform="matrix(0.568831 0.822454 -0.900835 0.434162 35.687 36.4302)" fill="#D9D9D9"/>
<rect width="44.2589" height="0.388028" transform="matrix(-0.568831 0.822454 0.900835 0.434162 57.8271 0)" fill="#D9D9D9"/>
<rect width="44.2589" height="0.388028" transform="matrix(0.568831 0.822454 -0.900835 0.434162 33.0845 36.4302)" fill="#D9D9D9"/>
<rect width="44.2589" height="0.388028" transform="matrix(-0.568831 0.822454 0.900835 0.434162 55.2246 0)" fill="#D9D9D9"/>
<rect width="44.2589" height="0.388028" transform="matrix(0.568831 0.822454 -0.900835 0.434162 30.4819 36.4302)" fill="#D9D9D9"/>
<rect width="44.2589" height="0.388028" transform="matrix(-0.568831 0.822454 0.900835 0.434162 52.6221 0)" fill="#D9D9D9"/>
<rect width="44.2589" height="0.388028" transform="matrix(0.568831 0.822454 -0.900835 0.434162 27.8794 36.4302)" fill="#D9D9D9"/>
<rect width="44.2589" height="0.388028" transform="matrix(0.568831 0.822454 -0.900835 0.434162 2.09277 0)" fill="#D9D9D9"/>
<rect width="44.2589" height="0.388028" transform="matrix(-0.568831 0.822454 0.900835 0.434162 26.8354 36.4302)" fill="#D9D9D9"/>
<rect width="44.2589" height="0.388028" transform="matrix(0.568831 0.822454 -0.900835 0.434162 4.33496 0)" fill="#D9D9D9"/>
<rect width="44.2589" height="0.388028" transform="matrix(-0.568831 0.822454 0.900835 0.434162 29.0776 36.4302)" fill="#D9D9D9"/>
<rect width="44.2589" height="0.388028" transform="matrix(0.568831 0.822454 -0.900835 0.434162 6.57715 0)" fill="#D9D9D9"/>
<rect width="44.2589" height="0.388028" transform="matrix(-0.568831 0.822454 0.900835 0.434162 31.3198 36.4302)" fill="#D9D9D9"/>
<rect width="44.2589" height="0.388028" transform="matrix(0.568831 0.822454 -0.900835 0.434162 8.81982 0)" fill="#D9D9D9"/>
<rect width="44.2589" height="0.388028" transform="matrix(-0.568831 0.822454 0.900835 0.434162 33.5625 36.4302)" fill="#D9D9D9"/>
<rect width="44.2589" height="0.388028" transform="matrix(0.568831 0.822454 -0.900835 0.434162 11.4224 0)" fill="#D9D9D9"/>
<rect width="44.2589" height="0.388028" transform="matrix(-0.568831 0.822454 0.900835 0.434162 36.165 36.4302)" fill="#D9D9D9"/>
<rect width="44.2589" height="0.388028" transform="matrix(0.568831 0.822454 -0.900835 0.434162 14.0249 0)" fill="#D9D9D9"/>
<rect width="44.2589" height="0.388028" transform="matrix(-0.568831 0.822454 0.900835 0.434162 38.7676 36.4302)" fill="#D9D9D9"/>
<rect width="44.2589" height="0.388028" transform="matrix(0.568831 0.822454 -0.900835 0.434162 16.6274 0)" fill="#D9D9D9"/>
<rect width="44.2589" height="0.388028" transform="matrix(-0.568831 0.822454 0.900835 0.434162 41.3701 36.4302)" fill="#D9D9D9"/>
<rect width="44.2589" height="0.388028" transform="matrix(0.568831 0.822454 -0.900835 0.434162 19.23 0)" fill="#D9D9D9"/>
<rect width="44.2589" height="0.388028" transform="matrix(-0.568831 0.822454 0.900835 0.434162 43.9727 36.4302)" fill="#D9D9D9"/>
<rect width="44.2589" height="0.388028" transform="matrix(0.568831 0.822454 -0.900835 0.434162 21.8325 0)" fill="#D9D9D9"/>
<rect width="44.2589" height="0.388028" transform="matrix(-0.568831 0.822454 0.900835 0.434162 46.5752 36.4302)" fill="#D9D9D9"/>
<rect width="44.2589" height="0.388028" transform="matrix(0.568831 0.822454 -0.900835 0.434162 24.4351 0)" fill="#D9D9D9"/>
<rect width="44.2589" height="0.388028" transform="matrix(-0.568831 0.822454 0.900835 0.434162 49.1777 36.4302)" fill="#D9D9D9"/>
<rect width="44.2589" height="0.388028" transform="matrix(0.568831 0.822454 -0.900835 0.434162 27.0376 0)" fill="#D9D9D9"/>
<rect width="44.2589" height="0.388028" transform="matrix(-0.568831 0.822454 0.900835 0.434162 51.7803 36.4302)" fill="#D9D9D9"/>
</mask>
<g mask="url(#mask0_12_87)">
<rect x="-10.5215" y="-5" width="104.879" height="86" fill="url(#paint0_linear_12_87)"/>
</g>
<defs>
<linearGradient id="paint0_linear_12_87" x1="8.35665" y1="-5" x2="62.0795" y2="109.185" gradientUnits="userSpaceOnUse">
<stop stop-color="#6FF0D6"/>
<stop offset="1" stop-color="#8751DE"/>
</linearGradient>
</defs>
</svg>
