<svg width="111" height="30" viewBox="0 0 111 30" fill="none" xmlns="http://www.w3.org/2000/svg">
<mask id="mask0_12_155" style="mask-type:alpha" maskUnits="userSpaceOnUse" x="0" y="0" width="31" height="30">
<rect width="17.59" height="0.4" transform="matrix(-0.568831 0.822454 0.900835 0.434162 30.356 0)" fill="#D9D9D9"/>
<rect width="17.59" height="0.4" transform="matrix(0.568831 0.822454 -0.900835 0.434162 20.5225 14.4785)" fill="#D9D9D9"/>
<rect width="17.59" height="0.4" transform="matrix(-0.568831 0.822454 0.900835 0.434162 29.4648 0)" fill="#D9D9D9"/>
<rect width="17.59" height="0.4" transform="matrix(0.568831 0.822454 -0.900835 0.434162 19.6313 14.4785)" fill="#D9D9D9"/>
<rect width="17.59" height="0.4" transform="matrix(-0.568831 0.822454 0.900835 0.434162 28.5737 0)" fill="#D9D9D9"/>
<rect width="17.59" height="0.4" transform="matrix(0.568831 0.822454 -0.900835 0.434162 18.7402 14.4785)" fill="#D9D9D9"/>
<rect width="17.59" height="0.4" transform="matrix(-0.568831 0.822454 0.900835 0.434162 27.6826 0)" fill="#D9D9D9"/>
<rect width="17.59" height="0.4" transform="matrix(0.568831 0.822454 -0.900835 0.434162 17.8491 14.4785)" fill="#D9D9D9"/>
<rect width="17.59" height="0.4" transform="matrix(-0.568831 0.822454 0.900835 0.434162 26.6479 0)" fill="#D9D9D9"/>
<rect width="17.59" height="0.4" transform="matrix(0.568831 0.822454 -0.900835 0.434162 16.8145 14.4785)" fill="#D9D9D9"/>
<rect width="17.59" height="0.4" transform="matrix(-0.568831 0.822454 0.900835 0.434162 25.6138 0)" fill="#D9D9D9"/>
<rect width="17.59" height="0.4" transform="matrix(0.568831 0.822454 -0.900835 0.434162 15.7803 14.4785)" fill="#D9D9D9"/>
<rect width="17.59" height="0.4" transform="matrix(-0.568831 0.822454 0.900835 0.434162 24.5796 0)" fill="#D9D9D9"/>
<rect width="17.59" height="0.4" transform="matrix(0.568831 0.822454 -0.900835 0.434162 14.7461 14.4785)" fill="#D9D9D9"/>
<rect width="17.59" height="0.4" transform="matrix(-0.568831 0.822454 0.900835 0.434162 23.5454 0)" fill="#D9D9D9"/>
<rect width="17.59" height="0.4" transform="matrix(0.568831 0.822454 -0.900835 0.434162 13.7119 14.4785)" fill="#D9D9D9"/>
<rect width="17.59" height="0.4" transform="matrix(-0.568831 0.822454 0.900835 0.434162 22.5107 0)" fill="#D9D9D9"/>
<rect width="17.59" height="0.4" transform="matrix(0.568831 0.822454 -0.900835 0.434162 12.6772 14.4785)" fill="#D9D9D9"/>
<rect width="17.59" height="0.4" transform="matrix(-0.568831 0.822454 0.900835 0.434162 21.4766 0)" fill="#D9D9D9"/>
<rect width="17.59" height="0.4" transform="matrix(0.568831 0.822454 -0.900835 0.434162 11.6431 14.4785)" fill="#D9D9D9"/>
<rect width="17.59" height="0.4" transform="matrix(-0.568831 0.822454 0.900835 0.434162 20.4419 0)" fill="#D9D9D9"/>
<rect width="17.59" height="0.4" transform="matrix(0.568831 0.822454 -0.900835 0.434162 10.6084 14.4785)" fill="#D9D9D9"/>
<rect width="17.59" height="0.4" transform="matrix(0.568831 0.822454 -0.900835 0.434162 0.360352 0)" fill="#D9D9D9"/>
<rect width="17.59" height="0.4" transform="matrix(-0.568831 0.822454 0.900835 0.434162 10.1938 14.4785)" fill="#D9D9D9"/>
<rect width="17.59" height="0.4" transform="matrix(0.568831 0.822454 -0.900835 0.434162 1.25146 0)" fill="#D9D9D9"/>
<rect width="17.59" height="0.4" transform="matrix(-0.568831 0.822454 0.900835 0.434162 11.085 14.4785)" fill="#D9D9D9"/>
<rect width="17.59" height="0.4" transform="matrix(0.568831 0.822454 -0.900835 0.434162 2.14258 0)" fill="#D9D9D9"/>
<rect width="17.59" height="0.4" transform="matrix(-0.568831 0.822454 0.900835 0.434162 11.9761 14.4785)" fill="#D9D9D9"/>
<rect width="17.59" height="0.4" transform="matrix(0.568831 0.822454 -0.900835 0.434162 3.03369 0)" fill="#D9D9D9"/>
<rect width="17.59" height="0.4" transform="matrix(-0.568831 0.822454 0.900835 0.434162 12.8672 14.4785)" fill="#D9D9D9"/>
<rect width="17.59" height="0.4" transform="matrix(0.568831 0.822454 -0.900835 0.434162 4.06836 0)" fill="#D9D9D9"/>
<rect width="17.59" height="0.4" transform="matrix(-0.568831 0.822454 0.900835 0.434162 13.9019 14.4785)" fill="#D9D9D9"/>
<rect width="17.59" height="0.4" transform="matrix(0.568831 0.822454 -0.900835 0.434162 5.10254 0)" fill="#D9D9D9"/>
<rect width="17.59" height="0.4" transform="matrix(-0.568831 0.822454 0.900835 0.434162 14.936 14.4785)" fill="#D9D9D9"/>
<rect width="17.59" height="0.4" transform="matrix(0.568831 0.822454 -0.900835 0.434162 6.13672 0)" fill="#D9D9D9"/>
<rect width="17.59" height="0.4" transform="matrix(-0.568831 0.822454 0.900835 0.434162 15.9702 14.4785)" fill="#D9D9D9"/>
<rect width="17.59" height="0.4" transform="matrix(0.568831 0.822454 -0.900835 0.434162 7.1709 0)" fill="#D9D9D9"/>
<rect width="17.59" height="0.4" transform="matrix(-0.568831 0.822454 0.900835 0.434162 17.0044 14.4785)" fill="#D9D9D9"/>
<rect width="17.59" height="0.4" transform="matrix(0.568831 0.822454 -0.900835 0.434162 8.20557 0)" fill="#D9D9D9"/>
<rect width="17.59" height="0.4" transform="matrix(-0.568831 0.822454 0.900835 0.434162 18.0391 14.4785)" fill="#D9D9D9"/>
<rect width="17.59" height="0.4" transform="matrix(0.568831 0.822454 -0.900835 0.434162 9.23975 0)" fill="#D9D9D9"/>
<rect width="17.59" height="0.4" transform="matrix(-0.568831 0.822454 0.900835 0.434162 19.0732 14.4785)" fill="#D9D9D9"/>
<rect width="17.59" height="0.4" transform="matrix(0.568831 0.822454 -0.900835 0.434162 10.2744 0)" fill="#D9D9D9"/>
<rect width="17.59" height="0.4" transform="matrix(-0.568831 0.822454 0.900835 0.434162 20.1079 14.4785)" fill="#D9D9D9"/>
</mask>
<g mask="url(#mask0_12_155)">
<rect x="-4.65283" y="-1.98706" width="41.6823" height="34.1793" fill="url(#paint0_linear_12_155)"/>
</g>
<path d="M104.317 14.9577L110.529 22.3822H106.722L102.414 17.2374L98.1057 22.3822H94.2993L100.511 14.9577L94.4666 7.74243H98.273L102.414 12.6781L106.555 7.74243H110.361L104.317 14.9577Z" fill="var(--additional-color)"/>
<path d="M65.8996 17.5083V22.3813H62.9717V11.9243H65.5859L65.8787 13.6392C66.7989 12.3844 70.5598 11.6106 72.1911 11.6106C75.3282 11.6106 77.5242 14.0157 77.5242 17.5083V22.3813H74.5962V17.5083C74.5962 15.6261 73.2577 14.3085 71.3964 14.3085C69.535 14.3085 65.8996 15.6261 65.8996 17.5083Z" fill="var(--additional-color)"/>
<path d="M81.7702 17.5083V22.3813H78.8423V11.9243H81.4565L81.7493 13.6392C82.6695 12.3844 86.4304 11.6106 88.0617 11.6106C91.1988 11.6106 93.3948 14.0157 93.3948 17.5083V22.3813H90.4668V17.5083C90.4668 15.6261 89.1283 14.3085 87.267 14.3085C85.4056 14.3085 81.7702 15.6261 81.7702 17.5083Z" fill="var(--additional-color)"/>
<path d="M57.401 8.76635C57.401 7.99253 57.9448 7.42786 58.7814 7.42786C59.5761 7.42786 60.1198 7.99253 60.1198 8.76635C60.1198 9.60291 59.5761 10.1258 58.7814 10.1258C57.9448 10.1258 57.401 9.60291 57.401 8.76635ZM60.2453 22.3813H57.3174V11.9244H60.2453V22.3813Z" fill="var(--additional-color)"/>
<path d="M41.874 22.3822V7.74243H49.3612C52.4983 7.74243 55.1335 9.81291 55.1335 12.9291C55.1335 15.878 52.3519 18.1157 49.3612 18.1157H44.802V22.3822H41.874ZM52.2055 12.9291C52.2055 11.486 50.9925 10.4403 49.3612 10.4403H44.802V15.376H49.3612C50.9716 15.376 52.2055 14.3094 52.2055 12.9291Z" fill="var(--additional-color)"/>
<defs>
<linearGradient id="paint0_linear_12_155" x1="2.84998" y1="-1.98706" x2="24.2013" y2="43.3939" gradientUnits="userSpaceOnUse">
<stop stop-color="#6FF0D6"/>
<stop offset="1" stop-color="#8751DE"/>
</linearGradient>
</defs>
</svg>
