<svg width="111" height="30" viewBox="0 0 111 30" fill="none" xmlns="http://www.w3.org/2000/svg">
<mask id="mask0_636_4405" style="mask-type:alpha" maskUnits="userSpaceOnUse" x="0" y="-1" width="32" height="31">
<rect width="17.59" height="0.4" transform="matrix(-0.568831 0.822454 0.900835 0.434162 30.8276 -0.00634766)" fill="#D9D9D9"/>
<rect width="17.59" height="0.4" transform="matrix(0.568831 0.822454 -0.900835 0.434162 20.9941 14.4722)" fill="#D9D9D9"/>
<rect width="17.59" height="0.4" transform="matrix(-0.568831 0.822454 0.900835 0.434162 29.9365 -0.00634766)" fill="#D9D9D9"/>
<rect width="17.59" height="0.4" transform="matrix(0.568831 0.822454 -0.900835 0.434162 20.103 14.4722)" fill="#D9D9D9"/>
<rect width="17.59" height="0.4" transform="matrix(-0.568831 0.822454 0.900835 0.434162 29.0454 -0.00634766)" fill="#D9D9D9"/>
<rect width="17.59" height="0.4" transform="matrix(0.568831 0.822454 -0.900835 0.434162 19.2119 14.4722)" fill="#D9D9D9"/>
<rect width="17.59" height="0.4" transform="matrix(-0.568831 0.822454 0.900835 0.434162 28.1543 -0.00634766)" fill="#D9D9D9"/>
<rect width="17.59" height="0.4" transform="matrix(0.568831 0.822454 -0.900835 0.434162 18.3206 14.4722)" fill="#D9D9D9"/>
<rect width="17.59" height="0.4" transform="matrix(-0.568831 0.822454 0.900835 0.434162 27.1199 -0.00634766)" fill="#D9D9D9"/>
<rect width="17.59" height="0.4" transform="matrix(0.568831 0.822454 -0.900835 0.434162 17.2864 14.4722)" fill="#D9D9D9"/>
<rect width="17.59" height="0.4" transform="matrix(-0.568831 0.822454 0.900835 0.434162 26.0854 -0.00634766)" fill="#D9D9D9"/>
<rect width="17.59" height="0.4" transform="matrix(0.568831 0.822454 -0.900835 0.434162 16.252 14.4722)" fill="#D9D9D9"/>
<rect width="17.59" height="0.4" transform="matrix(-0.568831 0.822454 0.900835 0.434162 25.0513 -0.00634766)" fill="#D9D9D9"/>
<rect width="17.59" height="0.4" transform="matrix(0.568831 0.822454 -0.900835 0.434162 15.2175 14.4722)" fill="#D9D9D9"/>
<rect width="17.59" height="0.4" transform="matrix(-0.568831 0.822454 0.900835 0.434162 24.0168 -0.00634766)" fill="#D9D9D9"/>
<rect width="17.59" height="0.4" transform="matrix(0.568831 0.822454 -0.900835 0.434162 14.1833 14.4722)" fill="#D9D9D9"/>
<rect width="17.59" height="0.4" transform="matrix(-0.568831 0.822454 0.900835 0.434162 22.9824 -0.00634766)" fill="#D9D9D9"/>
<rect width="17.59" height="0.4" transform="matrix(0.568831 0.822454 -0.900835 0.434162 13.1489 14.4722)" fill="#D9D9D9"/>
<rect width="17.59" height="0.4" transform="matrix(-0.568831 0.822454 0.900835 0.434162 21.9482 -0.00634766)" fill="#D9D9D9"/>
<rect width="17.59" height="0.4" transform="matrix(0.568831 0.822454 -0.900835 0.434162 12.1145 14.4722)" fill="#D9D9D9"/>
<rect width="17.59" height="0.4" transform="matrix(-0.568831 0.822454 0.900835 0.434162 20.9138 -0.00634766)" fill="#D9D9D9"/>
<rect width="17.59" height="0.4" transform="matrix(0.568831 0.822454 -0.900835 0.434162 11.0803 14.4722)" fill="#D9D9D9"/>
<rect width="17.59" height="0.4" transform="matrix(0.568831 0.822454 -0.900835 0.434162 0.832031 -0.00634766)" fill="#D9D9D9"/>
<rect width="17.59" height="0.4" transform="matrix(-0.568831 0.822454 0.900835 0.434162 10.6655 14.4722)" fill="#D9D9D9"/>
<rect width="17.59" height="0.4" transform="matrix(0.568831 0.822454 -0.900835 0.434162 1.72314 -0.00634766)" fill="#D9D9D9"/>
<rect width="17.59" height="0.4" transform="matrix(-0.568831 0.822454 0.900835 0.434162 11.5566 14.4722)" fill="#D9D9D9"/>
<rect width="17.59" height="0.4" transform="matrix(0.568831 0.822454 -0.900835 0.434162 2.61426 -0.00634766)" fill="#D9D9D9"/>
<rect width="17.59" height="0.4" transform="matrix(-0.568831 0.822454 0.900835 0.434162 12.4478 14.4722)" fill="#D9D9D9"/>
<rect width="17.59" height="0.4" transform="matrix(0.568831 0.822454 -0.900835 0.434162 3.50537 -0.00634766)" fill="#D9D9D9"/>
<rect width="17.59" height="0.4" transform="matrix(-0.568831 0.822454 0.900835 0.434162 13.3391 14.4722)" fill="#D9D9D9"/>
<rect width="17.59" height="0.4" transform="matrix(0.568831 0.822454 -0.900835 0.434162 4.53979 -0.00634766)" fill="#D9D9D9"/>
<rect width="17.59" height="0.4" transform="matrix(-0.568831 0.822454 0.900835 0.434162 14.3733 14.4722)" fill="#D9D9D9"/>
<rect width="17.59" height="0.4" transform="matrix(0.568831 0.822454 -0.900835 0.434162 5.57422 -0.00634766)" fill="#D9D9D9"/>
<rect width="17.59" height="0.4" transform="matrix(-0.568831 0.822454 0.900835 0.434162 15.4077 14.4722)" fill="#D9D9D9"/>
<rect width="17.59" height="0.4" transform="matrix(0.568831 0.822454 -0.900835 0.434162 6.6084 -0.00634766)" fill="#D9D9D9"/>
<rect width="17.59" height="0.4" transform="matrix(-0.568831 0.822454 0.900835 0.434162 16.4421 14.4722)" fill="#D9D9D9"/>
<rect width="17.59" height="0.4" transform="matrix(0.568831 0.822454 -0.900835 0.434162 7.64282 -0.00634766)" fill="#D9D9D9"/>
<rect width="17.59" height="0.4" transform="matrix(-0.568831 0.822454 0.900835 0.434162 17.4763 14.4722)" fill="#D9D9D9"/>
<rect width="17.59" height="0.4" transform="matrix(0.568831 0.822454 -0.900835 0.434162 8.67725 -0.00634766)" fill="#D9D9D9"/>
<rect width="17.59" height="0.4" transform="matrix(-0.568831 0.822454 0.900835 0.434162 18.5107 14.4722)" fill="#D9D9D9"/>
<rect width="17.59" height="0.4" transform="matrix(0.568831 0.822454 -0.900835 0.434162 9.71143 -0.00634766)" fill="#D9D9D9"/>
<rect width="17.59" height="0.4" transform="matrix(-0.568831 0.822454 0.900835 0.434162 19.5452 14.4722)" fill="#D9D9D9"/>
<rect width="17.59" height="0.4" transform="matrix(0.568831 0.822454 -0.900835 0.434162 10.7458 -0.00634766)" fill="#D9D9D9"/>
<rect width="17.59" height="0.4" transform="matrix(-0.568831 0.822454 0.900835 0.434162 20.5793 14.4722)" fill="#D9D9D9"/>
</mask>
<g mask="url(#mask0_636_4405)">
<mask id="mask1_636_4405" style="mask-type:alpha" maskUnits="userSpaceOnUse" x="1" y="1" width="31" height="30">
<rect width="17.59" height="0.4" transform="matrix(-0.568831 0.822454 0.900835 0.434162 31.356 1)" fill="black"/>
<rect width="17.59" height="0.4" transform="matrix(0.568831 0.822454 -0.900835 0.434162 21.5225 15.4785)" fill="black"/>
<rect width="17.59" height="0.4" transform="matrix(-0.568831 0.822454 0.900835 0.434162 30.4648 1)" fill="black"/>
<rect width="17.59" height="0.4" transform="matrix(0.568831 0.822454 -0.900835 0.434162 20.6313 15.4785)" fill="black"/>
<rect width="17.59" height="0.4" transform="matrix(-0.568831 0.822454 0.900835 0.434162 29.5737 1)" fill="black"/>
<rect width="17.59" height="0.4" transform="matrix(0.568831 0.822454 -0.900835 0.434162 19.7402 15.4785)" fill="black"/>
<rect width="17.59" height="0.4" transform="matrix(-0.568831 0.822454 0.900835 0.434162 28.6826 1)" fill="black"/>
<rect width="17.59" height="0.4" transform="matrix(0.568831 0.822454 -0.900835 0.434162 18.8489 15.4785)" fill="black"/>
<rect width="17.59" height="0.4" transform="matrix(-0.568831 0.822454 0.900835 0.434162 27.6482 1)" fill="black"/>
<rect width="17.59" height="0.4" transform="matrix(0.568831 0.822454 -0.900835 0.434162 17.8147 15.4785)" fill="black"/>
<rect width="17.59" height="0.4" transform="matrix(-0.568831 0.822454 0.900835 0.434162 26.6138 1)" fill="black"/>
<rect width="17.59" height="0.4" transform="matrix(0.568831 0.822454 -0.900835 0.434162 16.7803 15.4785)" fill="black"/>
<rect width="17.59" height="0.4" transform="matrix(-0.568831 0.822454 0.900835 0.434162 25.5796 1)" fill="black"/>
<rect width="17.59" height="0.4" transform="matrix(0.568831 0.822454 -0.900835 0.434162 15.7458 15.4785)" fill="black"/>
<rect width="17.59" height="0.4" transform="matrix(-0.568831 0.822454 0.900835 0.434162 24.5452 1)" fill="black"/>
<rect width="17.59" height="0.4" transform="matrix(0.568831 0.822454 -0.900835 0.434162 14.7117 15.4785)" fill="black"/>
<rect width="17.59" height="0.4" transform="matrix(-0.568831 0.822454 0.900835 0.434162 23.5107 1)" fill="black"/>
<rect width="17.59" height="0.4" transform="matrix(0.568831 0.822454 -0.900835 0.434162 13.6772 15.4785)" fill="black"/>
<rect width="17.59" height="0.4" transform="matrix(-0.568831 0.822454 0.900835 0.434162 22.4766 1)" fill="black"/>
<rect width="17.59" height="0.4" transform="matrix(0.568831 0.822454 -0.900835 0.434162 12.6428 15.4785)" fill="black"/>
<rect width="17.59" height="0.4" transform="matrix(-0.568831 0.822454 0.900835 0.434162 21.4421 1)" fill="black"/>
<rect width="17.59" height="0.4" transform="matrix(0.568831 0.822454 -0.900835 0.434162 11.6086 15.4785)" fill="black"/>
<rect width="17.59" height="0.4" transform="matrix(0.568831 0.822454 -0.900835 0.434162 1.36035 1)" fill="black"/>
<rect width="17.59" height="0.4" transform="matrix(-0.568831 0.822454 0.900835 0.434162 11.1938 15.4785)" fill="black"/>
<rect width="17.59" height="0.4" transform="matrix(0.568831 0.822454 -0.900835 0.434162 2.25146 1)" fill="black"/>
<rect width="17.59" height="0.4" transform="matrix(-0.568831 0.822454 0.900835 0.434162 12.085 15.4785)" fill="black"/>
<rect width="17.59" height="0.4" transform="matrix(0.568831 0.822454 -0.900835 0.434162 3.14258 1)" fill="black"/>
<rect width="17.59" height="0.4" transform="matrix(-0.568831 0.822454 0.900835 0.434162 12.9761 15.4785)" fill="black"/>
<rect width="17.59" height="0.4" transform="matrix(0.568831 0.822454 -0.900835 0.434162 4.03369 1)" fill="black"/>
<rect width="17.59" height="0.4" transform="matrix(-0.568831 0.822454 0.900835 0.434162 13.8674 15.4785)" fill="black"/>
<rect width="17.59" height="0.4" transform="matrix(0.568831 0.822454 -0.900835 0.434162 5.06812 1)" fill="black"/>
<rect width="17.59" height="0.4" transform="matrix(-0.568831 0.822454 0.900835 0.434162 14.9016 15.4785)" fill="black"/>
<rect width="17.59" height="0.4" transform="matrix(0.568831 0.822454 -0.900835 0.434162 6.10254 1)" fill="black"/>
<rect width="17.59" height="0.4" transform="matrix(-0.568831 0.822454 0.900835 0.434162 15.936 15.4785)" fill="black"/>
<rect width="17.59" height="0.4" transform="matrix(0.568831 0.822454 -0.900835 0.434162 7.13672 1)" fill="black"/>
<rect width="17.59" height="0.4" transform="matrix(-0.568831 0.822454 0.900835 0.434162 16.9705 15.4785)" fill="black"/>
<rect width="17.59" height="0.4" transform="matrix(0.568831 0.822454 -0.900835 0.434162 8.17114 1)" fill="black"/>
<rect width="17.59" height="0.4" transform="matrix(-0.568831 0.822454 0.900835 0.434162 18.0046 15.4785)" fill="black"/>
<rect width="17.59" height="0.4" transform="matrix(0.568831 0.822454 -0.900835 0.434162 9.20557 1)" fill="black"/>
<rect width="17.59" height="0.4" transform="matrix(-0.568831 0.822454 0.900835 0.434162 19.0391 15.4785)" fill="black"/>
<rect width="17.59" height="0.4" transform="matrix(0.568831 0.822454 -0.900835 0.434162 10.2397 1)" fill="black"/>
<rect width="17.59" height="0.4" transform="matrix(-0.568831 0.822454 0.900835 0.434162 20.0735 15.4785)" fill="black"/>
<rect width="17.59" height="0.4" transform="matrix(0.568831 0.822454 -0.900835 0.434162 11.2742 1)" fill="black"/>
<rect width="17.59" height="0.4" transform="matrix(-0.568831 0.822454 0.900835 0.434162 21.1077 15.4785)" fill="black"/>
</mask>
<g mask="url(#mask1_636_4405)">
<rect x="-19" y="-14.6411" width="76.9121" height="63.0207" transform="rotate(-8.51739 -19 -14.6411)" fill="url(#paint0_linear_636_4405)"/>
<rect x="-19" y="-14.6411" width="76.9121" height="63.0207" transform="rotate(-8.51739 -19 -14.6411)" fill="url(#paint1_linear_636_4405)" style="mix-blend-mode:overlay"/>
<rect x="-19" y="-14.6411" width="76.9121" height="63.0207" transform="rotate(-8.51739 -19 -14.6411)" fill="#C1A875" style="mix-blend-mode:color"/>
</g>
</g>
<mask id="mask2_636_4405" style="mask-type:alpha" maskUnits="userSpaceOnUse" x="42" y="7" width="69" height="15">
<path d="M104.443 14.5298L110.655 21.9542H106.848L102.54 16.8094L98.2316 21.9542H94.4253L100.637 14.5298L94.5926 7.31445H98.3989L102.54 12.2501L106.681 7.31445H110.487L104.443 14.5298Z" fill="black"/>
<path d="M66.0256 17.0803V21.9533H63.0977V11.4963H65.7119L66.0047 13.2113C66.9249 11.9564 70.6858 11.1826 72.3171 11.1826C75.4542 11.1826 77.6501 13.5877 77.6501 17.0803V21.9533H74.7222V17.0803C74.7222 15.1981 73.3837 13.8805 71.5223 13.8805C69.661 13.8805 66.0256 15.1981 66.0256 17.0803Z" fill="black"/>
<path d="M81.8962 17.0803V21.9533H78.9683V11.4963H81.5825L81.8753 13.2113C82.7955 11.9564 86.5564 11.1826 88.1877 11.1826C91.3248 11.1826 93.5207 13.5877 93.5207 17.0803V21.9533H90.5928V17.0803C90.5928 15.1981 89.2543 13.8805 87.393 13.8805C85.5316 13.8805 81.8962 15.1981 81.8962 17.0803Z" fill="black"/>
<path d="M57.527 8.33849C57.527 7.56468 58.0708 7 58.9073 7C59.7021 7 60.2458 7.56468 60.2458 8.33849C60.2458 9.17505 59.7021 9.6979 58.9073 9.6979C58.0708 9.6979 57.527 9.17505 57.527 8.33849ZM60.3713 21.9535H57.4434V11.4965H60.3713V21.9535Z" fill="black"/>
<path d="M42 21.9542V7.31445H49.4872C52.6243 7.31445 55.2594 9.38493 55.2594 12.5011C55.2594 15.45 52.4779 17.6878 49.4872 17.6878H44.928V21.9542H42ZM52.3315 12.5011C52.3315 11.058 51.1185 10.0124 49.4872 10.0124H44.928V14.948H49.4872C51.0976 14.948 52.3315 13.8814 52.3315 12.5011Z" fill="black"/>
</mask>
<g mask="url(#mask2_636_4405)">
<rect x="34" y="-19.2593" width="126.534" height="72.0061" transform="rotate(-8.51739 34 -19.2593)" fill="url(#paint2_linear_636_4405)"/>
<rect x="34" y="-19.2593" width="126.534" height="72.0061" transform="rotate(-8.51739 34 -19.2593)" fill="url(#paint3_linear_636_4405)" style="mix-blend-mode:overlay"/>
<rect x="34" y="-19.2593" width="126.534" height="72.0061" transform="rotate(-8.51739 34 -19.2593)" fill="#C1A875" style="mix-blend-mode:color"/>
</g>
<defs>
<linearGradient id="paint0_linear_636_4405" x1="-14.7357" y1="24.7745" x2="55.2136" y2="4.77672" gradientUnits="userSpaceOnUse">
<stop stop-color="#576265"/>
<stop offset="0.172016" stop-color="#9EA1A1"/>
<stop offset="0.45741" stop-color="#848B8A"/>
<stop offset="0.553567" stop-color="#576265"/>
<stop offset="0.823421" stop-color="#576265"/>
<stop offset="0.925155" stop-color="#757A7B"/>
<stop offset="1" stop-color="#576265"/>
</linearGradient>
<linearGradient id="paint1_linear_636_4405" x1="11.7028" y1="16.8693" x2="0.950852" y2="-17.3754" gradientUnits="userSpaceOnUse">
<stop stop-color="white" stop-opacity="0"/>
<stop offset="1" stop-color="white"/>
</linearGradient>
<linearGradient id="paint2_linear_636_4405" x1="41.0155" y1="25.7761" x2="147.462" y2="-18.0422" gradientUnits="userSpaceOnUse">
<stop stop-color="#576265"/>
<stop offset="0.172016" stop-color="#9EA1A1"/>
<stop offset="0.45741" stop-color="#848B8A"/>
<stop offset="0.553567" stop-color="#576265"/>
<stop offset="0.823421" stop-color="#576265"/>
<stop offset="0.925155" stop-color="#757A7B"/>
<stop offset="1" stop-color="#576265"/>
</linearGradient>
<linearGradient id="paint3_linear_636_4405" x1="84.5114" y1="16.7438" x2="75.5638" y2="-24.2895" gradientUnits="userSpaceOnUse">
<stop stop-color="white" stop-opacity="0"/>
<stop offset="1" stop-color="white"/>
</linearGradient>
</defs>
</svg>
