<svg width="111" height="30" viewBox="0 0 111 30" fill="none" xmlns="http://www.w3.org/2000/svg">
<mask id="mask0_502_3531" style="mask-type:alpha" maskUnits="userSpaceOnUse" x="0" y="-1" width="31" height="31">
<rect width="17.59" height="0.4" transform="matrix(-0.568831 0.822454 0.900835 0.434162 30.3561 -0.00634766)" fill="#D9D9D9"/>
<rect width="17.59" height="0.4" transform="matrix(0.568831 0.822454 -0.900835 0.434162 20.5226 14.4722)" fill="#D9D9D9"/>
<rect width="17.59" height="0.4" transform="matrix(-0.568831 0.822454 0.900835 0.434162 29.4648 -0.00634766)" fill="#D9D9D9"/>
<rect width="17.59" height="0.4" transform="matrix(0.568831 0.822454 -0.900835 0.434162 19.6313 14.4722)" fill="#D9D9D9"/>
<rect width="17.59" height="0.4" transform="matrix(-0.568831 0.822454 0.900835 0.434162 28.5738 -0.00634766)" fill="#D9D9D9"/>
<rect width="17.59" height="0.4" transform="matrix(0.568831 0.822454 -0.900835 0.434162 18.7403 14.4722)" fill="#D9D9D9"/>
<rect width="17.59" height="0.4" transform="matrix(-0.568831 0.822454 0.900835 0.434162 27.6826 -0.00634766)" fill="#D9D9D9"/>
<rect width="17.59" height="0.4" transform="matrix(0.568831 0.822454 -0.900835 0.434162 17.849 14.4722)" fill="#D9D9D9"/>
<rect width="17.59" height="0.4" transform="matrix(-0.568831 0.822454 0.900835 0.434162 26.6482 -0.00634766)" fill="#D9D9D9"/>
<rect width="17.59" height="0.4" transform="matrix(0.568831 0.822454 -0.900835 0.434162 16.8147 14.4722)" fill="#D9D9D9"/>
<rect width="17.59" height="0.4" transform="matrix(-0.568831 0.822454 0.900835 0.434162 25.6139 -0.00634766)" fill="#D9D9D9"/>
<rect width="17.59" height="0.4" transform="matrix(0.568831 0.822454 -0.900835 0.434162 15.7804 14.4722)" fill="#D9D9D9"/>
<rect width="17.59" height="0.4" transform="matrix(-0.568831 0.822454 0.900835 0.434162 24.5796 -0.00634766)" fill="#D9D9D9"/>
<rect width="17.59" height="0.4" transform="matrix(0.568831 0.822454 -0.900835 0.434162 14.746 14.4722)" fill="#D9D9D9"/>
<rect width="17.59" height="0.4" transform="matrix(-0.568831 0.822454 0.900835 0.434162 23.5453 -0.00634766)" fill="#D9D9D9"/>
<rect width="17.59" height="0.4" transform="matrix(0.568831 0.822454 -0.900835 0.434162 13.7118 14.4722)" fill="#D9D9D9"/>
<rect width="17.59" height="0.4" transform="matrix(-0.568831 0.822454 0.900835 0.434162 22.5108 -0.00634766)" fill="#D9D9D9"/>
<rect width="17.59" height="0.4" transform="matrix(0.568831 0.822454 -0.900835 0.434162 12.6774 14.4722)" fill="#D9D9D9"/>
<rect width="17.59" height="0.4" transform="matrix(-0.568831 0.822454 0.900835 0.434162 21.4765 -0.00634766)" fill="#D9D9D9"/>
<rect width="17.59" height="0.4" transform="matrix(0.568831 0.822454 -0.900835 0.434162 11.6429 14.4722)" fill="#D9D9D9"/>
<rect width="17.59" height="0.4" transform="matrix(-0.568831 0.822454 0.900835 0.434162 20.4421 -0.00634766)" fill="#D9D9D9"/>
<rect width="17.59" height="0.4" transform="matrix(0.568831 0.822454 -0.900835 0.434162 10.6086 14.4722)" fill="#D9D9D9"/>
<rect width="17.59" height="0.4" transform="matrix(0.568831 0.822454 -0.900835 0.434162 0.360336 -0.00634766)" fill="#D9D9D9"/>
<rect width="17.59" height="0.4" transform="matrix(-0.568831 0.822454 0.900835 0.434162 10.1938 14.4722)" fill="#D9D9D9"/>
<rect width="17.59" height="0.4" transform="matrix(0.568831 0.822454 -0.900835 0.434162 1.25157 -0.00634766)" fill="#D9D9D9"/>
<rect width="17.59" height="0.4" transform="matrix(-0.568831 0.822454 0.900835 0.434162 11.0851 14.4722)" fill="#D9D9D9"/>
<rect width="17.59" height="0.4" transform="matrix(0.568831 0.822454 -0.900835 0.434162 2.14256 -0.00634766)" fill="#D9D9D9"/>
<rect width="17.59" height="0.4" transform="matrix(-0.568831 0.822454 0.900835 0.434162 11.9761 14.4722)" fill="#D9D9D9"/>
<rect width="17.59" height="0.4" transform="matrix(0.568831 0.822454 -0.900835 0.434162 3.0338 -0.00634766)" fill="#D9D9D9"/>
<rect width="17.59" height="0.4" transform="matrix(-0.568831 0.822454 0.900835 0.434162 12.8674 14.4722)" fill="#D9D9D9"/>
<rect width="17.59" height="0.4" transform="matrix(0.568831 0.822454 -0.900835 0.434162 4.06822 -0.00634766)" fill="#D9D9D9"/>
<rect width="17.59" height="0.4" transform="matrix(-0.568831 0.822454 0.900835 0.434162 13.9017 14.4722)" fill="#D9D9D9"/>
<rect width="17.59" height="0.4" transform="matrix(0.568831 0.822454 -0.900835 0.434162 5.10252 -0.00634766)" fill="#D9D9D9"/>
<rect width="17.59" height="0.4" transform="matrix(-0.568831 0.822454 0.900835 0.434162 14.936 14.4722)" fill="#D9D9D9"/>
<rect width="17.59" height="0.4" transform="matrix(0.568831 0.822454 -0.900835 0.434162 6.13683 -0.00634766)" fill="#D9D9D9"/>
<rect width="17.59" height="0.4" transform="matrix(-0.568831 0.822454 0.900835 0.434162 15.9704 14.4722)" fill="#D9D9D9"/>
<rect width="17.59" height="0.4" transform="matrix(0.568831 0.822454 -0.900835 0.434162 7.17113 -0.00634766)" fill="#D9D9D9"/>
<rect width="17.59" height="0.4" transform="matrix(-0.568831 0.822454 0.900835 0.434162 17.0046 14.4722)" fill="#D9D9D9"/>
<rect width="17.59" height="0.4" transform="matrix(0.568831 0.822454 -0.900835 0.434162 8.20555 -0.00634766)" fill="#D9D9D9"/>
<rect width="17.59" height="0.4" transform="matrix(-0.568831 0.822454 0.900835 0.434162 18.039 14.4722)" fill="#D9D9D9"/>
<rect width="17.59" height="0.4" transform="matrix(0.568831 0.822454 -0.900835 0.434162 9.23985 -0.00634766)" fill="#D9D9D9"/>
<rect width="17.59" height="0.4" transform="matrix(-0.568831 0.822454 0.900835 0.434162 19.0735 14.4722)" fill="#D9D9D9"/>
<rect width="17.59" height="0.4" transform="matrix(0.568831 0.822454 -0.900835 0.434162 10.2743 -0.00634766)" fill="#D9D9D9"/>
<rect width="17.59" height="0.4" transform="matrix(-0.568831 0.822454 0.900835 0.434162 20.1078 14.4722)" fill="#D9D9D9"/>
</mask>
<g mask="url(#mask0_502_3531)">
<mask id="mask1_502_3531" style="mask-type:alpha" maskUnits="userSpaceOnUse" x="0" y="1" width="32" height="30">
<rect width="17.59" height="0.4" transform="matrix(-0.568831 0.822454 0.900835 0.434162 30.8844 1)" fill="black"/>
<rect width="17.59" height="0.4" transform="matrix(0.568831 0.822454 -0.900835 0.434162 21.0509 15.4785)" fill="black"/>
<rect width="17.59" height="0.4" transform="matrix(-0.568831 0.822454 0.900835 0.434162 29.9931 1)" fill="black"/>
<rect width="17.59" height="0.4" transform="matrix(0.568831 0.822454 -0.900835 0.434162 20.1597 15.4785)" fill="black"/>
<rect width="17.59" height="0.4" transform="matrix(-0.568831 0.822454 0.900835 0.434162 29.1022 1)" fill="black"/>
<rect width="17.59" height="0.4" transform="matrix(0.568831 0.822454 -0.900835 0.434162 19.2687 15.4785)" fill="black"/>
<rect width="17.59" height="0.4" transform="matrix(-0.568831 0.822454 0.900835 0.434162 28.2109 1)" fill="black"/>
<rect width="17.59" height="0.4" transform="matrix(0.568831 0.822454 -0.900835 0.434162 18.3773 15.4785)" fill="black"/>
<rect width="17.59" height="0.4" transform="matrix(-0.568831 0.822454 0.900835 0.434162 27.1765 1)" fill="black"/>
<rect width="17.59" height="0.4" transform="matrix(0.568831 0.822454 -0.900835 0.434162 17.343 15.4785)" fill="black"/>
<rect width="17.59" height="0.4" transform="matrix(-0.568831 0.822454 0.900835 0.434162 26.1422 1)" fill="black"/>
<rect width="17.59" height="0.4" transform="matrix(0.568831 0.822454 -0.900835 0.434162 16.3087 15.4785)" fill="black"/>
<rect width="17.59" height="0.4" transform="matrix(-0.568831 0.822454 0.900835 0.434162 25.1079 1)" fill="black"/>
<rect width="17.59" height="0.4" transform="matrix(0.568831 0.822454 -0.900835 0.434162 15.2743 15.4785)" fill="black"/>
<rect width="17.59" height="0.4" transform="matrix(-0.568831 0.822454 0.900835 0.434162 24.0736 1)" fill="black"/>
<rect width="17.59" height="0.4" transform="matrix(0.568831 0.822454 -0.900835 0.434162 14.2401 15.4785)" fill="black"/>
<rect width="17.59" height="0.4" transform="matrix(-0.568831 0.822454 0.900835 0.434162 23.0392 1)" fill="black"/>
<rect width="17.59" height="0.4" transform="matrix(0.568831 0.822454 -0.900835 0.434162 13.2057 15.4785)" fill="black"/>
<rect width="17.59" height="0.4" transform="matrix(-0.568831 0.822454 0.900835 0.434162 22.0049 1)" fill="black"/>
<rect width="17.59" height="0.4" transform="matrix(0.568831 0.822454 -0.900835 0.434162 12.1712 15.4785)" fill="black"/>
<rect width="17.59" height="0.4" transform="matrix(-0.568831 0.822454 0.900835 0.434162 20.9704 1)" fill="black"/>
<rect width="17.59" height="0.4" transform="matrix(0.568831 0.822454 -0.900835 0.434162 11.1369 15.4785)" fill="black"/>
<rect width="17.59" height="0.4" transform="matrix(0.568831 0.822454 -0.900835 0.434162 0.888657 1)" fill="black"/>
<rect width="17.59" height="0.4" transform="matrix(-0.568831 0.822454 0.900835 0.434162 10.7222 15.4785)" fill="black"/>
<rect width="17.59" height="0.4" transform="matrix(0.568831 0.822454 -0.900835 0.434162 1.77989 1)" fill="black"/>
<rect width="17.59" height="0.4" transform="matrix(-0.568831 0.822454 0.900835 0.434162 11.6134 15.4785)" fill="black"/>
<rect width="17.59" height="0.4" transform="matrix(0.568831 0.822454 -0.900835 0.434162 2.67088 1)" fill="black"/>
<rect width="17.59" height="0.4" transform="matrix(-0.568831 0.822454 0.900835 0.434162 12.5044 15.4785)" fill="black"/>
<rect width="17.59" height="0.4" transform="matrix(0.568831 0.822454 -0.900835 0.434162 3.56212 1)" fill="black"/>
<rect width="17.59" height="0.4" transform="matrix(-0.568831 0.822454 0.900835 0.434162 13.3957 15.4785)" fill="black"/>
<rect width="17.59" height="0.4" transform="matrix(0.568831 0.822454 -0.900835 0.434162 4.59654 1)" fill="black"/>
<rect width="17.59" height="0.4" transform="matrix(-0.568831 0.822454 0.900835 0.434162 14.43 15.4785)" fill="black"/>
<rect width="17.59" height="0.4" transform="matrix(0.568831 0.822454 -0.900835 0.434162 5.63084 1)" fill="black"/>
<rect width="17.59" height="0.4" transform="matrix(-0.568831 0.822454 0.900835 0.434162 15.4643 15.4785)" fill="black"/>
<rect width="17.59" height="0.4" transform="matrix(0.568831 0.822454 -0.900835 0.434162 6.66515 1)" fill="black"/>
<rect width="17.59" height="0.4" transform="matrix(-0.568831 0.822454 0.900835 0.434162 16.4988 15.4785)" fill="black"/>
<rect width="17.59" height="0.4" transform="matrix(0.568831 0.822454 -0.900835 0.434162 7.69945 1)" fill="black"/>
<rect width="17.59" height="0.4" transform="matrix(-0.568831 0.822454 0.900835 0.434162 17.5329 15.4785)" fill="black"/>
<rect width="17.59" height="0.4" transform="matrix(0.568831 0.822454 -0.900835 0.434162 8.73387 1)" fill="black"/>
<rect width="17.59" height="0.4" transform="matrix(-0.568831 0.822454 0.900835 0.434162 18.5674 15.4785)" fill="black"/>
<rect width="17.59" height="0.4" transform="matrix(0.568831 0.822454 -0.900835 0.434162 9.76817 1)" fill="black"/>
<rect width="17.59" height="0.4" transform="matrix(-0.568831 0.822454 0.900835 0.434162 19.6018 15.4785)" fill="black"/>
<rect width="17.59" height="0.4" transform="matrix(0.568831 0.822454 -0.900835 0.434162 10.8026 1)" fill="black"/>
<rect width="17.59" height="0.4" transform="matrix(-0.568831 0.822454 0.900835 0.434162 20.6361 15.4785)" fill="black"/>
</mask>
<g mask="url(#mask1_502_3531)">
<rect x="-19.4717" y="-14.6411" width="76.9121" height="63.0207" transform="rotate(-8.51739 -19.4717 -14.6411)" fill="url(#paint0_linear_502_3531)"/>
<rect x="-19.4717" y="-14.6411" width="76.9121" height="63.0207" transform="rotate(-8.51739 -19.4717 -14.6411)" fill="url(#paint1_linear_502_3531)" style="mix-blend-mode:overlay"/>
<rect x="-19.4717" y="-14.6411" width="76.9121" height="63.0207" transform="rotate(-8.51739 -19.4717 -14.6411)" fill="#C1A875" style="mix-blend-mode:color"/>
</g>
</g>
<mask id="mask2_502_3531" style="mask-type:alpha" maskUnits="userSpaceOnUse" x="41" y="7" width="70" height="15">
<path d="M103.971 14.5298L110.183 21.9542H106.376L102.068 16.8094L97.7598 21.9542H93.9535L100.165 14.5298L94.1208 7.31445H97.9271L102.068 12.2501L106.209 7.31445H110.015L103.971 14.5298Z" fill="black"/>
<path d="M65.554 17.0803V21.9533H62.6261V11.4963H65.2403L65.5331 13.2113C66.4533 11.9564 70.2142 11.1826 71.8455 11.1826C74.9826 11.1826 77.1786 13.5877 77.1786 17.0803V21.9533H74.2506V17.0803C74.2506 15.1981 72.9121 13.8805 71.0508 13.8805C69.1895 13.8805 65.554 15.1981 65.554 17.0803Z" fill="black"/>
<path d="M81.4246 17.0803V21.9533H78.4966V11.4963H81.1109L81.4037 13.2113C82.3239 11.9564 86.0848 11.1826 87.7161 11.1826C90.8532 11.1826 93.0491 13.5877 93.0491 17.0803V21.9533H90.1212V17.0803C90.1212 15.1981 88.7827 13.8805 86.9213 13.8805C85.06 13.8805 81.4246 15.1981 81.4246 17.0803Z" fill="black"/>
<path d="M57.0552 8.33849C57.0552 7.56468 57.599 7 58.4355 7C59.2303 7 59.774 7.56468 59.774 8.33849C59.774 9.17505 59.2303 9.6979 58.4355 9.6979C57.599 9.6979 57.0552 9.17505 57.0552 8.33849ZM59.8995 21.9535H56.9716V11.4965H59.8995V21.9535Z" fill="black"/>
<path d="M41.5283 21.9542V7.31445H49.0155C52.1526 7.31445 54.7878 9.38493 54.7878 12.5011C54.7878 15.45 52.0062 17.6878 49.0155 17.6878H44.4563V21.9542H41.5283ZM51.8598 12.5011C51.8598 11.058 50.6468 10.0124 49.0155 10.0124H44.4563V14.948H49.0155C50.6259 14.948 51.8598 13.8814 51.8598 12.5011Z" fill="black"/>
</mask>
<g mask="url(#mask2_502_3531)">
<rect x="33.5283" y="-19.2593" width="126.534" height="72.0061" transform="rotate(-8.51739 33.5283 -19.2593)" fill="url(#paint2_linear_502_3531)"/>
<rect x="33.5283" y="-19.2593" width="126.534" height="72.0061" transform="rotate(-8.51739 33.5283 -19.2593)" fill="url(#paint3_linear_502_3531)" style="mix-blend-mode:overlay"/>
<rect x="33.5283" y="-19.2593" width="126.534" height="72.0061" transform="rotate(-8.51739 33.5283 -19.2593)" fill="#C1A875" style="mix-blend-mode:color"/>
</g>
<defs>
<linearGradient id="paint0_linear_502_3531" x1="-15.2074" y1="24.7745" x2="54.7419" y2="4.77672" gradientUnits="userSpaceOnUse">
<stop stop-color="#576265"/>
<stop offset="0.172016" stop-color="#9EA1A1"/>
<stop offset="0.45741" stop-color="#848B8A"/>
<stop offset="0.553567" stop-color="#576265"/>
<stop offset="0.823421" stop-color="#576265"/>
<stop offset="0.925155" stop-color="#757A7B"/>
<stop offset="1" stop-color="#576265"/>
</linearGradient>
<linearGradient id="paint1_linear_502_3531" x1="11.2311" y1="16.8693" x2="0.479172" y2="-17.3754" gradientUnits="userSpaceOnUse">
<stop stop-color="white" stop-opacity="0"/>
<stop offset="1" stop-color="white"/>
</linearGradient>
<linearGradient id="paint2_linear_502_3531" x1="40.5438" y1="25.7761" x2="146.991" y2="-18.0422" gradientUnits="userSpaceOnUse">
<stop stop-color="#576265"/>
<stop offset="0.172016" stop-color="#9EA1A1"/>
<stop offset="0.45741" stop-color="#848B8A"/>
<stop offset="0.553567" stop-color="#576265"/>
<stop offset="0.823421" stop-color="#576265"/>
<stop offset="0.925155" stop-color="#757A7B"/>
<stop offset="1" stop-color="#576265"/>
</linearGradient>
<linearGradient id="paint3_linear_502_3531" x1="84.0398" y1="16.7438" x2="75.0922" y2="-24.2895" gradientUnits="userSpaceOnUse">
<stop stop-color="white" stop-opacity="0"/>
<stop offset="1" stop-color="white"/>
</linearGradient>
</defs>
</svg>
