<svg width="81" height="108" viewBox="0 0 81 108" fill="none" xmlns="http://www.w3.org/2000/svg">
<mask id="mask0_520_2354" style="mask-type:alpha" maskUnits="userSpaceOnUse" x="0" y="0" width="81" height="76">
<rect width="45.9093" height="1.04399" transform="matrix(-0.568831 0.822454 0.900835 0.434162 79.228 0)" fill="#D9D9D9"/>
<rect width="45.9093" height="1.04399" transform="matrix(0.568831 0.822454 -0.900835 0.434162 53.5627 37.7886)" fill="#D9D9D9"/>
<rect width="45.9093" height="1.04399" transform="matrix(-0.568831 0.822454 0.900835 0.434162 76.9023 0)" fill="#D9D9D9"/>
<rect width="45.9093" height="1.04399" transform="matrix(0.568831 0.822454 -0.900835 0.434162 51.2371 37.7886)" fill="#D9D9D9"/>
<rect width="45.9093" height="1.04399" transform="matrix(-0.568831 0.822454 0.900835 0.434162 74.5764 0)" fill="#D9D9D9"/>
<rect width="45.9093" height="1.04399" transform="matrix(0.568831 0.822454 -0.900835 0.434162 48.9114 37.7886)" fill="#D9D9D9"/>
<rect width="45.9093" height="1.04399" transform="matrix(-0.568831 0.822454 0.900835 0.434162 72.2507 0)" fill="#D9D9D9"/>
<rect width="45.9093" height="1.04399" transform="matrix(0.568831 0.822454 -0.900835 0.434162 46.585 37.7886)" fill="#D9D9D9"/>
<rect width="45.9093" height="1.04399" transform="matrix(-0.568831 0.822454 0.900835 0.434162 69.5508 0)" fill="#D9D9D9"/>
<rect width="45.9093" height="1.04399" transform="matrix(0.568831 0.822454 -0.900835 0.434162 43.8857 37.7886)" fill="#D9D9D9"/>
<rect width="45.9093" height="1.04399" transform="matrix(-0.568831 0.822454 0.900835 0.434162 66.8511 0)" fill="#D9D9D9"/>
<rect width="45.9093" height="1.04399" transform="matrix(0.568831 0.822454 -0.900835 0.434162 41.186 37.7886)" fill="#D9D9D9"/>
<rect width="45.9093" height="1.04399" transform="matrix(-0.568831 0.822454 0.900835 0.434162 64.1519 0)" fill="#D9D9D9"/>
<rect width="45.9093" height="1.04399" transform="matrix(0.568831 0.822454 -0.900835 0.434162 38.4861 37.7886)" fill="#D9D9D9"/>
<rect width="45.9093" height="1.04399" transform="matrix(-0.568831 0.822454 0.900835 0.434162 61.4519 0)" fill="#D9D9D9"/>
<rect width="45.9093" height="1.04399" transform="matrix(0.568831 0.822454 -0.900835 0.434162 35.7871 37.7886)" fill="#D9D9D9"/>
<rect width="45.9093" height="1.04399" transform="matrix(-0.568831 0.822454 0.900835 0.434162 58.7522 0)" fill="#D9D9D9"/>
<rect width="45.9093" height="1.04399" transform="matrix(0.568831 0.822454 -0.900835 0.434162 33.0872 37.7886)" fill="#D9D9D9"/>
<rect width="45.9093" height="1.04399" transform="matrix(-0.568831 0.822454 0.900835 0.434162 56.053 0)" fill="#D9D9D9"/>
<rect width="45.9093" height="1.04399" transform="matrix(0.568831 0.822454 -0.900835 0.434162 30.3875 37.7886)" fill="#D9D9D9"/>
<rect width="45.9093" height="1.04399" transform="matrix(-0.568831 0.822454 0.900835 0.434162 53.3533 0)" fill="#D9D9D9"/>
<rect width="45.9093" height="1.04399" transform="matrix(0.568831 0.822454 -0.900835 0.434162 27.6882 37.7886)" fill="#D9D9D9"/>
<rect width="45.9093" height="1.04399" transform="matrix(0.568831 0.822454 -0.900835 0.434162 0.94043 0)" fill="#D9D9D9"/>
<rect width="45.9093" height="1.04399" transform="matrix(-0.568831 0.822454 0.900835 0.434162 26.6055 37.7886)" fill="#D9D9D9"/>
<rect width="45.9093" height="1.04399" transform="matrix(0.568831 0.822454 -0.900835 0.434162 3.26636 0)" fill="#D9D9D9"/>
<rect width="45.9093" height="1.04399" transform="matrix(-0.568831 0.822454 0.900835 0.434162 28.9314 37.7886)" fill="#D9D9D9"/>
<rect width="45.9093" height="1.04399" transform="matrix(0.568831 0.822454 -0.900835 0.434162 5.59204 0)" fill="#D9D9D9"/>
<rect width="45.9093" height="1.04399" transform="matrix(-0.568831 0.822454 0.900835 0.434162 31.2571 37.7886)" fill="#D9D9D9"/>
<rect width="45.9093" height="1.04399" transform="matrix(0.568831 0.822454 -0.900835 0.434162 7.91797 0)" fill="#D9D9D9"/>
<rect width="45.9093" height="1.04399" transform="matrix(-0.568831 0.822454 0.900835 0.434162 33.5835 37.7886)" fill="#D9D9D9"/>
<rect width="45.9093" height="1.04399" transform="matrix(0.568831 0.822454 -0.900835 0.434162 10.6177 0)" fill="#D9D9D9"/>
<rect width="45.9093" height="1.04399" transform="matrix(-0.568831 0.822454 0.900835 0.434162 36.2827 37.7886)" fill="#D9D9D9"/>
<rect width="45.9093" height="1.04399" transform="matrix(0.568831 0.822454 -0.900835 0.434162 13.3174 0)" fill="#D9D9D9"/>
<rect width="45.9093" height="1.04399" transform="matrix(-0.568831 0.822454 0.900835 0.434162 38.9824 37.7886)" fill="#D9D9D9"/>
<rect width="45.9093" height="1.04399" transform="matrix(0.568831 0.822454 -0.900835 0.434162 16.0166 0)" fill="#D9D9D9"/>
<rect width="45.9093" height="1.04399" transform="matrix(-0.568831 0.822454 0.900835 0.434162 41.6824 37.7886)" fill="#D9D9D9"/>
<rect width="45.9093" height="1.04399" transform="matrix(0.568831 0.822454 -0.900835 0.434162 18.7163 0)" fill="#D9D9D9"/>
<rect width="45.9093" height="1.04399" transform="matrix(-0.568831 0.822454 0.900835 0.434162 44.3816 37.7886)" fill="#D9D9D9"/>
<rect width="45.9093" height="1.04399" transform="matrix(0.568831 0.822454 -0.900835 0.434162 21.4163 0)" fill="#D9D9D9"/>
<rect width="45.9093" height="1.04399" transform="matrix(-0.568831 0.822454 0.900835 0.434162 47.0813 37.7886)" fill="#D9D9D9"/>
<rect width="45.9093" height="1.04399" transform="matrix(0.568831 0.822454 -0.900835 0.434162 24.1155 0)" fill="#D9D9D9"/>
<rect width="45.9093" height="1.04399" transform="matrix(-0.568831 0.822454 0.900835 0.434162 49.781 37.7886)" fill="#D9D9D9"/>
<rect width="45.9093" height="1.04399" transform="matrix(0.568831 0.822454 -0.900835 0.434162 26.8152 0)" fill="#D9D9D9"/>
<rect width="45.9093" height="1.04399" transform="matrix(-0.568831 0.822454 0.900835 0.434162 52.4802 37.7886)" fill="#D9D9D9"/>
</mask>
<g mask="url(#mask0_520_2354)">
<mask id="mask1_520_2354" style="mask-type:alpha" maskUnits="userSpaceOnUse" x="1" y="2" width="81" height="77">
<rect width="45.9093" height="1.04399" transform="matrix(-0.568831 0.822454 0.900835 0.434162 80.6069 2.62646)" fill="black"/>
<rect width="45.9093" height="1.04399" transform="matrix(0.568831 0.822454 -0.900835 0.434162 54.9417 40.4146)" fill="black"/>
<rect width="45.9093" height="1.04399" transform="matrix(-0.568831 0.822454 0.900835 0.434162 78.281 2.62646)" fill="black"/>
<rect width="45.9093" height="1.04399" transform="matrix(0.568831 0.822454 -0.900835 0.434162 52.616 40.4146)" fill="black"/>
<rect width="45.9093" height="1.04399" transform="matrix(-0.568831 0.822454 0.900835 0.434162 75.9553 2.62646)" fill="black"/>
<rect width="45.9093" height="1.04399" transform="matrix(0.568831 0.822454 -0.900835 0.434162 50.2903 40.4146)" fill="black"/>
<rect width="45.9093" height="1.04399" transform="matrix(-0.568831 0.822454 0.900835 0.434162 73.6296 2.62646)" fill="black"/>
<rect width="45.9093" height="1.04399" transform="matrix(0.568831 0.822454 -0.900835 0.434162 47.9639 40.4146)" fill="black"/>
<rect width="45.9093" height="1.04399" transform="matrix(-0.568831 0.822454 0.900835 0.434162 70.9297 2.62646)" fill="black"/>
<rect width="45.9093" height="1.04399" transform="matrix(0.568831 0.822454 -0.900835 0.434162 45.2646 40.4146)" fill="black"/>
<rect width="45.9093" height="1.04399" transform="matrix(-0.568831 0.822454 0.900835 0.434162 68.23 2.62646)" fill="black"/>
<rect width="45.9093" height="1.04399" transform="matrix(0.568831 0.822454 -0.900835 0.434162 42.5649 40.4146)" fill="black"/>
<rect width="45.9093" height="1.04399" transform="matrix(-0.568831 0.822454 0.900835 0.434162 65.5308 2.62646)" fill="black"/>
<rect width="45.9093" height="1.04399" transform="matrix(0.568831 0.822454 -0.900835 0.434162 39.865 40.4146)" fill="black"/>
<rect width="45.9093" height="1.04399" transform="matrix(-0.568831 0.822454 0.900835 0.434162 62.8308 2.62646)" fill="black"/>
<rect width="45.9093" height="1.04399" transform="matrix(0.568831 0.822454 -0.900835 0.434162 37.166 40.4146)" fill="black"/>
<rect width="45.9093" height="1.04399" transform="matrix(-0.568831 0.822454 0.900835 0.434162 60.1311 2.62646)" fill="black"/>
<rect width="45.9093" height="1.04399" transform="matrix(0.568831 0.822454 -0.900835 0.434162 34.4661 40.4146)" fill="black"/>
<rect width="45.9093" height="1.04399" transform="matrix(-0.568831 0.822454 0.900835 0.434162 57.4319 2.62646)" fill="black"/>
<rect width="45.9093" height="1.04399" transform="matrix(0.568831 0.822454 -0.900835 0.434162 31.7664 40.4146)" fill="black"/>
<rect width="45.9093" height="1.04399" transform="matrix(-0.568831 0.822454 0.900835 0.434162 54.7322 2.62646)" fill="black"/>
<rect width="45.9093" height="1.04399" transform="matrix(0.568831 0.822454 -0.900835 0.434162 29.0671 40.4146)" fill="black"/>
<rect width="45.9093" height="1.04399" transform="matrix(0.568831 0.822454 -0.900835 0.434162 2.31934 2.62646)" fill="black"/>
<rect width="45.9093" height="1.04399" transform="matrix(-0.568831 0.822454 0.900835 0.434162 27.9844 40.4146)" fill="black"/>
<rect width="45.9093" height="1.04399" transform="matrix(0.568831 0.822454 -0.900835 0.434162 4.64526 2.62646)" fill="black"/>
<rect width="45.9093" height="1.04399" transform="matrix(-0.568831 0.822454 0.900835 0.434162 30.3103 40.4146)" fill="black"/>
<rect width="45.9093" height="1.04399" transform="matrix(0.568831 0.822454 -0.900835 0.434162 6.97095 2.62646)" fill="black"/>
<rect width="45.9093" height="1.04399" transform="matrix(-0.568831 0.822454 0.900835 0.434162 32.636 40.4146)" fill="black"/>
<rect width="45.9093" height="1.04399" transform="matrix(0.568831 0.822454 -0.900835 0.434162 9.29663 2.62646)" fill="black"/>
<rect width="45.9093" height="1.04399" transform="matrix(-0.568831 0.822454 0.900835 0.434162 34.9624 40.4146)" fill="black"/>
<rect width="45.9093" height="1.04399" transform="matrix(0.568831 0.822454 -0.900835 0.434162 11.9966 2.62646)" fill="black"/>
<rect width="45.9093" height="1.04399" transform="matrix(-0.568831 0.822454 0.900835 0.434162 37.6616 40.4146)" fill="black"/>
<rect width="45.9093" height="1.04399" transform="matrix(0.568831 0.822454 -0.900835 0.434162 14.6963 2.62646)" fill="black"/>
<rect width="45.9093" height="1.04399" transform="matrix(-0.568831 0.822454 0.900835 0.434162 40.3613 40.4146)" fill="black"/>
<rect width="45.9093" height="1.04399" transform="matrix(0.568831 0.822454 -0.900835 0.434162 17.3955 2.62646)" fill="black"/>
<rect width="45.9093" height="1.04399" transform="matrix(-0.568831 0.822454 0.900835 0.434162 43.0613 40.4146)" fill="black"/>
<rect width="45.9093" height="1.04399" transform="matrix(0.568831 0.822454 -0.900835 0.434162 20.0952 2.62646)" fill="black"/>
<rect width="45.9093" height="1.04399" transform="matrix(-0.568831 0.822454 0.900835 0.434162 45.7605 40.4146)" fill="black"/>
<rect width="45.9093" height="1.04399" transform="matrix(0.568831 0.822454 -0.900835 0.434162 22.7952 2.62646)" fill="black"/>
<rect width="45.9093" height="1.04399" transform="matrix(-0.568831 0.822454 0.900835 0.434162 48.4602 40.4146)" fill="black"/>
<rect width="45.9093" height="1.04399" transform="matrix(0.568831 0.822454 -0.900835 0.434162 25.4944 2.62646)" fill="black"/>
<rect width="45.9093" height="1.04399" transform="matrix(-0.568831 0.822454 0.900835 0.434162 51.1599 40.4146)" fill="black"/>
<rect width="45.9093" height="1.04399" transform="matrix(0.568831 0.822454 -0.900835 0.434162 28.1941 2.62646)" fill="black"/>
<rect width="45.9093" height="1.04399" transform="matrix(-0.568831 0.822454 0.900835 0.434162 53.8591 40.4146)" fill="black"/>
</mask>
<g mask="url(#mask1_520_2354)">
<rect x="-50.8203" y="-38.1963" width="200.738" height="164.482" transform="rotate(-8.51739 -50.8203 -38.1963)" fill="url(#paint0_linear_520_2354)"/>
<rect x="-50.8203" y="-38.1963" width="200.738" height="164.482" transform="rotate(-8.51739 -50.8203 -38.1963)" fill="url(#paint1_linear_520_2354)" style="mix-blend-mode:overlay"/>
<rect x="-50.8203" y="-38.1963" width="200.738" height="164.482" transform="rotate(-8.51739 -50.8203 -38.1963)" fill="#C1A875" style="mix-blend-mode:color"/>
</g>
</g>
<mask id="mask2_520_2354" style="mask-type:alpha" maskUnits="userSpaceOnUse" x="3" y="91" width="74" height="17">
<path d="M69.9908 99.9888L76.6546 107.954H72.571L67.949 102.434L63.327 107.954H59.2434L65.9072 99.9888L59.4229 92.248H63.5064L67.949 97.5432L72.3915 92.248H76.4751L69.9908 99.9888Z" fill="black"/>
<path d="M28.7755 102.725V107.953H25.6343V96.7345H28.4389L28.753 98.5743C29.7403 97.2281 33.775 96.3979 35.5251 96.3979C38.8907 96.3979 41.2466 98.9782 41.2466 102.725V107.953H38.1054V102.725C38.1054 100.706 36.6694 99.2923 34.6725 99.2923C32.6756 99.2923 28.7755 100.706 28.7755 102.725Z" fill="black"/>
<path d="M45.8018 102.725V107.953H42.6606V96.7345H45.4653L45.7794 98.5743C46.7666 97.2281 50.8014 96.3979 52.5515 96.3979C55.9171 96.3979 58.273 98.9782 58.273 102.725V107.953H55.1318V102.725C55.1318 100.706 53.6958 99.2923 51.6989 99.2923C49.702 99.2923 45.8018 100.706 45.8018 102.725Z" fill="black"/>
<path d="M19.6579 93.3471C19.6579 92.5169 20.2412 91.9111 21.1387 91.9111C21.9913 91.9111 22.5747 92.5169 22.5747 93.3471C22.5747 94.2446 21.9913 94.8055 21.1387 94.8055C20.2412 94.8055 19.6579 94.2446 19.6579 93.3471ZM22.7093 107.954H19.5681V96.7351H22.7093V107.954Z" fill="black"/>
<path d="M3 107.954V92.248H11.0325C14.398 92.248 17.2251 94.4693 17.2251 97.8124C17.2251 100.976 14.241 103.377 11.0325 103.377H6.14119V107.954H3ZM14.0839 97.8124C14.0839 96.2643 12.7826 95.1424 11.0325 95.1424H6.14119V100.438H11.0325C12.7601 100.438 14.0839 99.2933 14.0839 97.8124Z" fill="black"/>
</mask>
<g mask="url(#mask2_520_2354)">
<rect x="-5.58276" y="63.7393" width="135.749" height="77.2502" transform="rotate(-8.51739 -5.58276 63.7393)" fill="url(#paint2_linear_520_2354)"/>
<rect x="-5.58276" y="63.7393" width="135.749" height="77.2502" transform="rotate(-8.51739 -5.58276 63.7393)" fill="url(#paint3_linear_520_2354)" style="mix-blend-mode:overlay"/>
<rect x="-5.58276" y="63.7393" width="135.749" height="77.2502" transform="rotate(-8.51739 -5.58276 63.7393)" fill="#C1A875" style="mix-blend-mode:color"/>
</g>
<defs>
<linearGradient id="paint0_linear_520_2354" x1="-39.6907" y1="64.6771" x2="142.875" y2="12.4836" gradientUnits="userSpaceOnUse">
<stop stop-color="#576265"/>
<stop offset="0.172016" stop-color="#9EA1A1"/>
<stop offset="0.45741" stop-color="#848B8A"/>
<stop offset="0.553567" stop-color="#576265"/>
<stop offset="0.823421" stop-color="#576265"/>
<stop offset="0.925155" stop-color="#757A7B"/>
<stop offset="1" stop-color="#576265"/>
</linearGradient>
<linearGradient id="paint1_linear_520_2354" x1="29.313" y1="44.0447" x2="1.25072" y2="-45.3327" gradientUnits="userSpaceOnUse">
<stop stop-color="white" stop-opacity="0"/>
<stop offset="1" stop-color="white"/>
</linearGradient>
<linearGradient id="paint2_linear_520_2354" x1="1.94364" y1="112.055" x2="116.143" y2="65.045" gradientUnits="userSpaceOnUse">
<stop stop-color="#576265"/>
<stop offset="0.172016" stop-color="#9EA1A1"/>
<stop offset="0.45741" stop-color="#848B8A"/>
<stop offset="0.553567" stop-color="#576265"/>
<stop offset="0.823421" stop-color="#576265"/>
<stop offset="0.925155" stop-color="#757A7B"/>
<stop offset="1" stop-color="#576265"/>
</linearGradient>
<linearGradient id="paint3_linear_520_2354" x1="48.6073" y1="102.364" x2="39.0081" y2="58.3427" gradientUnits="userSpaceOnUse">
<stop stop-color="white" stop-opacity="0"/>
<stop offset="1" stop-color="white"/>
</linearGradient>
</defs>
</svg>
