<svg width="48" height="48" viewBox="0 0 48 48" fill="none" xmlns="http://www.w3.org/2000/svg">
<path d="M48 23.9999C48 26.5508 44.943 28.5657 44.2278 30.8674C43.4865 33.253 44.8004 36.7553 43.4173 38.741C42.0204 40.7465 38.4171 40.516 36.4976 41.9756C34.5972 43.4207 33.7012 47.0805 31.4181 47.8551C29.2151 48.6024 26.4414 46.2162 24 46.2162C21.5587 46.2162 18.7849 48.6024 16.582 47.8551C14.2988 47.0805 13.4028 43.4207 11.5024 41.9756C9.58296 40.516 5.97961 40.7465 4.5827 38.741C3.19962 36.7554 4.51353 33.2531 3.77225 30.8675C3.05697 28.5657 0 26.5508 0 24C0 21.4492 3.05697 19.4342 3.77225 17.1325C4.51359 14.7469 3.19968 11.2446 4.58276 9.25895C5.97967 7.25347 9.58296 7.48391 11.5024 6.02442C13.4029 4.57932 14.2989 0.919519 16.582 0.144932C18.7849 -0.60242 21.5587 1.78379 24 1.78379C26.4414 1.78379 29.2151 -0.60242 31.4181 0.144932C33.7013 0.919519 34.5973 4.57932 36.4977 6.02442C38.4171 7.48397 42.0205 7.25348 43.4174 9.25902C44.8004 11.2447 43.4865 14.747 44.2278 17.1326C44.9431 19.4342 48 21.4491 48 23.9999Z" fill="#EEEEF7"/>
<path fill-rule="evenodd" clip-rule="evenodd" d="M29.2502 30.9995C28.7861 30.9995 28.3411 30.8152 28.0129 30.4871L27.1965 29.6705L26.7756 29.2498L26.4048 28.8787L24.4226 26.8965L24.0002 26.4742L22.9795 27.495L21.5957 28.8787L21.2249 29.2498L20.804 29.6705L20.4988 29.9757L19.9875 30.4871L19.9854 30.4891L19.9807 30.4939C19.8198 30.6538 19.6296 30.7808 19.4202 30.8678C19.3147 30.9116 19.2053 30.9449 19.0938 30.9673C18.981 30.99 18.866 31.0016 18.7502 31.0016C18.5203 31.0016 18.2925 30.9561 18.0803 30.8678C17.8679 30.7795 17.675 30.65 17.5129 30.4871C17.3503 30.3246 17.2212 30.1317 17.1333 29.9194C17.0452 29.7072 17 29.4796 17 29.2498C17 29.0199 17.0452 28.7924 17.1333 28.5801C17.22 28.3708 17.3467 28.1804 17.5059 28.0195L17.5105 28.0149L17.5129 28.0125L18.0212 27.5042L18.3296 27.196L18.7502 26.7753L19.1213 26.4042L20.5171 25.0084L21.5256 23.9998L21.1096 23.5836L19.1213 21.5953L18.7502 21.2242L18.3296 20.8035L17.5129 19.9871C17.1848 19.6588 17.0005 19.2139 17.0005 18.7498C17.0005 18.2856 17.1848 17.8407 17.5129 17.5125C17.7004 17.3251 17.926 17.1846 18.1714 17.0985C18.3557 17.0339 18.5513 17 18.7502 17C19.2144 17 19.6594 17.1843 19.9875 17.5125L20.804 18.329L21.2249 18.7498L21.5957 19.1208L22.5632 20.0884L24.0002 21.5253L26.4048 19.1208L26.7756 18.7498L27.196 18.3295L28.0129 17.5125C28.342 17.184 28.7866 17 29.2502 17C29.7144 17 30.1594 17.1843 30.4875 17.5125C30.8157 17.8407 31 18.2856 31 18.7498C31 19.0201 30.9375 19.2841 30.8203 19.5222C30.7363 19.6927 30.6245 19.8501 30.4875 19.9871L29.6709 20.8037L29.2502 21.2242L28.8792 21.5953L26.4749 23.9998L27.9207 25.4458L28.8792 26.4042L29.2502 26.7753L29.6709 27.196L30.4875 28.0125C30.8157 28.3407 31 28.7856 31 29.2498C31 29.7139 30.8157 30.1588 30.4875 30.4871C30.3374 30.6372 30.1628 30.7573 29.9729 30.8434C29.748 30.9453 29.502 30.9995 29.2502 30.9995Z" fill="#A094B8"/>
</svg>
