<svg width="48" height="48" viewBox="0 0 48 48" fill="none" xmlns="http://www.w3.org/2000/svg">
<mask id="mask0_497_16800" style="mask-type:alpha" maskUnits="userSpaceOnUse" x="0" y="0" width="48" height="48">
<path fill-rule="evenodd" clip-rule="evenodd" d="M29.2504 31C28.7863 31 28.3412 30.8156 28.0131 30.4875L27.1966 29.671L26.7759 29.2502L26.4048 28.8791L24.4226 26.897L24.0004 26.4747L22.9797 27.4954L21.5959 28.8791L21.2248 29.2502L20.8041 29.671L20.4989 29.9762L19.9876 30.4875L19.9855 30.4896L19.9807 30.4944L19.9806 30.4944C19.82 30.6542 19.6296 30.7812 19.4203 30.8683C19.208 30.9566 18.9803 31.002 18.7504 31.002C18.5204 31.002 18.2927 30.9566 18.0804 30.8683C17.868 30.78 17.6752 30.6505 17.5131 30.4875C17.3504 30.3251 17.2214 30.1322 17.1334 29.9199C17.0453 29.7076 17 29.4801 17 29.2502C17 29.0204 17.0453 28.7928 17.1334 28.5805C17.2201 28.3713 17.3467 28.1809 17.506 28.0201L17.5106 28.0155L17.5107 28.0154L17.5107 28.0154L17.5131 28.013L18.0214 27.5046L18.3296 27.1965L18.7504 26.7757L19.1214 26.4046L20.5172 25.0088L21.5259 24.0002L21.1098 23.5841L19.1214 21.5958L18.7504 21.2247L18.3296 20.804L17.5131 19.9875C17.185 19.6593 17.0006 19.2143 17.0006 18.7502C17.0006 18.2862 17.185 17.8411 17.5131 17.513C17.8412 17.1848 18.2863 17.0005 18.7504 17.0005C19.2144 17.0005 19.6595 17.1848 19.9876 17.513L20.8041 18.3295L21.2248 18.7502L21.5959 19.1213L22.5634 20.0888L24.0004 21.5257L26.4048 19.1213L26.7759 18.7502L27.1961 18.3299L28.0131 17.513L28.0139 17.5121L28.014 17.5121L28.0141 17.5119C28.3422 17.1845 28.7868 17.0005 29.2504 17.0005C29.7144 17.0005 30.1595 17.1848 30.4876 17.513C30.8157 17.8411 31.0001 18.2862 31.0001 18.7502C31.0001 19.2143 30.8157 19.6593 30.4876 19.9875L29.6709 20.8041L29.2504 21.2247L28.8793 21.5958L26.4748 24.0002L27.9209 25.4462L28.8793 26.4046L29.2504 26.7757L29.6711 27.1965L30.4876 28.013C30.8157 28.3411 31.0001 28.7862 31.0001 29.2502C31.0001 29.7143 30.8157 30.1593 30.4876 30.4875C30.1595 30.8156 29.7144 31 29.2504 31ZM45.9925 28.0272C46.9881 26.7577 48 25.4675 48 23.9999C48 22.5323 46.9881 21.2421 45.9924 19.9726C45.2576 19.0356 44.5316 18.11 44.2278 17.1326C43.907 16.1003 43.9711 14.8589 44.0349 13.6218C44.1186 11.9999 44.202 10.3854 43.4174 9.25902C42.6225 8.11782 41.1132 7.70062 39.6063 7.28407C38.4649 6.96858 37.3249 6.65346 36.4977 6.02442C35.6842 5.4058 35.0547 4.38134 34.4217 3.3511C33.5759 1.97467 32.7239 0.587935 31.4181 0.144932C30.1775 -0.275946 28.7558 0.296979 27.3145 0.877849C26.1964 1.32843 25.0665 1.78379 24 1.78379C22.9335 1.78379 21.8036 1.32843 20.6856 0.877849C19.2442 0.296979 17.8226 -0.275946 16.582 0.144932C15.2762 0.587931 14.4242 1.97465 13.5785 3.35106C12.9454 4.38132 12.316 5.4058 11.5024 6.02442C10.6752 6.65342 9.53521 6.96854 8.39387 7.28403C6.88693 7.70058 5.37764 8.11778 4.58276 9.25895C3.79817 10.3854 3.88148 11.9998 3.96516 13.6216C4.02899 14.8588 4.09305 16.1002 3.77225 17.1325C3.4685 18.11 2.74245 19.0357 2.00754 19.9727C1.0119 21.2422 0 22.5324 0 24C0 25.4676 1.01189 26.7578 2.00754 28.0273C2.74245 28.9643 3.4685 29.89 3.77225 30.8675C4.09302 31.8998 4.02895 33.1412 3.96511 34.3783C3.88142 36.0001 3.79811 37.6146 4.5827 38.741C5.37756 39.8822 6.88683 40.2994 8.39375 40.7159C9.53512 41.0314 10.6751 41.3465 11.5024 41.9756C12.3159 42.5942 12.9454 43.6187 13.5784 44.6489C14.4241 46.0253 15.2762 47.4121 16.582 47.8551C17.8226 48.2759 19.2442 47.703 20.6856 47.1221C21.8036 46.6716 22.9335 46.2162 24 46.2162C25.0665 46.2162 26.1964 46.6716 27.3145 47.1221C28.7558 47.703 30.1775 48.2759 31.4181 47.8551C32.7238 47.4121 33.5759 46.0254 34.4216 44.6489C35.0546 43.6187 35.6841 42.5942 36.4976 41.9756C37.3249 41.3465 38.4649 41.0314 39.6062 40.7159C41.1132 40.2993 42.6224 39.8821 43.4173 38.741C44.2019 37.6146 44.1186 36.0001 44.0349 34.3783C43.9711 33.1411 43.907 31.8997 44.2278 30.8674C44.5315 29.8899 45.2576 28.9642 45.9925 28.0272Z" fill="black"/>
</mask>
<g mask="url(#mask0_497_16800)">
<rect x="-174.127" y="57.3774" width="376.098" height="206.999" transform="rotate(-31.0211 -174.127 57.3774)" fill="url(#paint0_linear_497_16800)"/>
<rect x="-174.127" y="57.3774" width="376.098" height="206.999" transform="rotate(-31.0211 -174.127 57.3774)" fill="url(#paint1_linear_497_16800)" style="mix-blend-mode:overlay"/>
<rect x="-174.127" y="57.3774" width="376.098" height="206.999" transform="rotate(-31.0211 -174.127 57.3774)" fill="#C5C0B6" style="mix-blend-mode:color"/>
</g>
<defs>
<linearGradient id="paint0_linear_497_16800" x1="-153.275" y1="186.843" x2="159.985" y2="53.5138" gradientUnits="userSpaceOnUse">
<stop stop-color="#576265"/>
<stop offset="0.172016" stop-color="#9EA1A1"/>
<stop offset="0.45741" stop-color="#848B8A"/>
<stop offset="0.553567" stop-color="#576265"/>
<stop offset="0.823421" stop-color="#576265"/>
<stop offset="0.925155" stop-color="#757A7B"/>
<stop offset="1" stop-color="#576265"/>
</linearGradient>
<linearGradient id="paint1_linear_497_16800" x1="-23.9912" y1="160.877" x2="-48.9419" y2="42.57" gradientUnits="userSpaceOnUse">
<stop stop-color="white" stop-opacity="0"/>
<stop offset="1" stop-color="white"/>
</linearGradient>
</defs>
</svg>
