<svg width="48" height="48" viewBox="0 0 48 48" fill="none" xmlns="http://www.w3.org/2000/svg">
<mask id="mask0_497_16766" style="mask-type:alpha" maskUnits="userSpaceOnUse" x="0" y="0" width="48" height="48">
<path fill-rule="evenodd" clip-rule="evenodd" d="M48 23.9999C48 25.4675 46.9881 26.7577 45.9925 28.0272C45.2576 28.9642 44.5315 29.8899 44.2278 30.8674C43.907 31.8997 43.9711 33.1411 44.0349 34.3783V34.3783C44.1186 36.0001 44.2019 37.6146 43.4173 38.741C42.6224 39.8821 41.1132 40.2993 39.6062 40.7159L39.6062 40.7159C38.4649 41.0314 37.3249 41.3465 36.4976 41.9756C35.6841 42.5942 35.0546 43.6187 34.4216 44.6489C33.5759 46.0254 32.7238 47.4121 31.4181 47.8551C30.1775 48.2759 28.7558 47.703 27.3145 47.1221C26.1964 46.6716 25.0665 46.2162 24 46.2162C22.9335 46.2162 21.8036 46.6716 20.6856 47.1221C19.2442 47.703 17.8226 48.2759 16.582 47.8551C15.2762 47.4121 14.4241 46.0253 13.5784 44.6489C12.9454 43.6187 12.3159 42.5942 11.5024 41.9756C10.6751 41.3465 9.53512 41.0314 8.39375 40.7159C6.88683 40.2994 5.37756 39.8822 4.5827 38.741C3.79811 37.6146 3.88142 36.0001 3.96511 34.3783C4.02895 33.1412 4.09302 31.8998 3.77225 30.8675C3.4685 29.89 2.74245 28.9643 2.00754 28.0273C1.01189 26.7578 0 25.4676 0 24C0 22.5324 1.0119 21.2422 2.00754 19.9727C2.74245 19.0357 3.4685 18.11 3.77225 17.1325C4.09305 16.1002 4.02899 14.8588 3.96516 13.6216C3.88148 11.9998 3.79817 10.3854 4.58276 9.25895C5.37764 8.11778 6.88693 7.70058 8.39387 7.28403C9.53521 6.96854 10.6752 6.65342 11.5024 6.02442C12.316 5.4058 12.9454 4.38132 13.5785 3.35106C14.4242 1.97465 15.2762 0.587931 16.582 0.144932C17.8226 -0.275946 19.2442 0.296979 20.6856 0.877849C21.8036 1.32843 22.9335 1.78379 24 1.78379C25.0665 1.78379 26.1964 1.32843 27.3145 0.877849C28.7558 0.296979 30.1775 -0.275946 31.4181 0.144932C32.7239 0.587935 33.5759 1.97467 34.4217 3.3511C35.0547 4.38134 35.6842 5.4058 36.4977 6.02442C37.3249 6.65346 38.4649 6.96858 39.6063 7.28407C41.1132 7.70062 42.6225 8.11782 43.4174 9.25902C44.202 10.3854 44.1186 11.9999 44.0349 13.6218C43.9711 14.8589 43.907 16.1003 44.2278 17.1326C44.5316 18.11 45.2576 19.0356 45.9924 19.9726C46.9881 21.2421 48 22.5323 48 23.9999ZM31.9127 16.8732C31.2186 16.2907 30.1977 16.4042 29.6398 17.115L21.7035 27.2271L18.3621 22.9696C17.8042 22.2588 16.7833 22.1452 16.0892 22.7277C15.4052 23.3018 15.3051 24.3297 15.8553 25.0306L20.4501 30.8852C20.7529 31.271 21.2126 31.5001 21.7035 31.5001C22.1945 31.5001 22.6541 31.271 22.9569 30.8852L32.1466 19.1761C32.6968 18.4751 32.5967 17.4472 31.9127 16.8732Z" fill="black"/>
</mask>
<g mask="url(#mask0_497_16766)">
<rect width="453.213" height="223.351" rx="15" transform="matrix(0.891128 -0.453752 0.0440048 0.999031 -171 65.6465)" fill="url(#paint0_linear_497_16766)"/>
<rect width="453.213" height="223.351" rx="15" transform="matrix(0.891128 -0.453752 0.0440048 0.999031 -171 65.6465)" fill="url(#paint1_linear_497_16766)" style="mix-blend-mode:overlay"/>
<rect width="453.213" height="223.351" rx="15" transform="matrix(0.891128 -0.453752 0.0440048 0.999031 -171 65.6465)" fill="var(--icon-navigation-gold)" style="mix-blend-mode:color"/>
</g>
<defs>
<linearGradient id="paint0_linear_497_16766" x1="25.1277" y1="139.693" x2="388.825" y2="-33.1859" gradientUnits="userSpaceOnUse">
<stop stop-color="#576265"/>
<stop offset="0.172016" stop-color="#9EA1A1"/>
<stop offset="0.45741" stop-color="#848B8A"/>
<stop offset="0.553567" stop-color="#576265"/>
<stop offset="0.823421" stop-color="#576265"/>
<stop offset="0.925155" stop-color="#757A7B"/>
<stop offset="1" stop-color="#576265"/>
</linearGradient>
<linearGradient id="paint1_linear_497_16766" x1="180.92" y1="111.676" x2="156.609" y2="-17.064" gradientUnits="userSpaceOnUse">
<stop stop-color="white" stop-opacity="0"/>
<stop offset="1" stop-color="white"/>
</linearGradient>
</defs>
</svg>
