<svg width="22" height="22" viewBox="0 0 22 22" fill="none" xmlns="http://www.w3.org/2000/svg">
<path d="M22 11C22 12.1691 20.5989 13.0926 20.2711 14.1476C19.9313 15.241 20.5335 16.8462 19.8996 17.7563C19.2593 18.6755 17.6078 18.5698 16.7281 19.2388C15.857 19.9011 15.4464 21.5786 14.4 21.9336C13.3903 22.2761 12.119 21.1824 11 21.1824C9.88106 21.1824 8.60976 22.2761 7.60008 21.9336C6.55361 21.5786 6.14295 19.9011 5.27192 19.2388C4.39219 18.5698 2.74065 18.6755 2.1004 17.7563C1.46649 16.8462 2.0687 15.241 1.72895 14.1476C1.40111 13.0926 0 12.1691 0 11C0 9.83086 1.40111 8.90736 1.72895 7.85241C2.06873 6.75901 1.46652 5.15378 2.10043 4.24369C2.74068 3.32451 4.39219 3.43012 5.27195 2.76119C6.14298 2.09885 6.55364 0.421446 7.60008 0.066427C8.60976 -0.276109 9.88106 0.817571 11 0.817571C12.119 0.817571 13.3903 -0.276109 14.4 0.066427C15.4464 0.421446 15.8571 2.09885 16.7281 2.76119C17.6078 3.43015 19.2594 3.32451 19.8996 4.24372C20.5335 5.15381 19.9313 6.75904 20.2711 7.85243C20.5989 8.90733 22 9.83084 22 11Z" fill="currentColor"/>
<path fill-rule="evenodd" clip-rule="evenodd" d="M16.6536 6.80124C17.0074 7.10124 17.0614 7.6441 16.7743 8.01375L9.92982 16.8253C9.77317 17.0269 9.53783 17.1441 9.28924 17.1441C9.04065 17.1441 8.80532 17.0269 8.64866 16.8253L5.22644 12.4195C4.93931 12.0499 4.99335 11.507 5.34713 11.207C5.70091 10.907 6.22047 10.9635 6.5076 11.3331L9.28924 14.9142L15.4931 6.92734C15.7802 6.5577 16.2998 6.50124 16.6536 6.80124Z" fill="var(--additional-color)"/>
</svg>
