<svg width="8" height="7" viewBox="0 0 8 7" fill="none" xmlns="http://www.w3.org/2000/svg">
<path d="M7.38619 2.85483L4.59937 0.413342C4.54636 0.368887 4.48386 0.334039 4.41544 0.310799C4.27974 0.26196 4.12754 0.26196 3.99184 0.310799C3.92343 0.334039 3.86092 0.368887 3.80791 0.413342L1.02109 2.85483C0.969126 2.90036 0.927903 2.95441 0.899778 3.0139C0.871654 3.07338 0.857178 3.13714 0.857178 3.20152C0.857178 3.33156 0.91614 3.45627 1.02109 3.54822C1.12605 3.64016 1.2684 3.69182 1.41682 3.69182C1.56525 3.69182 1.7076 3.64016 1.81255 3.54822L3.64628 1.93683V5.64301C3.64628 5.77252 3.705 5.89672 3.80953 5.98829C3.91405 6.07987 4.05582 6.13131 4.20364 6.13131C4.35146 6.13131 4.49323 6.07987 4.59776 5.98829C4.70228 5.89672 4.761 5.77252 4.761 5.64301V1.93683L6.59473 3.54822C6.64655 3.59398 6.70819 3.63031 6.77611 3.6551C6.84403 3.67989 6.91688 3.69265 6.99046 3.69265C7.06404 3.69265 7.13689 3.67989 7.20481 3.6551C7.27273 3.63031 7.33437 3.59398 7.38619 3.54822C7.43843 3.50282 7.47989 3.44882 7.50819 3.38931C7.53649 3.32981 7.55106 3.26599 7.55106 3.20152C7.55106 3.13706 7.53649 3.07324 7.50819 3.01374C7.47989 2.95423 7.43843 2.90023 7.38619 2.85483Z" fill="currentColor"/>
</svg>
