<svg width="24" height="24" viewBox="0 0 24 24" fill="none" xmlns="http://www.w3.org/2000/svg">
<g clip-path="url(#clip0_2803_3412)">
<path d="M12 24C8.14 24 5 20.86 5 17V5C5 2.24 7.24 0 10 0C12.76 0 15 2.24 15 5V17C15 18.65 13.65 20 12 20C10.35 20 9 18.65 9 17V6H11V17C11 17.55 11.45 18 12 18C12.55 18 13 17.55 13 17V5C13 3.35 11.65 2 10 2C8.35 2 7 3.35 7 5V17C7 19.76 9.24 22 12 22C14.76 22 17 19.76 17 17V3H19V17C19 20.86 15.86 24 12 24Z" fill="currentColor"/>
</g>
<defs>
<clipPath id="clip0_2803_3412">
<rect width="24" height="24" fill="white"/>
</clipPath>
</defs>
</svg>
