<svg width="12" height="13" viewBox="0 0 12 13" fill="none" xmlns="http://www.w3.org/2000/svg">
<path d="M3.16668 1.16666C3.16668 1.03406 3.114 0.906879 3.02023 0.813111C2.92646 0.719342 2.79929 0.666664 2.66668 0.666664C2.53407 0.666664 2.40689 0.719342 2.31313 0.813111C2.21936 0.906879 2.16668 1.03406 2.16668 1.16666V2.37733C1.68032 2.4463 1.22989 2.67254 0.884168 3.02151C0.538446 3.37049 0.316428 3.82301 0.252013 4.31L0.194013 4.74533C0.184235 4.81866 0.174902 4.89244 0.166013 4.96666C0.160636 5.01285 0.165121 5.05965 0.17917 5.10398C0.19322 5.1483 0.216515 5.18914 0.247516 5.22379C0.278516 5.25845 0.316518 5.28613 0.359009 5.30502C0.401501 5.3239 0.447515 5.33355 0.494013 5.33333H11.5067C11.5532 5.33355 11.5992 5.3239 11.6417 5.30502C11.6842 5.28613 11.7222 5.25845 11.7532 5.22379C11.7842 5.18914 11.8075 5.1483 11.8215 5.10398C11.8356 5.05965 11.8401 5.01285 11.8347 4.96666L11.8067 4.74533L11.7487 4.31C11.6843 3.82301 11.4622 3.37049 11.1165 3.02151C10.7708 2.67254 10.3204 2.4463 9.83401 2.37733V1.16666C9.83401 1.03406 9.78133 0.906879 9.68757 0.813111C9.5938 0.719342 9.46662 0.666664 9.33401 0.666664C9.2014 0.666664 9.07423 0.719342 8.98046 0.813111C8.88669 0.906879 8.83401 1.03406 8.83401 1.16666V2.27866C6.94884 2.11109 5.05252 2.11109 3.16735 2.27866L3.16668 1.16666ZM11.9633 6.65066C11.9602 6.56519 11.924 6.48427 11.8623 6.42505C11.8006 6.36582 11.7182 6.33293 11.6327 6.33333H0.367346C0.281811 6.33293 0.199475 6.36582 0.13776 6.42505C0.0760457 6.48427 0.0397952 6.56519 0.0366795 6.65066C-0.00274111 7.85712 0.0709138 9.06461 0.256679 10.2573C0.325146 10.6968 0.537647 11.101 0.860799 11.4065C1.18395 11.7121 1.59945 11.9016 2.04201 11.9453L2.83735 12.024C4.94068 12.2307 7.05935 12.2307 9.16268 12.024L9.95801 11.9453C10.4006 11.9016 10.8161 11.7121 11.1392 11.4065C11.4624 11.101 11.6749 10.6968 11.7433 10.2573C11.9291 9.06461 12.0028 7.85712 11.9633 6.65066Z" fill="currentColor"/>
</svg>
