<svg width="24" height="24" viewBox="0 0 24 24" fill="none" xmlns="http://www.w3.org/2000/svg">
<g clip-path="url(#clip0_2803_3474)">
<path d="M24 11.247C23.8554 8.90697 23.0292 6.66046 21.6232 4.78438C20.2173 2.90829 18.293 1.48465 16.0877 0.688948C13.8825 -0.106749 11.4925 -0.239713 9.21259 0.306449C6.93265 0.852611 4.86237 2.05402 3.25698 3.76257C1.65159 5.47112 0.581271 7.61212 0.177972 9.92161C-0.225327 12.2311 0.0560265 14.6081 0.987346 16.7597C1.91867 18.9112 3.45924 20.7432 5.41914 22.0297C7.37904 23.3163 9.67259 24.0012 12.017 24H19C20.3257 23.9986 21.5967 23.4714 22.5341 22.534C23.4715 21.5966 23.9987 20.3256 24 19V11.247ZM22 19C22 19.7956 21.684 20.5587 21.1214 21.1213C20.5587 21.6839 19.7957 22 19 22H12.017C10.606 21.9993 9.21087 21.7013 7.92273 21.1253C6.63458 20.5492 5.4823 19.7082 4.54103 18.657C3.5952 17.6062 2.88496 16.3654 2.45792 15.0177C2.03089 13.6701 1.89693 12.2466 2.06503 10.843C2.33047 8.62889 3.32522 6.56614 4.89247 4.97988C6.45972 3.39361 8.51033 2.37406 10.721 2.08195C11.1523 2.0279 11.5864 2.00052 12.021 1.99995C14.3515 1.9936 16.6098 2.80786 18.4 4.29995C19.4456 5.1689 20.3037 6.24111 20.9226 7.45158C21.5414 8.66206 21.9079 9.98559 22 11.342V19Z" fill="currentColor"/>
<path d="M8.5 10H12.5C12.7652 10 13.0196 9.89464 13.2071 9.70711C13.3946 9.51957 13.5 9.26522 13.5 9C13.5 8.73478 13.3946 8.48043 13.2071 8.29289C13.0196 8.10536 12.7652 8 12.5 8H8.5C8.23478 8 7.98043 8.10536 7.79289 8.29289C7.60536 8.48043 7.5 8.73478 7.5 9C7.5 9.26522 7.60536 9.51957 7.79289 9.70711C7.98043 9.89464 8.23478 10 8.5 10ZM16.5 13H8.5C8.23478 13 7.98043 13.1054 7.79289 13.2929C7.60536 13.4804 7.5 13.7348 7.5 14C7.5 14.2652 7.60536 14.5196 7.79289 14.7071C7.98043 14.8946 8.23478 15 8.5 15H16.5C16.7652 15 17.0196 14.8946 17.2071 14.7071C17.3946 14.5196 17.5 14.2652 17.5 14C17.5 13.7348 17.3946 13.4804 17.2071 13.2929C17.0196 13.1054 16.7652 13 16.5 13Z" fill="currentColor"/>
</g>
<defs>
<clipPath id="clip0_2803_3474">
<rect width="24" height="24" fill="white"/>
</clipPath>
</defs>
</svg>
