<svg width="24" height="24" viewBox="0 0 24 24" fill="none" xmlns="http://www.w3.org/2000/svg">
<path d="M12 24C5.383 24 0 18.617 0 12C0 5.383 5.383 0 12 0C18.617 0 24 5.383 24 12C24 18.617 18.617 24 12 24ZM12 2C6.486 2 2 6.486 2 12C2 17.514 6.486 22 12 22C17.514 22 22 17.514 22 12C22 6.486 17.514 2 12 2ZM14.5 16.33C14.6138 16.2644 14.7136 16.1771 14.7936 16.0729C14.8736 15.9687 14.9323 15.8498 14.9663 15.7229C15.0003 15.596 15.0089 15.4637 14.9917 15.3335C14.9745 15.2032 14.9318 15.0777 14.866 14.964L13 11.732V6C13 5.73478 12.8946 5.48043 12.7071 5.29289C12.5196 5.10536 12.2652 5 12 5C11.7348 5 11.4804 5.10536 11.2929 5.29289C11.1054 5.48043 11 5.73478 11 6V12C11 12.176 11.046 12.348 11.134 12.5L13.134 15.964C13.2666 16.1937 13.485 16.3613 13.7412 16.4299C13.9974 16.4985 14.2703 16.4626 14.5 16.33Z" fill="currentColor"/>
</svg>
