<svg width="24" height="24" viewBox="0 0 24 24" fill="none" xmlns="http://www.w3.org/2000/svg">
<g clip-path="url(#clip0_2803_3512)">
<path d="M12 0C5.383 0 0 5.383 0 12C0 18.617 5.383 24 12 24C18.617 24 24 18.617 24 12C24 5.383 18.617 0 12 0ZM15.707 14.293C15.8945 14.4805 15.9998 14.7348 15.9998 15C15.9998 15.2652 15.8945 15.5195 15.707 15.707C15.5195 15.8945 15.2652 15.9998 15 15.9998C14.7348 15.9998 14.4805 15.8945 14.293 15.707L12 13.414L9.707 15.707C9.61435 15.8002 9.50419 15.8741 9.38285 15.9246C9.26152 15.9751 9.13141 16.001 9 16.001C8.86859 16.001 8.73848 15.9751 8.61715 15.9246C8.49581 15.8741 8.38565 15.8002 8.293 15.707C8.20005 15.6142 8.12632 15.504 8.07601 15.3827C8.02569 15.2614 7.9998 15.1313 7.9998 15C7.9998 14.8687 8.02569 14.7386 8.07601 14.6173C8.12632 14.496 8.20005 14.3858 8.293 14.293L10.586 12L8.293 9.707C8.10549 9.51949 8.00015 9.26518 8.00015 9C8.00015 8.73482 8.10549 8.48051 8.293 8.293C8.48051 8.10549 8.73482 8.00015 9 8.00015C9.26518 8.00015 9.51949 8.10549 9.707 8.293L12 10.586L14.293 8.293C14.4805 8.10549 14.7348 8.00015 15 8.00015C15.2652 8.00015 15.5195 8.10549 15.707 8.293C15.8945 8.48051 15.9998 8.73482 15.9998 9C15.9998 9.26518 15.8945 9.51949 15.707 9.707L13.414 12L15.707 14.293Z" fill="currentColor"/>
</g>
<defs>
<clipPath id="clip0_2803_3512">
<rect width="24" height="24" fill="white"/>
</clipPath>
</defs>
</svg>
