<svg width="12" height="12" viewBox="0 0 12 12" fill="none" xmlns="http://www.w3.org/2000/svg">
<path d="M11.5088 4.59199L10.2244 9.53637C10.187 9.67955 10.1033 9.80633 9.98625 9.8969C9.86922 9.98747 9.72549 10.0367 9.57751 10.037H2.42251C2.27452 10.0367 2.1308 9.98747 2.01377 9.8969C1.89674 9.80633 1.813 9.67955 1.77563 9.53637L0.491257 4.59199C0.460017 4.47298 0.462243 4.34765 0.49769 4.22982C0.533137 4.11199 0.600429 4.00624 0.692148 3.92421C0.783867 3.84219 0.896452 3.78708 1.01749 3.76497C1.13853 3.74285 1.26333 3.75458 1.37813 3.79887L3.50626 4.61824C3.52778 4.62661 3.55142 4.62785 3.5737 4.62177C3.59597 4.6157 3.61571 4.60263 3.63001 4.58449L5.47313 2.22199C5.53532 2.14144 5.61515 2.07622 5.70649 2.03134C5.79783 1.98647 5.89824 1.96313 6.00001 1.96313C6.10177 1.96313 6.20218 1.98647 6.29352 2.03134C6.38486 2.07622 6.46469 2.14144 6.52688 2.22199L8.37001 4.58449C8.3843 4.60263 8.40404 4.6157 8.42632 4.62177C8.44859 4.62785 8.47223 4.62661 8.49376 4.61824L10.6219 3.79887C10.7366 3.7565 10.8608 3.74619 10.9809 3.76905C11.1011 3.79191 11.2128 3.84707 11.3039 3.92861C11.3951 4.01015 11.4624 4.11499 11.4984 4.23187C11.5345 4.34874 11.5381 4.47324 11.5088 4.59199Z" fill="currentColor"/>
</svg>
