<svg width="14" height="16" viewBox="0 0 14 16" fill="none" xmlns="http://www.w3.org/2000/svg">
<path d="M13.1875 3.25H10.375V2.6875C10.3731 2.24052 10.1948 1.81237 9.8787 1.4963C9.56263 1.18023 9.13448 1.00185 8.6875 1H5.3125C4.86552 1.00185 4.43737 1.18023 4.1213 1.4963C3.80523 1.81237 3.62685 2.24052 3.625 2.6875V3.25H0.8125C0.663316 3.25 0.520242 3.30926 0.414753 3.41475C0.309263 3.52024 0.25 3.66332 0.25 3.8125C0.25 3.96168 0.309263 4.10476 0.414753 4.21025C0.520242 4.31574 0.663316 4.375 0.8125 4.375H1.375V14.5C1.375 14.7984 1.49353 15.0845 1.7045 15.2955C1.91548 15.5065 2.20163 15.625 2.5 15.625H11.5C11.7984 15.625 12.0845 15.5065 12.2955 15.2955C12.5065 15.0845 12.625 14.7984 12.625 14.5V4.375H13.1875C13.3367 4.375 13.4798 4.31574 13.5852 4.21025C13.6907 4.10476 13.75 3.96168 13.75 3.8125C13.75 3.66332 13.6907 3.52024 13.5852 3.41475C13.4798 3.30926 13.3367 3.25 13.1875 3.25ZM4.75 2.6875C4.75 2.53832 4.80926 2.39524 4.91475 2.28975C5.02024 2.18426 5.16332 2.125 5.3125 2.125H8.6875C8.83668 2.125 8.97976 2.18426 9.08525 2.28975C9.19074 2.39524 9.25 2.53832 9.25 2.6875V3.25H4.75V2.6875ZM11.5 14.5H2.5V4.375H11.5V14.5ZM5.875 7.1875V11.6875C5.875 11.8367 5.81574 11.9798 5.71025 12.0852C5.60476 12.1907 5.46168 12.25 5.3125 12.25C5.16332 12.25 5.02024 12.1907 4.91475 12.0852C4.80926 11.9798 4.75 11.8367 4.75 11.6875V7.1875C4.75 7.03832 4.80926 6.89524 4.91475 6.78975C5.02024 6.68426 5.16332 6.625 5.3125 6.625C5.46168 6.625 5.60476 6.68426 5.71025 6.78975C5.81574 6.89524 5.875 7.03832 5.875 7.1875ZM9.25 7.1875V11.6875C9.25 11.8367 9.19074 11.9798 9.08525 12.0852C8.97976 12.1907 8.83668 12.25 8.6875 12.25C8.53832 12.25 8.39524 12.1907 8.28975 12.0852C8.18426 11.9798 8.125 11.8367 8.125 11.6875V7.1875C8.125 7.03832 8.18426 6.89524 8.28975 6.78975C8.39524 6.68426 8.53832 6.625 8.6875 6.625C8.83668 6.625 8.97976 6.68426 9.08525 6.78975C9.19074 6.89524 9.25 7.03832 9.25 7.1875Z" fill="currentColor" stroke="white" stroke-width="0.3"/>
</svg>
