<svg width="12" height="13" viewBox="0 0 12 13" fill="none" xmlns="http://www.w3.org/2000/svg">
<path d="M0.4 8.47474L0.1168 8.19154L0 8.30914V8.47474H0.4ZM7.6 1.27474L7.8832 0.991538C7.84604 0.954288 7.8019 0.924734 7.75331 0.904568C7.70471 0.884403 7.65261 0.874023 7.6 0.874023C7.54739 0.874023 7.49529 0.884403 7.44669 0.904568C7.3981 0.924734 7.35396 0.954288 7.3168 0.991538L7.6 1.27474ZM11.6 5.27474L11.8832 5.55794C11.9205 5.52078 11.95 5.47664 11.9702 5.42805C11.9903 5.37945 12.0007 5.32735 12.0007 5.27474C12.0007 5.22212 11.9903 5.17003 11.9702 5.12143C11.95 5.07284 11.9205 5.02869 11.8832 4.99154L11.6 5.27474ZM4.4 12.4747V12.8747H4.5656L4.6832 12.7579L4.4 12.4747ZM0.4 12.4747H0C0 12.5808 0.0421427 12.6826 0.117157 12.7576C0.192172 12.8326 0.293913 12.8747 0.4 12.8747V12.4747ZM0.6832 8.75794L7.8832 1.55794L7.3168 0.991538L0.1168 8.19154L0.6832 8.75794ZM7.3168 1.55794L11.3168 5.55794L11.8832 4.99154L7.8832 0.991538L7.3168 1.55794ZM11.3168 4.99154L4.1168 12.1915L4.6832 12.7579L11.8832 5.55794L11.3168 4.99154ZM4.4 12.0747H0.4V12.8747H4.4V12.0747ZM0.8 12.4747V8.47474H0V12.4747H0.8ZM4.9168 3.95794L8.9168 7.95794L9.4832 7.39154L5.4832 3.39154L4.9168 3.95794ZM6.4 12.8747H12V12.0747H6.4V12.8747Z" fill="currentColor"/>
</svg>
