<svg width="24" height="24" viewBox="0 0 24 24" fill="none" xmlns="http://www.w3.org/2000/svg">
<g clip-path="url(#clip0_2803_3516)">
<path d="M14 7V0.46C14.91 0.81 15.75 1.34 16.46 2.05L19.94 5.54C20.65 6.25 21.18 7.09 21.53 8H14.99C14.44 8 13.99 7.55 13.99 7H14ZM22 10.49V19C22 21.76 19.76 24 17 24H7C4.24 24 2 21.76 2 19V5C2 2.24 4.24 0 7 0H11.51C11.67 0 11.83 0.01 12 0.02V7C12 8.65 13.35 10 15 10H21.98C21.99 10.16 22 10.32 22 10.49ZM13.3 17L15.27 14.64C15.354 14.5389 15.4174 14.4222 15.4563 14.2966C15.4953 14.171 15.5091 14.039 15.497 13.9081C15.4849 13.7771 15.4472 13.6499 15.3859 13.5335C15.3247 13.4172 15.2411 13.314 15.14 13.23C15.0389 13.146 14.9222 13.0826 14.7966 13.0437C14.671 13.0047 14.539 12.9909 14.4081 13.003C14.2771 13.0151 14.1499 13.0528 14.0335 13.1141C13.9172 13.1753 13.814 13.2589 13.73 13.36L12 15.44L10.27 13.36C9.92 12.94 9.29 12.88 8.86 13.23C8.44 13.58 8.38 14.21 8.73 14.64L10.7 17L8.73 19.36C8.64595 19.4611 8.58265 19.5778 8.5437 19.7034C8.50474 19.829 8.49091 19.961 8.50298 20.0919C8.52736 20.3564 8.65578 20.6003 8.86 20.77C9.06422 20.9397 9.3275 21.0214 9.59192 20.997C9.85635 20.9726 10.1003 20.8442 10.27 20.64L12 18.56L13.73 20.64C13.93 20.88 14.21 21 14.5 21C14.73 21 14.95 20.92 15.14 20.77C15.56 20.42 15.62 19.79 15.27 19.36L13.3 17Z" fill="currentColor"/>
</g>
<defs>
<clipPath id="clip0_2803_3516">
<rect width="24" height="24" fill="white"/>
</clipPath>
</defs>
</svg>
