<svg width="24" height="24" viewBox="0 0 24 24" fill="none" xmlns="http://www.w3.org/2000/svg">
<g clip-path="url(#clip0_2803_3478)">
<path d="M12 24H11.943C6.461 24 2 19.514 2 14C2 12.071 2.666 9.92996 3.874 7.96896C4.10053 7.59748 4.44132 7.3094 4.84533 7.14787C5.24934 6.98634 5.6948 6.96006 6.115 7.07296C6.53603 7.18203 6.91032 7.42473 7.18168 7.76461C7.45305 8.1045 7.60685 8.52323 7.62 8.95796C7.716 11.698 8.373 14.972 10.958 15.001C12.039 15.01 12.895 14.254 12.985 13.274C13.079 12.248 12.708 11.444 12.239 10.427C11.687 9.22696 10.999 7.73496 10.999 5.52596C10.999 3.81896 11.344 2.11396 11.686 1.18096C11.941 0.487959 12.542 0.0329586 13.256 -0.00804137C13.995 -0.0480414 14.67 0.358959 15.009 1.03396C15.811 2.62896 16.947 4.10296 18.045 5.52896C20.017 8.09096 22.056 10.74 22.001 14.016C22.001 19.48 17.518 23.966 12.007 23.999H12.001L12 24Z" fill="currentColor"/>
</g>
<defs>
<clipPath id="clip0_2803_3478">
<rect width="24" height="24" fill="white"/>
</clipPath>
</defs>
</svg>
