<svg width="24" height="24" viewBox="0 0 24 24" fill="none" xmlns="http://www.w3.org/2000/svg">
<g clip-path="url(#clip0_2803_3520)">
<path d="M19 24H5C2.243 24 0 21.757 0 19V9.72402C0 8.05902 0.824 6.50902 2.204 5.57902L9.203 0.855023C10.0282 0.294846 11.0026 -0.00463867 12 -0.00463867C12.9974 -0.00463867 13.9718 0.294846 14.797 0.855023L21.797 5.57902C22.4759 6.03635 23.0319 6.65361 23.4161 7.37643C23.8003 8.09925 24.0008 8.90546 24 9.72402V19C24 21.757 21.757 24 19 24ZM12 1.99702C11.4015 1.99754 10.817 2.17764 10.322 2.51402L3.322 7.23702C2.91463 7.51116 2.58096 7.88132 2.35041 8.31486C2.11987 8.7484 1.99953 9.232 2 9.72302V18.999C2 20.653 3.346 21.999 5 21.999H19C20.654 21.999 22 20.653 22 18.999V9.72402C22 8.72502 21.506 7.79502 20.679 7.23802L13.678 2.51402C13.183 2.17764 12.5985 1.99754 12 1.99702Z" fill="currentColor"/>
</g>
<defs>
<clipPath id="clip0_2803_3520">
<rect width="24" height="24" fill="white"/>
</clipPath>
</defs>
</svg>
