<svg width="10" height="12" viewBox="0 0 10 12" fill="none" xmlns="http://www.w3.org/2000/svg">
<path d="M8.13736 4.43142V3.80408C8.13736 2.07342 6.73003 0.666748 5.00003 0.666748C3.27003 0.666748 1.8627 2.07408 1.8627 3.80408V4.43142C1.16937 4.43142 0.608032 4.99341 0.608032 5.68608V10.0787C0.608032 10.7721 1.16937 11.3334 1.8627 11.3334H8.13736C8.8307 11.3334 9.39203 10.7714 9.39203 10.0787V5.68608C9.39203 4.99275 8.83003 4.43142 8.13736 4.43142ZM3.11737 3.80408C3.11737 2.76608 3.96203 1.92141 5.00003 1.92141C6.03803 1.92141 6.8827 2.76608 6.8827 3.80408V4.43142H3.1167L3.11737 3.80408ZM5.62737 8.19608C5.62737 8.36246 5.56127 8.52203 5.44362 8.63967C5.32598 8.75732 5.16641 8.82342 5.00003 8.82342C4.83365 8.82342 4.67409 8.75732 4.55644 8.63967C4.43879 8.52203 4.3727 8.36246 4.3727 8.19608V6.94141C4.3727 6.77504 4.43879 6.61547 4.55644 6.49782C4.67409 6.38018 4.83365 6.31408 5.00003 6.31408C5.16641 6.31408 5.32598 6.38018 5.44362 6.49782C5.56127 6.61547 5.62737 6.77504 5.62737 6.94141V8.19608Z" fill="currentColor"/>
</svg>
