<svg width="18" height="15" viewBox="0 0 18 15" fill="none" xmlns="http://www.w3.org/2000/svg">
<path fill-rule="evenodd" clip-rule="evenodd" d="M5.002 0.553076C7.6984 0.349985 10.4067 0.363361 13.101 0.593076L14.725 0.731076C15.3208 0.782026 15.8821 1.03178 16.3189 1.44022C16.7556 1.84865 17.0423 2.39204 17.133 2.98308L17.235 3.65208C17.582 5.91999 17.5496 8.22981 17.139 10.4871C17.0412 11.027 16.7568 11.5154 16.3355 11.8669C15.9142 12.2184 15.3827 12.4107 14.834 12.4101H5.858C5.651 12.4101 5.448 12.4611 5.266 12.5591L1.355 14.6611C1.24071 14.7225 1.11245 14.7532 0.982745 14.7502C0.853039 14.7472 0.726325 14.7106 0.614985 14.644C0.503645 14.5774 0.411486 14.4831 0.347513 14.3702C0.28354 14.2574 0.249942 14.1298 0.25 14.0001V5.48308C0.250257 4.23996 0.720131 3.04282 1.56552 2.13142C2.41091 1.22001 3.56941 0.661625 4.809 0.568076L5.002 0.553076ZM5 5.50008C4.66848 5.50008 4.35054 5.63177 4.11612 5.86619C3.8817 6.10061 3.75 6.41856 3.75 6.75008C3.75 7.0816 3.8817 7.39954 4.11612 7.63396C4.35054 7.86838 4.66848 8.00008 5 8.00008C5.33152 8.00008 5.64946 7.86838 5.88388 7.63396C6.1183 7.39954 6.25 7.0816 6.25 6.75008C6.25 6.41856 6.1183 6.10061 5.88388 5.86619C5.64946 5.63177 5.33152 5.50008 5 5.50008ZM9 5.50008C8.66848 5.50008 8.35054 5.63177 8.11612 5.86619C7.8817 6.10061 7.75 6.41856 7.75 6.75008C7.75 7.0816 7.8817 7.39954 8.11612 7.63396C8.35054 7.86838 8.66848 8.00008 9 8.00008C9.33152 8.00008 9.64946 7.86838 9.88388 7.63396C10.1183 7.39954 10.25 7.0816 10.25 6.75008C10.25 6.41856 10.1183 6.10061 9.88388 5.86619C9.64946 5.63177 9.33152 5.50008 9 5.50008ZM11.75 6.75008C11.75 6.41856 11.8817 6.10061 12.1161 5.86619C12.3505 5.63177 12.6685 5.50008 13 5.50008C13.3315 5.50008 13.6495 5.63177 13.8839 5.86619C14.1183 6.10061 14.25 6.41856 14.25 6.75008C14.25 7.0816 14.1183 7.39954 13.8839 7.63396C13.6495 7.86838 13.3315 8.00008 13 8.00008C12.6685 8.00008 12.3505 7.86838 12.1161 7.63396C11.8817 7.39954 11.75 7.0816 11.75 6.75008Z" fill="currentColor"/>
</svg>
