<svg width="12" height="12" viewBox="0 0 12 12" fill="none" xmlns="http://www.w3.org/2000/svg">
<path d="M2.91 11H1.425L8.655 0.274999H10.14L2.91 11ZM8.73 11.12C8.28 11.12 7.875 11.015 7.515 10.805C7.155 10.595 6.87 10.31 6.66 9.95C6.45 9.58 6.345 9.17 6.345 8.72C6.345 8.27 6.45 7.865 6.66 7.505C6.87 7.135 7.155 6.845 7.515 6.635C7.875 6.425 8.28 6.32 8.73 6.32C9.19 6.32 9.6 6.425 9.96 6.635C10.32 6.845 10.605 7.135 10.815 7.505C11.025 7.865 11.13 8.27 11.13 8.72C11.13 9.17 11.025 9.58 10.815 9.95C10.605 10.31 10.32 10.595 9.96 10.805C9.6 11.015 9.19 11.12 8.73 11.12ZM8.73 10.025C9.09 10.025 9.385 9.905 9.615 9.665C9.845 9.415 9.96 9.1 9.96 8.72C9.96 8.34 9.845 8.03 9.615 7.79C9.385 7.54 9.09 7.415 8.73 7.415C8.38 7.415 8.09 7.54 7.86 7.79C7.63 8.03 7.515 8.34 7.515 8.72C7.515 9.1 7.63 9.415 7.86 9.665C8.09 9.905 8.38 10.025 8.73 10.025ZM2.82 4.955C2.37 4.955 1.965 4.85 1.605 4.64C1.245 4.43 0.96 4.145 0.75 3.785C0.54 3.415 0.435 3.005 0.435 2.555C0.435 2.105 0.54 1.7 0.75 1.34C0.96 0.969999 1.245 0.679999 1.605 0.47C1.965 0.259999 2.37 0.154999 2.82 0.154999C3.28 0.154999 3.69 0.259999 4.05 0.47C4.41 0.679999 4.695 0.969999 4.905 1.34C5.115 1.7 5.22 2.105 5.22 2.555C5.22 3.005 5.115 3.415 4.905 3.785C4.695 4.145 4.41 4.43 4.05 4.64C3.69 4.85 3.28 4.955 2.82 4.955ZM2.82 3.86C3.18 3.86 3.475 3.74 3.705 3.5C3.935 3.25 4.05 2.935 4.05 2.555C4.05 2.175 3.935 1.865 3.705 1.625C3.475 1.375 3.18 1.25 2.82 1.25C2.47 1.25 2.18 1.375 1.95 1.625C1.72 1.865 1.605 2.175 1.605 2.555C1.605 2.935 1.72 3.25 1.95 3.5C2.18 3.74 2.47 3.86 2.82 3.86Z" fill="currentColor"/>
</svg>
