<svg width="24" height="24" viewBox="0 0 24 24" fill="none" xmlns="http://www.w3.org/2000/svg">
<g clip-path="url(#clip0_2803_3421)">
<path d="M8.99999 5.5C8.99999 4.67 9.66999 4 10.5 4C11.33 4 12 4.67 12 5.5C12 6.33 11.33 7 10.5 7C9.66999 7 8.99999 6.33 8.99999 5.5ZM24 5V11C24 13.76 21.76 16 19 16H9.99999C7.23999 16 4.99999 13.76 4.99999 11V5C4.99999 2.24 7.23999 0 9.99999 0H19C21.76 0 24 2.24 24 5ZM6.99999 11C6.99999 11.77 7.28999 12.47 7.76999 13.01L13.01 7.77C13.99 6.79 15.7 6.79 16.68 7.77L17.72 8.81C17.95 9.04 18.34 9.04 18.57 8.81L22 5.38V5C22 3.35 20.65 2 19 2H9.99999C8.34999 2 6.99999 3.35 6.99999 5V11ZM22 11V8.21L19.98 10.23C19 11.21 17.29 11.21 16.31 10.23L15.27 9.19C15.1561 9.07943 15.0037 9.01758 14.845 9.01758C14.6863 9.01758 14.5338 9.07943 14.42 9.19L9.62999 13.98C9.74999 14 9.86999 14 9.99999 14H19C20.65 14 22 12.65 22 11ZM18.09 18.04C17.56 17.89 17.01 18.21 16.86 18.74L16.57 19.8C16.36 20.57 15.86 21.22 15.16 21.61C14.46 22.01 13.65 22.11 12.88 21.9L4.19999 19.52C3.81966 19.4159 3.46359 19.2377 3.15215 18.9959C2.84072 18.754 2.58002 18.4531 2.38498 18.1104C2.18994 17.7677 2.06437 17.3898 2.01547 16.9986C1.96657 16.6073 1.99529 16.2102 2.09999 15.83L3.05999 12.27C3.19999 11.74 2.88999 11.19 2.35999 11.04C1.82999 10.9 1.27999 11.21 1.12999 11.74L0.179987 15.29C-0.16966 16.5696 0.00244933 17.9357 0.658571 19.0886C1.31469 20.2415 2.40126 21.0871 3.67999 21.44L12.36 23.82C12.8 23.94 13.25 24 13.69 24C14.55 24 15.39 23.78 16.16 23.34C16.7313 23.0163 17.2331 22.5828 17.6364 22.0645C18.0397 21.5462 18.3366 20.9534 18.51 20.32L18.8 19.26C18.95 18.73 18.63 18.18 18.1 18.03L18.09 18.04Z" fill="currentColor"/>
</g>
<defs>
<clipPath id="clip0_2803_3421">
<rect width="24" height="24" fill="white"/>
</clipPath>
</defs>
</svg>
