<svg width="24" height="24" viewBox="0 0 24 24" fill="none" xmlns="http://www.w3.org/2000/svg">
<g clip-path="url(#clip0_2803_3527)">
<path d="M11.904 16.0001C12.1011 16.0001 12.2962 16.039 12.4782 16.1145C12.6602 16.1899 12.8256 16.3005 12.9649 16.4399C13.1042 16.5793 13.2146 16.7447 13.29 16.9268C13.3653 17.1089 13.4041 17.304 13.404 17.5011C13.404 17.6981 13.3651 17.8932 13.2896 18.0752C13.2141 18.2573 13.1036 18.4226 12.9642 18.5619C12.8248 18.7012 12.6593 18.8117 12.4773 18.887C12.2952 18.9624 12.1001 19.0011 11.903 19.0011C11.5051 19.0009 11.1235 18.8427 10.8421 18.5612C10.5608 18.2797 10.4029 17.898 10.403 17.5001C10.4031 17.1021 10.5614 16.7205 10.8429 16.4392C11.1243 16.1579 11.5061 15.9999 11.904 16.0001ZM12.904 14.0001C12.904 13.4391 13.312 12.7751 13.832 12.4881C14.5654 12.0815 15.1533 11.4559 15.5136 10.6986C15.8738 9.94144 15.9883 9.09055 15.841 8.26505C15.558 6.65205 14.234 5.32705 12.62 5.04405C12.0412 4.9413 11.447 4.96628 10.8788 5.11725C10.3107 5.26822 9.78245 5.54153 9.33102 5.91805C8.88362 6.29323 8.5239 6.76192 8.27718 7.29112C8.03046 7.82032 7.90274 8.39717 7.90302 8.98105C7.90302 9.24627 8.00837 9.50062 8.19591 9.68816C8.38345 9.8757 8.6378 9.98105 8.90302 9.98105C9.16823 9.98105 9.42259 9.8757 9.61012 9.68816C9.79766 9.50062 9.90302 9.24627 9.90302 8.98105C9.90312 8.68694 9.96802 8.39647 10.0931 8.13028C10.2182 7.8641 10.4004 7.62874 10.6268 7.44096C10.8531 7.25317 11.1181 7.11756 11.4028 7.04378C11.6875 6.96999 11.9849 6.95984 12.274 7.01405C13.061 7.15205 13.732 7.82405 13.87 8.61005C13.9492 9.02493 13.8946 9.45422 13.7142 9.83609C13.5337 10.218 13.2368 10.5327 12.866 10.7351C11.71 11.3721 10.903 12.7141 10.903 13.9991C10.903 14.2643 11.0084 14.5186 11.1959 14.7062C11.3834 14.8937 11.6378 14.9991 11.903 14.9991C12.1682 14.9991 12.4226 14.8937 12.6101 14.7062C12.7977 14.5186 12.903 14.2643 12.903 13.9991L12.904 14.0001ZM24 19.0001V12.3401C24 5.86105 19.096 0.454055 12.836 0.0280545C11.1222 -0.0883391 9.4033 0.163123 7.79465 0.765572C6.18599 1.36802 4.72477 2.30752 3.50902 3.52105C2.29598 4.73784 1.3578 6.20045 0.757682 7.81038C0.157561 9.42031 -0.0905664 11.1401 0.0300161 12.8541C0.470016 19.2081 6.08202 24.0001 13.084 24.0001H19.001C21.758 24.0001 24 21.7571 24 19.0001ZM12.701 2.02405C17.916 2.37805 22 6.90905 22 12.3391V18.9991C22 20.6531 20.654 21.9991 19 21.9991H13.083C7.04802 21.9991 2.39702 18.0951 2.02402 12.7151C1.923 11.2862 2.1295 9.85237 2.62958 8.51013C3.12967 7.16788 3.91172 5.94845 4.92302 4.93405C5.93575 3.92092 7.15403 3.13681 8.49563 2.63463C9.83723 2.13246 11.2709 1.92391 12.7 2.02305L12.701 2.02405Z" fill="currentColor"/>
</g>
<defs>
<clipPath id="clip0_2803_3527">
<rect width="24" height="24" fill="white"/>
</clipPath>
</defs>
</svg>
