<svg width="24" height="24" viewBox="0 0 24 24" fill="none" xmlns="http://www.w3.org/2000/svg">
<path d="M23.032 21.618L18.77 17.356C20.3966 15.3666 21.1964 12.8281 21.0039 10.2656C20.8113 7.70304 19.6412 5.31254 17.7356 3.58853C15.83 1.86452 13.3346 0.938901 10.7656 1.00313C8.1967 1.06736 5.75071 2.11653 3.93362 3.93362C2.11653 5.75071 1.06736 8.1967 1.00313 10.7656C0.938901 13.3346 1.86452 15.83 3.58853 17.7356C5.31254 19.6412 7.70304 20.8113 10.2656 21.0039C12.8281 21.1964 15.3666 20.3966 17.356 18.77L21.618 23.032L23.032 21.618ZM11.032 19.032C9.44976 19.032 7.90304 18.5628 6.58745 17.6838C5.27185 16.8047 4.24647 15.5553 3.64097 14.0935C3.03547 12.6317 2.87704 11.0231 3.18573 9.47129C3.49441 7.91944 4.25633 6.49397 5.37515 5.37515C6.49397 4.25633 7.91944 3.49441 9.47129 3.18573C11.0231 2.87704 12.6317 3.03547 14.0935 3.64097C15.5553 4.24647 16.8047 5.27185 17.6838 6.58745C18.5628 7.90304 19.032 9.44976 19.032 11.032C19.0296 13.153 18.186 15.1865 16.6862 16.6862C15.1865 18.186 13.153 19.0296 11.032 19.032Z" fill="currentColor"/>
</svg>
