<svg width="16" height="16" viewBox="0 0 16 16" fill="none" xmlns="http://www.w3.org/2000/svg">
<path d="M15.3333 14.6667H2C1.82319 14.6667 1.65362 14.5964 1.5286 14.4714C1.40357 14.3464 1.33333 14.1768 1.33333 14V0.666667C1.33333 0.489856 1.2631 0.320286 1.13807 0.195262C1.01305 0.0702379 0.843478 0 0.666667 0C0.489856 0 0.320286 0.0702379 0.195262 0.195262C0.0702379 0.320286 0 0.489856 0 0.666667L0 14C0 14.5304 0.210714 15.0391 0.585786 15.4142C0.960859 15.7893 1.46957 16 2 16H15.3333C15.5101 16 15.6797 15.9298 15.8047 15.8047C15.9298 15.6797 16 15.5101 16 15.3333C16 15.1565 15.9298 14.987 15.8047 14.8619C15.6797 14.7369 15.5101 14.6667 15.3333 14.6667Z" fill="currentColor"/>
<path d="M10 13.3333C10.1768 13.3333 10.3464 13.2631 10.4714 13.1381C10.5964 13.013 10.6667 12.8435 10.6667 12.6667V8C10.6667 7.82319 10.5964 7.65362 10.4714 7.5286C10.3464 7.40357 10.1768 7.33333 10 7.33333C9.82319 7.33333 9.65362 7.40357 9.5286 7.5286C9.40357 7.65362 9.33333 7.82319 9.33333 8V12.6667C9.33333 12.8435 9.40357 13.013 9.5286 13.1381C9.65362 13.2631 9.82319 13.3333 10 13.3333ZM4.66667 13.3333C4.84348 13.3333 5.01305 13.2631 5.13807 13.1381C5.2631 13.013 5.33333 12.8435 5.33333 12.6667V8C5.33333 7.82319 5.2631 7.65362 5.13807 7.5286C5.01305 7.40357 4.84348 7.33333 4.66667 7.33333C4.48986 7.33333 4.32029 7.40357 4.19526 7.5286C4.07024 7.65362 4 7.82319 4 8V12.6667C4 12.8435 4.07024 13.013 4.19526 13.1381C4.32029 13.2631 4.48986 13.3333 4.66667 13.3333ZM12.6667 13.3333C12.8435 13.3333 13.013 13.2631 13.1381 13.1381C13.2631 13.013 13.3333 12.8435 13.3333 12.6667V4.66667C13.3333 4.48986 13.2631 4.32029 13.1381 4.19526C13.013 4.07024 12.8435 4 12.6667 4C12.4899 4 12.3203 4.07024 12.1953 4.19526C12.0702 4.32029 12 4.48986 12 4.66667V12.6667C12 12.8435 12.0702 13.013 12.1953 13.1381C12.3203 13.2631 12.4899 13.3333 12.6667 13.3333ZM7.33333 13.3333C7.51014 13.3333 7.67971 13.2631 7.80474 13.1381C7.92976 13.013 8 12.8435 8 12.6667V4.66667C8 4.48986 7.92976 4.32029 7.80474 4.19526C7.67971 4.07024 7.51014 4 7.33333 4C7.15652 4 6.98695 4.07024 6.86193 4.19526C6.7369 4.32029 6.66667 4.48986 6.66667 4.66667V12.6667C6.66667 12.8435 6.7369 13.013 6.86193 13.1381C6.98695 13.2631 7.15652 13.3333 7.33333 13.3333Z" fill="currentColor"/>
</svg>
