<svg width="20" height="20" viewBox="0 0 20 20" fill="none" xmlns="http://www.w3.org/2000/svg">
<path fill-rule="evenodd" clip-rule="evenodd" d="M7.89906 2.71657C8.08807 2.28033 8.40068 1.90899 8.7983 1.64837C9.19591 1.38775 9.66114 1.24927 10.1366 1.25C11.4753 1.25 12.5703 2.3275 12.5703 3.66813V5.21532L15.1278 4.95094C16.2516 4.83469 17.3538 5.15657 18.1584 5.81375C18.9731 6.47938 19.4772 7.48875 19.3575 8.67782C19.1756 10.4872 18.6838 12.2997 18.2084 14.0506L18.2072 14.055C17.5953 16.3091 15.3491 17.8325 13.0028 17.4381L5.555 16.1863C5.29787 16.4996 4.97438 16.752 4.60787 16.9251C4.24136 17.0983 3.84098 17.1879 3.43563 17.1875C1.97719 17.1875 0.763125 16.0438 0.704375 14.5763C0.697783 14.4113 0.691533 14.2463 0.685625 14.0813C0.682684 13.9977 0.696617 13.9144 0.726589 13.8364C0.756561 13.7584 0.801958 13.6872 0.860066 13.6271C0.918175 13.567 0.987802 13.5192 1.06479 13.4867C1.14177 13.4541 1.22453 13.4374 1.30812 13.4375C1.47072 13.4378 1.62687 13.5012 1.74372 13.6142C1.86057 13.7273 1.92903 13.8813 1.93469 14.0438C1.94031 14.2022 1.94656 14.3631 1.95312 14.5263C1.98438 15.3134 2.6375 15.9375 3.43563 15.9375C4.2325 15.9375 4.88469 15.3156 4.9175 14.53C5.02719 11.9219 5.0275 9.9225 4.91844 7.345C4.88531 6.55938 4.23281 5.9375 3.43594 5.9375C2.63781 5.9375 1.98438 6.56188 1.95281 7.34907C1.90094 8.64032 1.87469 9.78563 1.875 10.9322C1.87533 11.099 1.80942 11.2591 1.69175 11.3773C1.57408 11.4955 1.41428 11.5621 1.2475 11.5625C1.1659 11.5627 1.08507 11.5468 1.00961 11.5158C0.934159 11.4847 0.865565 11.4391 0.807752 11.3815C0.749939 11.3239 0.704042 11.2555 0.672684 11.1802C0.641326 11.1049 0.625123 11.0241 0.625 10.9425C0.625 9.77594 0.650938 8.61094 0.70375 7.29875C0.763125 5.83125 1.97719 4.6875 3.43594 4.6875C3.86058 4.68707 4.27952 4.78537 4.65964 4.97465C5.03977 5.16392 5.37069 5.43899 5.62625 5.77813C6.3881 5.43166 6.99399 4.81441 7.32625 4.04625L7.89906 2.71657ZM13.21 16.2053L6.11406 15.0128C6.14296 14.871 6.16052 14.7271 6.16656 14.5825C6.2775 11.9397 6.27781 9.905 6.1675 7.29219C6.1623 7.1686 6.14873 7.04551 6.12688 6.92375C7.17924 6.45011 8.01646 5.60007 8.47406 4.54063L9.04688 3.21125C9.13925 2.99927 9.29165 2.81896 9.48529 2.69257C9.67893 2.56618 9.90533 2.49924 10.1366 2.5C10.7953 2.5 11.3203 3.02813 11.3203 3.66813V5.90844C11.3203 5.99591 11.3387 6.0824 11.3743 6.16231C11.4098 6.24223 11.4617 6.3138 11.5267 6.37238C11.5916 6.43097 11.6682 6.47527 11.7513 6.50242C11.8344 6.52957 11.9224 6.53897 12.0094 6.53L15.2563 6.19407C16.0703 6.11 16.8366 6.34813 17.3678 6.78188C17.8888 7.2075 18.1875 7.81938 18.1138 8.5525C17.9438 10.2431 17.4816 11.9566 17.0009 13.7275C16.55 15.3881 14.8953 16.4888 13.21 16.2056V16.2053Z" fill="currentColor"/>
</svg>
