<svg width="24" height="24" viewBox="0 0 24 24" fill="none" xmlns="http://www.w3.org/2000/svg">
<path d="M19 4H17.9C17.6695 2.87064 17.0558 1.8556 16.1629 1.12669C15.27 0.397783 14.1527 -0.000235151 13 1.04228e-07H11C8.59 1.04228e-07 6.57 1.72 6.1 4H5C2.24 4 0 6.24 0 9V19C0 21.76 2.24 24 5 24H19C21.76 24 24 21.76 24 19V9C24 6.24 21.76 4 19 4ZM11 2H13C14.3 2 15.42 2.84 15.83 4H8.17C8.58 2.84 9.69 2 11 2ZM22 19C22 20.65 20.65 22 19 22H5C3.35 22 2 20.65 2 19V9C2 7.35 3.35 6 5 6H19C20.65 6 22 7.35 22 9V19Z" fill="currentColor"/>
</svg>
