<svg width="24" height="24" viewBox="0 0 24 24" fill="none" xmlns="http://www.w3.org/2000/svg">
<path fill-rule="evenodd" clip-rule="evenodd" d="M2.51219 7.31354C2.21934 6.95106 1.6881 6.89461 1.32563 7.18745C0.963149 7.4803 0.906696 8.01154 1.19954 8.37401C1.72623 9.02597 2.38059 9.73079 3.17102 10.4067L1.11318 13.971C0.880187 14.3746 1.01846 14.8906 1.42202 15.1236C1.82558 15.3566 2.34161 15.2183 2.5746 14.8148L4.52672 11.4336C5.58239 12.1369 6.81702 12.7489 8.24279 13.1519L7.62893 16.6333C7.54801 17.0922 7.85442 17.5298 8.31335 17.6107C8.77226 17.6916 9.20987 17.3852 9.29079 16.9263L9.89391 13.5058C10.5546 13.6042 11.2499 13.6577 11.9809 13.6577C12.7083 13.6577 13.4004 13.6047 14.0581 13.5073L14.6612 16.9278C14.7421 17.3867 15.1797 17.6931 15.6386 17.6122C16.0976 17.5313 16.404 17.0937 16.323 16.6348L15.7094 13.1546C17.1368 12.7523 18.3728 12.1406 19.4297 11.4372L21.3705 14.7991C21.6036 15.2026 22.1196 15.3409 22.5231 15.1079C22.9268 14.8749 23.0651 14.3589 22.832 13.9553L20.7857 10.4111C21.5784 9.73382 22.2344 9.02738 22.7622 8.37404C23.0552 8.01156 22.9986 7.48032 22.6362 7.18748C22.2737 6.89464 21.7425 6.95109 21.4496 7.31356C20.8652 8.03707 20.117 8.82074 19.1894 9.53516C19.1834 9.53969 19.1774 9.54431 19.1714 9.54898C17.4345 10.8819 15.0716 11.9702 11.9809 11.9702C8.89497 11.9702 6.53447 10.8852 4.79825 9.55501C4.78415 9.54341 4.76961 9.53221 4.75463 9.52144C3.83534 8.81071 3.09296 8.03242 2.51219 7.31354Z" fill="currentColor"/>
</svg>
