<svg width="100" height="100" viewBox="0 0 100 100" fill="none" xmlns="http://www.w3.org/2000/svg">
<path d="M97.1001 33.3H2.80005C3.80005 30.4 5.10005 27.6 6.60005 25C15.3 10 31.5 0 50 0C68.5 0 84.7 10 93.3 25C94.8 27.6 96.1001 30.4 97.1001 33.3Z" fill="white"/>
<path d="M100 50C100 55.8 99 61.5 97.1 66.7H2.8C0.999999 61.5 0 55.8 0 50C0 44.2 0.999999 38.5 2.8 33.3H97.1C99 38.5 100 44.2 100 50Z" fill="#35469C"/>
<path d="M97.0999 66.7C96.0999 69.6 94.7999 72.4 93.2999 75C84.6999 90 68.4999 100 49.9999 100C31.4999 100 15.2999 90 6.6999 75C5.1999 72.4 3.8999 69.6 2.8999 66.7H97.0999Z" fill="#ED2424"/>
</svg>
