<svg width="13" height="13" viewBox="0 0 13 13" fill="none" xmlns="http://www.w3.org/2000/svg">
<circle cx="6.5" cy="6.5" r="6.5" fill="currentColor"/>
<path d="M7.16592 4V6.36771L7.04036 8.03587H6.287L6.16144 6.36771V4H7.16592ZM6.66368 8.73543C6.86697 8.73543 7.0284 8.79522 7.14798 8.9148C7.27354 9.0284 7.33632 9.18087 7.33632 9.3722C7.33632 9.56353 7.27354 9.71599 7.14798 9.8296C7.0284 9.9432 6.86697 10 6.66368 10C6.46637 10 6.30493 9.9432 6.17937 9.8296C6.05979 9.71599 6 9.56353 6 9.3722C6 9.18087 6.05979 9.0284 6.17937 8.9148C6.30493 8.79522 6.46637 8.73543 6.66368 8.73543Z" fill="white"/>
</svg>
