<svg width="24" height="24" viewBox="0 0 24 24" fill="none" xmlns="http://www.w3.org/2000/svg">
<g clip-path="url(#clip0_2804_3915)">
<path d="M13.5063 7.43127H10.4437V12.05H13.5063C14.7797 12.05 15.8156 11.014 15.8156 9.74062C15.8156 8.44879 14.7685 7.43127 13.5063 7.43127Z" fill="currentColor"/>
<path d="M12 0C5.38317 0 0 5.38317 0 12C0 18.6168 5.38317 24 12 24C18.6168 24 24 18.6168 24 12C24 5.38317 18.6168 0 12 0ZM13.5063 13.4562H10.4438V15.0625H13.5063C13.8946 15.0625 14.2094 15.3773 14.2094 15.7656C14.2094 16.1539 13.8946 16.4687 13.5063 16.4687H10.4438V18.025C10.4438 18.4133 10.1289 18.7281 9.74063 18.7281C9.35231 18.7281 9.0375 18.4133 9.0375 18.025V16.4687H8.23439C7.84608 16.4687 7.53127 16.1539 7.53127 15.7656C7.53127 15.3773 7.84608 15.0625 8.23439 15.0625H9.0375V13.4562H8.23439C7.84608 13.4562 7.53127 13.1414 7.53127 12.7531C7.53127 12.3648 7.84608 12.05 8.23439 12.05H9.0375V6.72811C9.0375 6.3398 9.35231 6.02498 9.74063 6.02498H13.5063C15.5118 6.02498 17.2219 7.64119 17.2219 9.74063C17.2219 11.7894 15.5551 13.4562 13.5063 13.4562Z" fill="currentColor"/>
</g>
<defs>
<clipPath id="clip0_2804_3915">
<rect width="24" height="24" fill="white"/>
</clipPath>
</defs>
</svg>
