<svg width="24" height="24" viewBox="0 0 24 24" fill="none" xmlns="http://www.w3.org/2000/svg">
<path d="M0.172375 3.70793C-0.0179893 3.19156 -0.0487427 2.62989 0.0841061 2.09582C0.216955 1.56175 0.507271 1.07994 0.917375 0.712934C1.32416 0.344684 1.83197 0.106796 2.37527 0.0299704C2.91858 -0.046855 3.47244 0.0409084 3.96537 0.281934L22.0554 8.72593C22.5242 8.94234 22.9407 9.25748 23.2764 9.64979C23.6121 10.0421 23.859 10.5023 24.0004 10.9989H4.04837L0.229375 3.83493C0.208347 3.79354 0.189325 3.75116 0.172375 3.70793ZM4.06237 12.9999L0.309375 20.1749C0.28852 20.2143 0.270475 20.255 0.255375 20.2969C0.0657823 20.8134 0.0358232 21.375 0.169386 21.9087C0.302949 22.4424 0.593867 22.9236 1.00437 23.2899C1.50968 23.745 2.16538 23.9971 2.84537 23.9979C3.25437 23.9979 3.66437 23.9059 4.04637 23.7189L22.0574 15.2809C22.527 15.0639 22.944 14.7477 23.2798 14.3541C23.6155 13.9605 23.8621 13.4989 24.0024 13.0009H4.06237V12.9999Z" fill="currentColor"/>
</svg>
