<svg width="24" height="24" viewBox="0 0 24 24" fill="none" xmlns="http://www.w3.org/2000/svg">
<path d="M12 24C18.617 24 24 18.617 24 12C24 5.383 18.617 -4.70597e-07 12 -1.04907e-06C5.383 -1.62755e-06 1.62755e-06 5.383 1.04907e-06 12C4.70597e-07 18.617 5.383 24 12 24ZM12 2C17.514 2 22 6.486 22 12C22 17.514 17.514 22 12 22C6.486 22 2 17.514 2 12C2 6.486 6.486 2 12 2ZM6.334 15.746C6.23604 15.6585 6.15625 15.5526 6.09922 15.4343C6.04218 15.3161 6.009 15.1877 6.00157 15.0566C5.99414 14.9255 6.01261 14.7942 6.05592 14.6702C6.09923 14.5462 6.16654 14.432 6.254 14.334C6.34146 14.236 6.44736 14.1563 6.56565 14.0992C6.68395 14.0422 6.81232 14.009 6.94343 14.0016C7.07455 13.9941 7.20585 14.0126 7.32982 14.0559C7.4538 14.0992 7.56804 14.1665 7.666 14.254C7.684 14.27 9.669 16 12 16C14.331 16 16.316 14.27 16.336 14.252C16.535 14.0827 16.7924 13.9979 17.053 14.0159C17.3137 14.034 17.557 14.1533 17.7308 14.3484C17.9046 14.5435 17.9951 14.7989 17.983 15.0599C17.9709 15.3209 17.8571 15.5668 17.666 15.745C17.563 15.837 15.107 17.999 12 17.999C8.893 17.999 6.437 15.837 6.334 15.745L6.334 15.746ZM7 9.5C7.00013 9.10204 7.15835 8.72044 7.43984 8.43913C7.72133 8.15783 8.10304 7.99987 8.501 8C8.89896 8.00013 9.28056 8.15835 9.56187 8.43984C9.84317 8.72133 10.0011 9.10304 10.001 9.501C10.0009 9.69805 9.96206 9.89315 9.88659 10.0752C9.81112 10.2572 9.70054 10.4226 9.56116 10.5619C9.42178 10.7012 9.25633 10.8116 9.07426 10.887C8.89218 10.9623 8.69705 11.0011 8.5 11.001C8.30295 11.0009 8.10785 10.9621 7.92582 10.8866C7.7438 10.8111 7.57842 10.7005 7.43913 10.5612C7.29985 10.4218 7.18937 10.2563 7.11403 10.0743C7.03868 9.89218 6.99994 9.69705 7 9.5ZM14 9.5C14.0001 9.10204 14.1583 8.72044 14.4398 8.43913C14.7213 8.15783 15.103 7.99987 15.501 8C15.899 8.00013 16.2806 8.15835 16.5619 8.43984C16.8432 8.72133 17.0011 9.10304 17.001 9.501C17.0009 9.69805 16.9621 9.89315 16.8866 10.0752C16.8111 10.2572 16.7005 10.4226 16.5612 10.5619C16.4218 10.7012 16.2563 10.8116 16.0743 10.887C15.8922 10.9623 15.697 11.0011 15.5 11.001C15.303 11.0009 15.1078 10.9621 14.9258 10.8866C14.7438 10.8111 14.5784 10.7005 14.4391 10.5612C14.2998 10.4218 14.1894 10.2563 14.114 10.0743C14.0387 9.89218 13.9999 9.69705 14 9.5Z" fill="currentColor"/>
</svg>
